{
classes = (
{
code = "colon exclam period question semicolon quotedblleft quotedblright quoteleft quoteright questiondown exclamdown periodcentered ellipsis comma divide";
name = circular_punctuation;
},
{
code = "colon.ss01 exclam.ss01 period.ss01 question.ss01 semicolon.ss01 quotedblleft.ss01 quotedblright.ss01 quoteleft.ss01 quoteright.ss01 questiondown.ss01 exclamdown.ss01 periodcentered.ss01 ellipsis.ss01 comma.ss01 divide.ss01";
name = square_punctuation;
},
{
code = "a.old aacute abreve acircumflex adieresis agrave amacron aogonek aring atilde";
name = single_storey_a;
},
{
code = "a aacute.ss02 abreve.ss02 acircumflex.ss02 adieresis.ss02 agrave.ss02 amacron.ss02 aogonek.ss02 aring.ss02 atilde.ss02";
name = double_storey_a;
}
);
copyright = "Copyright 2020 The Albert Sans Project Authors (https://github.com/usted/AlbertSans)";
designer = "Andreas Rasmussen,  Jonny Pinhorn";
designerURL = andreasrasmussen.net;
familyName = "Albert Sans";
customParameters = (
{
name = glyphOrder;
value = (
A,
Aacute,
Abreve,
Acircumflex,
Adieresis,
Agrave,
Amacron,
Aogonek,
Aring,
Atilde,
AE,
AEacute,
B,
C,
Cacute,
Ccaron,
Ccedilla,
Cdotaccent,
D,
Eth,
Dcaron,
Dcroat,
E,
Eacute,
Ebreve,
Ecaron,
Ecircumflex,
Edieresis,
Edotaccent,
Egrave,
Emacron,
Eogonek,
Etilde,
F,
G,
Gbreve,
Gcommaaccent,
Gdotaccent,
H,
I,
Iacute,
Ibreve,
Icircumflex,
Idieresis,
Idotaccent,
Igrave,
Imacron,
Iogonek,
Itilde,
J,
K,
Kcommaaccent,
L,
Lacute,
Lcaron,
Lcommaaccent,
Ldot,
Lslash,
M,
N,
Nacute,
Ncaron,
Ncommaaccent,
Ntilde,
O,
Oacute,
Obreve,
Ocircumflex,
Odieresis,
Ograve,
Ohungarumlaut,
Omacron,
Oslash,
Otilde,
OE,
P,
Thorn,
Q,
R,
Racute,
Rcaron,
Rcommaaccent,
S,
Sacute,
Scaron,
Scedilla,
Scommaaccent,
T,
Tcaron,
Tcedilla,
Tcommaaccent,
U,
Uacute,
Ubreve,
Ucircumflex,
Udieresis,
Ugrave,
Uhungarumlaut,
Umacron,
Uogonek,
Uring,
Utilde,
V,
W,
Wacute,
Wcircumflex,
Wdieresis,
Wgrave,
X,
Y,
Yacute,
Ycircumflex,
Ydieresis,
Ygrave,
Ytilde,
Z,
Zacute,
Zcaron,
Zdotaccent,
a.old,
aacute,
abreve,

glyphs = (
{
glyphname = A;
leftMetricsKey = "H*0.1";
rightMetricsKey = "H*0.1";
layers = (
{
anchors = (
{
name = ogonek;
position = "{580, 0}";
},
{
name = top;
position = "{450, 697}";
}
);
hints = (
{
horizontal = 1;
place = "{700, -20}";
target = down;
type = TopGhost;
},
{
horizontal = 1;
place = "{0, 21}";
target = up;
type = BottomGhost;
}
);
layerId = "DDF9CB4A-5BD9-4FF0-B193-4B15C8A4E20E";
paths = (
{
closed = 1;
nodes = (
"33.51 0.051 LINE",
"156.064 210.942 LINE",
"546.914 210.942 LINE",
"585.01 0.051 LINE",
"608.01 0.051 LINE",
"479.911 700.038 LINE",
"417.911 700.038 LINE",
"10.51 0.051 LINE"
);
},
{
closed = 1;
nodes = (
"543.674 228.84 LINE",
"166.424 228.84 LINE",
"429.801 682.141 LINE",
"461.851 682.141 LINE"
);
}
);
width = 618;
},
{
anchors = (
{
name = ogonek;
position = "{638, 0}";
},
{
name = top;
position = "{495, 700}";
}
);
hints = (
{
horizontal = 1;
place = "{174, 93}";
type = Stem;
},
{
horizontal = 1;
place = "{700, -20}";
target = down;
type = TopGhost;
},
{
horizontal = 1;
place = "{0, 21}";
target = up;
type = BottomGhost;
}
);
layerId = "1561AD04-BD37-418E-8B6B-BE98B6024D19";
paths = (
{
closed = 1;
nodes = (
"127.1 0 LINE",
"222.059 174 LINE",
"559.319 173.8 LINE",
"584.9 0 LINE",
"704.85 0 LINE",
"595.4 700.35 LINE",
"396.2 700.35 LINE",
"8.15 0 LINE"
);
},
{
closed = 1;
nodes = (
"545.566 267.05 LINE",
"273.026 267.35 LINE",
"458.562 607.4 LINE",
"495.462 607.4 LINE"
);
}
);
width = 713;
},
{
anchors = (
{
name = ogonek;
position = "{777, 1}";
},
{
name = top;
position = "{577, 700}";
}
);
hints = (
{
horizontal = 1;
place = "{123, 166}";
type = Stem;
},
{
horizontal = 1;
place = "{523, 177}";
type = Stem;
},
{
horizontal = 1;
place = "{0, 21}";
target = up;
type = BottomGhost;
}
);
layerId = "42D00F0D-4BAE-4BEF-B7B4-E50550C9319F";
paths = (
{
closed = 1;
nodes = (
"236.7 0 LINE",
"302.074 123.3 LINE",
"622.124 123.3 LINE",
"638.3 0 LINE",
"872.65 0 LINE",
"752.94 700.05 LINE",
"402.54 700.05 LINE",
"3.35 0 LINE"
);
},
{
closed = 1;
nodes = (
"600.391 289.55 LINE",
"390.191 289.55 LINE",
"513.985 523.05 LINE",
"569.835 523.05 LINE"
);
}
);
width = 875;
},
{
anchors = (
{
name = ogonek;
position = "{777, 1}";
},
{
name = top;
position = "{438, 700}";
}
);
hints = (
{
horizontal = 1;
place = "{523, 177}";
type = Stem;
},
{
horizontal = 1;
place = "{123, 166}";
type = Stem;
},
{
horizontal = 1;
place = "{0, 21}";
target = up;
type = BottomGhost;
}
);
layerId = "C94DCDBE-E93C-4FE0-915D-AD8FEA32188B";
paths = (
{
closed = 1;
nodes = (
"236.7 0 LINE",
"277.5 123.3 LINE",
"597.65 123.3 LINE",
"638.3 0 LINE",
"872.65 0 LINE",
"613.7 700.05 LINE",
"263.3 700.05 LINE",
"3.35 0 LINE"
);
},
{
closed = 1;
nodes = (
"542.8 289.55 LINE",
"332.55 289.55 LINE",
"409.95 523.05 LINE",
"465.8 523.05 LINE"
);
}
);
width = 876;
},
{
anchors = (
{
name = ogonek;
position = "{638, 0}";
},
{
name = top;
position = "{356, 700}";
}
);
hints = (
{
horizontal = 1;
place = "{175, 92}";
type = Stem;
},
{
horizontal = 1;
place = "{700, -20}";
target = down;
type = TopGhost;
},
{
horizontal = 1;
place = "{0, 21}";
target = up;
type = BottomGhost;
}
);
layerId = "B277CF55-BF18-48AA-9059-7C346BD7E968";
paths = (
{
closed = 1;
nodes = (
"127.1 0 LINE",
"187.8 175 LINE",
"524.35 174.8 LINE",
"584.9 0 LINE",
"704.85 0 LINE",
"456.1 700.35 LINE",
"256.9 700.35 LINE",
"8.15 0 LINE"
);
},
{
closed = 1;
nodes = (
"492.35 267.1 LINE",
"219.85 267.35 LINE",
"337.9 607.4 LINE",
"374.35 607.4 LINE"
);
}
);
width = 713;
},
{
anchors = (
{
name = ogonek;
position = "{580, 0}";
},
{
name = top;
position = "{311, 697}";
}
);
hints = (
{
horizontal = 1;
place = "{700, -20}";
target = down;
type = TopGhost;
},
{
horizontal = 1;
place = "{0, 21}";
target = up;
type = BottomGhost;
}
);
layerId = "DC8E81A1-AADA-409F-9952-6B611BF6633C";
paths = (
{
closed = 1;
nodes = (
"33.5 0.051 LINE",
"113.95 210.892 LINE",
"505.05 210.892 LINE",
"585 0.051 LINE",
"608 0.051 LINE",
"340.65 700.038 LINE",
"278.65 700.038 LINE",
"10.5 0.051 LINE"
);
},
{
closed = 1;
nodes = (
"498.25 228.79 LINE",
"120.8 228.79 LINE",
"293.95 682.489 LINE",
"326.2 682.489 LINE"
);
}
);
width = 618;
}
);
unicode = 0041;
},
{
glyphname = Aogonek;
leftMetricsKey = A;
rightMetricsKey = A;
layers = (
{
layerId = "9C4DEAA9-1386-4D92-BB2A-C38933068A9D";
name = "Sep 20 17, 19:55";
paths = (
{
closed = 1;
nodes = (
"117 194 LINE",
"484 194 LINE",
"477 212 LINE",
"123 212 LINE"
);
},
{
closed = 1;
nodes = (
"30 0 LINE",
"53 0 LINE",
"306 662 LINE",
"296 662 LINE",
"551 -6 LINE",
"557 0 LINE",
"466 0 OFFCURVE",
"428 -42 OFFCURVE",
"428 -95 CURVE",
"428 -148 OFFCURVE",
"466 -190 OFFCURVE",
"543 -190 CURVE",
"611 -190 LINE",
"611 -170 LINE",
"543 -170 LINE SMOOTH",
"484 -170 OFFCURVE",
"448 -142 OFFCURVE",
"448 -95 CURVE",
"448 -48 OFFCURVE",
"484 -20 OFFCURVE",
"543 -20 CURVE SMOOTH",
"571 -20 LINE",
"571 0 LINE",
"311 683 LINE",
"291 683 LINE"
);
}
);
width = 601;
},
{
anchors = (
{
name = _ogonek;
position = "{429, 0}";
}
);
components = (
{
name = A;
transform = "{1, 0, 0, 1, 0.415, 0}";
alignment = -1;
}
);
hints = (
{
horizontal = 1;
place = "{-189, 21}";
target = up;
type = BottomGhost;
}
);
layerId = "DDF9CB4A-5BD9-4FF0-B193-4B15C8A4E20E";
paths = (
{
closed = 1;
nodes = (
"514.234 -15.858 LINE SMOOTH",
"446.696 -43.699 OFFCURVE",
"415.972 -77.506 OFFCURVE",
"408.456 -115.29 CURVE SMOOTH",
"398.369 -166 OFFCURVE",
"432.82 -188.869 OFFCURVE",
"483.82 -188.869 CURVE SMOOTH",
"502.82 -188.869 OFFCURVE",
"525.611 -184.892 OFFCURVE",
"548.194 -176.938 CURVE",
"552.149 -157.051 LINE",
"529.567 -165.006 OFFCURVE",
"506.578 -169.977 OFFCURVE",
"486.578 -169.977 CURVE SMOOTH",
"447.578 -169.977 OFFCURVE",
"420.94 -153.074 OFFCURVE",
"428.654 -114.295 CURVE SMOOTH",
"434.39 -85.46 OFFCURVE",
"458.125 -56.625 OFFCURVE",
"514.872 -32.761 CURVE SMOOTH",
"593.399 0.051 LINE",
"589.366 14.966 LINE"
);
}
);
width = 619;
},
{
anchors = (
{
name = _ogonek;
position = "{486, 0}";
}
);
components = (
{
name = A;
transform = "{1, 0, 0, 1, 0.252, 0}";
alignment = -1;
}
);
hints = (
{
horizontal = 1;
place = "{-213, 74}";
type = Stem;
}
);
layerId = "1561AD04-BD37-418E-8B6B-BE98B6024D19";
paths = (
{
closed = 1;
nodes = (
"577.651 38.642 LINE SMOOTH",
"475.036 -4.667 OFFCURVE",
"432.443 -52.893 OFFCURVE",
"422.263 -104.075 CURVE SMOOTH",
"406.285 -184.402 OFFCURVE",
"470.692 -212.517 OFFCURVE",
"533.692 -212.517 CURVE SMOOTH",
"562.732 -212.517 OFFCURVE",
"592.927 -206.483 OFFCURVE",
"617.693 -197.432 CURVE",
"632.194 -124.53 LINE",
"607.35 -133.61 OFFCURVE",
"582.348 -138.654 OFFCURVE",
"563.385 -138.654 CURVE SMOOTH",
"529.385 -138.654 OFFCURVE",
"512.017 -120.393 OFFCURVE",
"517.667 -91.989 CURVE SMOOTH",
"522.514 -67.622 OFFCURVE",
"540.541 -47.375 OFFCURVE",
"587.949 -25.216 CURVE SMOOTH",
"641.755 -0.131 LINE",
"623.526 57.807 LINE"
);
}
);
width = 714;
},
{
anchors = (
{
name = _ogonek;
position = "{875, 1}";
}
);
components = (
{
name = A;
transform = "{1, 0, 0, 1, 0.465, 0}";
alignment = -1;
}
);
hints = (
{
horizontal = 1;
place = "{-220, 117}";
type = Stem;
}
);
layerId = "42D00F0D-4BAE-4BEF-B7B4-E50550C9319F";
paths = (
{
closed = 1;
nodes = (
"659.478 91.208 LINE SMOOTH",
"491.176 28.946 OFFCURVE",
"441.666 -23.475 OFFCURVE",
"427.594 -94.217 CURVE SMOOTH",
"411.752 -173.86 OFFCURVE",
"462.643 -219.655 OFFCURVE",
"562.643 -219.655 CURVE SMOOTH",
"605.509 -219.655 OFFCURVE",
"644.704 -213.724 OFFCURVE",
"679.79 -203.838 CURVE",
"703.02 -87.048 LINE",
"668.017 -97.836 OFFCURVE",
"640.033 -102.74 OFFCURVE",
"617.899 -102.74 CURVE SMOOTH",
"593.899 -102.74 OFFCURVE",
"582.567 -94.353 OFFCURVE",
"585.533 -79.442 CURVE SMOOTH",
"588.542 -64.315 OFFCURVE",
"604.344 -45.202 OFFCURVE",
"672.634 -18.607 CURVE SMOOTH",
"721. 0.361 LINE",
"699.139 105.88 LINE"
);
}
);
width = 876;
},
{
anchors = (
{
name = _ogonek;
position = "{735, 1}";
}
);
components = (
{
name = A;
transform = "{1, 0, 0, 1, 0.127, 0}";
alignment = -1;
}
);
hints = (
{
place = "{456, 155}";
type = Stem;
},
{
horizontal = 1;
place = "{-222, 117}";
type = Stem;
}
);
layerId = "C94DCDBE-E93C-4FE0-915D-AD8FEA32188B";
paths = (
{
closed = 1;
nodes = (
"651.016 88.685 LINE SMOOTH",
"495.098 26.424 OFFCURVE",
"456.016 -25.998 OFFCURVE",
"456.016 -96.74 CURVE SMOOTH",
"456.016 -176.383 OFFCURVE",
"516.016 -222.177 OFFCURVE",
"616.016 -222.177 CURVE SMOOTH",
"658.881 -222.177 OFFCURVE",
"696.896 -216.246 OFFCURVE",
"730.016 -206.36 CURVE",
"730.016 -89.571 LINE",
"697.158 -100.359 OFFCURVE",
"670.15 -105.262 OFFCURVE",
"648.016 -105.262 CURVE SMOOTH",
"624.016 -105.262 OFFCURVE",
"611.016 -96.875 OFFCURVE",
"611.016 -81.965 CURVE SMOOTH",
"611.016 -66.837 OFFCURVE",
"623.016 -47.724 OFFCURVE",
"686.016 -21.129 CURVE SMOOTH",
"730.608 -2.162 LINE",
"687.758 103.357 LINE"
);
}
);
width = 876;
},
{
anchors = (
{
name = _ogonek;
position = "{-333, 0}";
}
);
components = (
{
name = A;
transform = "{1, 0, 0, 1, 0.585, 0}";
alignment = -1;
}
);
hints = (
{
place = "{456, 93}";
type = Stem;
},
{
place = "{456, 214}";
type = Stem;
},
{
horizontal = 1;
place = "{-213, 74}";
type = Stem;
}
);
layerId = "B277CF55-BF18-48AA-9059-7C346BD7E968";
paths = (
{
closed = 1;
nodes = (
"583. 38.642 LINE SMOOTH",
"489. -4.667 OFFCURVE",
"456. -52.893 OFFCURVE",
"456. -104.075 CURVE SMOOTH",
"456. -184.402 OFFCURVE",
"526. -212.517 OFFCURVE",
"589. -212.517 CURVE SMOOTH",
"618.04 -212.517 OFFCURVE",
"647.035 -206.483 OFFCURVE",
"670. -197.432 CURVE",
"670. -124.53 LINE",
"646.963 -133.61 OFFCURVE",
"622.963 -138.654 OFFCURVE",
"604. -138.654 CURVE SMOOTH",
"570. -138.654 OFFCURVE",
"549. -120.393 OFFCURVE",
"549. -91.989 CURVE SMOOTH",
"549. -67.622 OFFCURVE",
"563. -47.375 OFFCURVE",
"606. -25.216 CURVE SMOOTH",
"654.817 -0.131 LINE",
"625.063 57.807 LINE"
);
}
);
width = 714;
},
{
anchors = (
{
name = _ogonek;
position = "{-269, 0}";
}
);
components = (
{
name = A;
transform = "{1, 0, 0, 1, -0.266, 0}";
alignment = -1;
}
);
hints = (
{
place = "{436, 20}";
type = Stem;
},
{
horizontal = 1;
place = "{-189, 21}";
target = up;
type = BottomGhost;
}
);
layerId = "DC8E81A1-AADA-409F-9952-6B611BF6633C";
paths = (
{
closed = 1;
nodes = (
"522. -15.858 LINE SMOOTH",
"460. -43.699 OFFCURVE",
"436. -77.506 OFFCURVE",
"436. -115.29 CURVE SMOOTH",
"436. -166 OFFCURVE",
"475. -188.869 OFFCURVE",
"526. -188.869 CURVE SMOOTH",
"545. -188.869 OFFCURVE",
"567. -184.892 OFFCURVE",
"588. -176.938 CURVE",
"588. -157.051 LINE",
"567. -165.006 OFFCURVE",
"545. -169.977 OFFCURVE",
"525. -169.977 CURVE SMOOTH",
"486. -169.977 OFFCURVE",
"456. -153.074 OFFCURVE",
"456. -114.295 CURVE SMOOTH",
"456. -85.46 OFFCURVE",
"474. -56.625 OFFCURVE",
"526. -32.761 CURVE SMOOTH",
"598. 0.051 LINE",
"591. 14.966 LINE"
);
}
);
width = 618;
}
);
unicode = 0104;
},
{
glyphname = AE;
leftMetricsKey = A;
rightMetricsKey = E;
layers = (
{
hints = (
{
horizontal = 1;
place = "{0, 211}";
type = Stem;
},
{
horizontal = 1;
place = "{700, -20}";
target = down;
type = TopGhost;
}
);
layerId = "DDF9CB4A-5BD9-4FF0-B193-4B15C8A4E20E";
paths = (
{
closed = 1;
nodes = (
"175.383 192.945 LINE",
"488.383 192.945 LINE",
"491.944 210.843 LINE",
"184.944 210.843 LINE"
);
},
{
closed = 1;
nodes = (
"922.701 682.141 LINE",
"926.261 700.038 LINE",
"582.261 700.038 LINE",
"10.01 0.051 LINE",
"33.01 0.051 LINE",
"574.943 663.249 LINE",
"443.01 0.051 LINE",
"787.01 0.051 LINE",
"790.571 17.949 LINE",
"466.571 17.949 LINE",
"530.856 341.096 LINE",
"824.856 341.096 LINE",
"828.416 358.993 LINE",
"534.416 358.993 LINE",
"598.701 682.141 LINE"
);
}
);
width = 872;
},
{
hints = (
{
horizontal = 1;
place = "{0, 89}";
type = Stem;
},
{
horizontal = 1;
place = "{143, 89}";
type = Stem;
},
{
horizontal = 1;
place = "{310, 88}";
type = Stem;
},
{
horizontal = 1;
place = "{611, 89}";
type = Stem;
}
);
layerId = "1561AD04-BD37-418E-8B6B-BE98B6024D19";
paths = (
{
closed = 1;
nodes = (
"176.725 143.021 LINE",
"549.447 143.021 LINE",
"567.143 231.992 LINE",
"244.048 231.992 LINE"
);
},
{
closed = 1;
nodes = (
"972.6 611.364 LINE",
"990.297 700.336 LINE",
"530.202 700.336 LINE",
"8.271 0 LINE",
"132.094 0 LINE",
"591.537 621.102 LINE",
"468 0 LINE",
"851 0 LINE",
"868.696 88.971 LINE",
"599.763 89.306 LINE",
"643.702 310.214 LINE",
"882.702 310.214 LINE",
"900.231 398.346 LINE",
"661.231 398.346 LINE",
"703.6 611.364 LINE"
);
}
);
width = 916;
},
{
hints = (
{
horizontal = 1;
place = "{0, 177}";
type = Stem;
},
{
horizontal = 1;
place = "{96, 167}";
type = Stem;
},
{
horizontal = 1;
place = "{276, 167}";
type = Stem;
},
{
horizontal = 1;
place = "{524, 176}";
type = Stem;
}
);
layerId = "42D00F0D-4BAE-4BEF-B7B4-E50550C9319F";
paths = (
{
closed = 1;
nodes = (
"176.888 95.545 LINE",
"621.004 95.545 LINE",
"654.25 262.695 LINE",
"304.635 262.695 LINE"
);
},
{
closed = 1;
nodes = (
"1060.228 524.02 LINE",
"1095.237 700.035 LINE",
"482.604 700.035 LINE",
"3.076 0 LINE",
"244.638 0 LINE",
"599.36 529.714 LINE",
"494 0 LINE",
"956 0 LINE",
"991.205 177 LINE",
"751.205 177 LINE",
"770.857 275.8 LINE",
"980.857 275.8 LINE",
"1014.103 442.95 LINE",
"804.103 442.95 LINE",
"820.228 524.02 LINE"
);
}
);
width = 965;
},
{
hints = (
{
place = "{494, 222}";
type = Stem;
},
{
horizontal = 1;
place = "{0, 177}";
type = Stem;
},
{
horizontal = 1;
place = "{96, 167}";
type = Stem;
},
{
horizontal = 1;
place = "{276, 167}";
type = Stem;
},
{
horizontal = 1;
place = "{524, 176}";
type = Stem;
}
);
layerId = "C94DCDBE-E93C-4FE0-915D-AD8FEA32188B";
paths = (
{
closed = 1;
nodes = (
"157.884 95.545 LINE",
"602 95.545 LINE",
"602 262.695 LINE",
"252.385 262.695 LINE"
);
},
{
closed = 1;
nodes = (
"956 524.02 LINE",
"956 700.035 LINE",
"343.367 700.035 LINE",
"3.076 0 LINE",
"244.638 0 LINE",
"494 529.714 LINE",
"494 0 LINE",
"956 0 LINE",
"956 177 LINE",
"716 177 LINE",
"716 275.8 LINE",
"926 275.8 LINE",
"926 442.95 LINE",
"716 442.95 LINE",
"716 524.02 LINE"
);
}
);
width = 966;
},
{
hints = (
{
place = "{468, 114}";
type = Stem;
},
{
horizontal = 1;
place = "{0, 89}";
type = Stem;
},
{
horizontal = 1;
place = "{143, 89}";
type = Stem;
},
{
horizontal = 1;
place = "{310, 88}";
type = Stem;
},
{
horizontal = 1;
place = "{611, 89}";
type = Stem;
}
);
layerId = "B277CF55-BF18-48AA-9059-7C346BD7E968";
paths = (
{
closed = 1;
nodes = (
"148.278 143.021 LINE",
"521 143.021 LINE",
"521 231.992 LINE",
"197.905 231.992 LINE"
);
},
{
closed = 1;
nodes = (
"851 611.364 LINE",
"851 700.336 LINE",
"390.905 700.336 LINE",
"8.271 0 LINE",
"132.094 0 LINE",
"468 621.102 LINE",
"468 0 LINE",
"851 0 LINE",
"851 88.971 LINE",
"582 89.306 LINE",
"582 310.214 LINE",
"821 310.214 LINE",
"821 398.346 LINE",
"582 398.346 LINE",
"582 611.364 LINE"
);
}
);
width = 916;
},
{
hints = (
{
place = "{443, 20}";
type = Stem;
},
{
horizontal = 1;
place = "{700, -20}";
target = down;
type = TopGhost;
},
{
horizontal = 1;
place = "{0, 21}";
target = up;
type = BottomGhost;
}
);
layerId = "DC8E81A1-AADA-409F-9952-6B611BF6633C";
paths = (
{
closed = 1;
nodes = (
"137 192.945 LINE",
"450 192.945 LINE",
"450 210.843 LINE",
"143 210.843 LINE"
);
},
{
closed = 1;
nodes = (
"787 682.141 LINE",
"787 700.038 LINE",
"443 700.038 LINE",
"10 0.051 LINE",
"33 0.051 LINE",
"443 663.249 LINE",
"443 0.051 LINE",
"787 0.051 LINE",
"787 17.949 LINE",
"463 17.949 LINE",
"463 341.096 LINE",
"757 341.096 LINE",
"757 358.993 LINE",
"463 358.993 LINE",
"463 682.141 LINE"
);
}
);
width = 872;
}
);
unicode = 00C6;
},
{
glyphname = B;
leftMetricsKey = H;
rightMetricsKey = "H*0.66";
layers = (
{
hints = (
{
horizontal = 1;
place = "{700, -20}";
target = down;
type = TopGhost;
},
{
horizontal = 1;
place = "{0, 21}";
target = up;
type = BottomGhost;
}
);
layerId = "DDF9CB4A-5BD9-4FF0-B193-4B15C8A4E20E";
paths = (
{
closed = 1;
nodes = (
"629.441 434.569 OFFCURVE",
"554.382 368.915 OFFCURVE",
"435.382 368.915 CURVE SMOOTH",
"197.382 368.915 LINE",
"259.691 682.166 LINE",
"491.691 682.166 LINE SMOOTH",
"623.691 682.166 OFFCURVE",
"665.635 616.53 OFFCURVE",
"648.23 529.029 CURVE SMOOTH"
);
},
{
closed = 1;
nodes = (
"636.96 291.387 OFFCURVE",
"566.603 359.972 OFFCURVE",
"469.603 359.972 CURVE",
"461.207 357.984 LINE",
"542.405 358.978 OFFCURVE",
"644.299 408.717 OFFCURVE",
"668.23 529.029 CURVE SMOOTH",
"687.218 624.484 OFFCURVE",
"642.249 700.052 OFFCURVE",
"495.249 700.052 CURVE SMOOTH",
"243.249 700.052 LINE",
"104.01 0.051 LINE",
"356.01 0.051 LINE SMOOTH",
"508.01 0.051 OFFCURVE",
"595.624 83.574 OFFCURVE",
"616.193 186.983 CURVE SMOOTH"
);
},
{
closed = 1;
nodes = (
"575.624 83.574 OFFCURVE",
"487.568 17.938 OFFCURVE",
"359.568 17.938 CURVE SMOOTH",
"127.568 17.938 LINE",
"193.824 351.029 LINE",
"423.824 351.029 LINE SMOOTH",
"551.824 351.029 OFFCURVE",
"616.367 288.404 OFFCURVE",
"596.193 186.983 CURVE SMOOTH"
);
},
{
closed = 1;
nodes = (
"411.416 354.006 LINE",
"500.416 354.006 LINE",
"502.987 366.932 LINE",
"413.987 366.932 LINE"
);
}
);
width = 649;
},
{
hints = (
{
horizontal = 1;
place = "{0, 93}";
type = Stem;
},
{
horizontal = 1;
place = "{308, 93}";
type = Stem;
},
{
horizontal = 1;
place = "{607, 93}";
type = Stem;
}
);
layerId = "1561AD04-BD37-418E-8B6B-BE98B6024D19";
paths = (
{
closed = 1;
nodes = (
"585.243 438.599 OFFCURVE",
"532.843 401.396 OFFCURVE",
"458.843 401.396 CURVE SMOOTH",
"277.843 401.396 LINE",
"318.805 607.328 LINE",
"499.805 607.328 LINE SMOOTH",
"573.805 607.328 OFFCURVE",
"610.771 566.939 OFFCURVE",
"598.108 503.275 CURVE SMOOTH"
);
},
{
closed = 1;
nodes = (
"690.098 302.134 OFFCURVE",
"629.521 349.727 OFFCURVE",
"530.587 354.865 CURVE",
"530.718 355.524 LINE",
"617.087 367.431 OFFCURVE",
"696.328 413.889 OFFCURVE",
"716.912 517.376 CURVE SMOOTH",
"736.51 615.897 OFFCURVE",
"675.304 700.328 OFFCURVE",
"528.304 700.328 CURVE SMOOTH",
"223.304 700.328 LINE",
"84 0 LINE",
"402 0 LINE SMOOTH",
"544 0 OFFCURVE",
"646. 80.438 OFFCURVE",
"667.199 187.01 CURVE SMOOTH"
);
},
{
closed = 1;
nodes = (
"542.138 131.403 OFFCURVE",
"487.472 92.867 OFFCURVE",
"410.499 93 CURVE SMOOTH",
"216.565 93.334 LINE",
"259.311 308.229 LINE",
"449.311 308.229 LINE SMOOTH",
"525.311 308.229 OFFCURVE",
"569.468 268.8 OFFCURVE",
"555.603 199.096 CURVE SMOOTH"
);
},
{
closed = 1;
nodes = (
"473.519 334.416 LINE",
"552.519 334.416 LINE",
"563.205 388.135 LINE",
"484.205 388.135 LINE"
);
}
);
width = 687;
},
{
hints = (
{
horizontal = 1;
place = "{0, 178}";
type = Stem;
},
{
horizontal = 1;
place = "{276, 162}";
type = Stem;
},
{
horizontal = 1;
place = "{524, 176}";
type = Stem;
}
);
layerId = "42D00F0D-4BAE-4BEF-B7B4-E50550C9319F";
paths = (
{
closed = 1;
nodes = (
"526.343 449.157 OFFCURVE",
"505.158 438.175 OFFCURVE",
"465.158 438.175 CURVE SMOOTH",
"339.158 438.175 LINE",
"356.234 524.02 LINE",
"482.234 524.02 LINE SMOOTH",
"522.234 524.02 OFFCURVE",
"538.909 512.332 OFFCURVE",
"532.5 480.112 CURVE SMOOTH"
);
},
{
closed = 1;
nodes = (
"735.254 282.806 OFFCURVE",
"685.275 353.299 OFFCURVE",
"562.255 358.224 CURVE",
"558.373 364.24 LINE",
"661.796 364.24 OFFCURVE",
"745.456 414.534 OFFCURVE",
"765.931 517.467 CURVE SMOOTH",
"790.206 639.51 OFFCURVE",
"711.246 700.035 OFFCURVE",
"570.246 700.035 CURVE SMOOTH",
"169.246 700.035 LINE",
"30 0 LINE",
"441 0 LINE SMOOTH",
"595 0 OFFCURVE",
"692.81 69.429 OFFCURVE",
"717.274 192.417 CURVE SMOOTH"
);
},
{
closed = 1;
nodes = (
"490.746 194.79 OFFCURVE",
"468.403 177.985 OFFCURVE",
"428.403 177.985 CURVE SMOOTH",
"287.403 177.985 LINE",
"306.866 275.83 LINE",
"447.866 275.83 LINE SMOOTH",
"487.866 275.83 OFFCURVE",
"503.292 257.86 OFFCURVE",
"497.138 226.923 CURVE SMOOTH"
);
},
{
closed = 1;
nodes = (
"506.832 330.96 LINE",
"576.832 330.96 LINE",
"587.94 386.805 LINE",
"517.94 386.805 LINE"
);
}
);
width = 699;
},
{
hints = (
{
place = "{30, 222}";
type = Stem;
},
{
place = "{437, 226}";
type = Stem;
},
{
place = "{452, 227}";
type = Stem;
},
{
horizontal = 1;
place = "{0, 178}";
type = Stem;
},
{
horizontal = 1;
place = "{276, 162}";
type = Stem;
},
{
horizontal = 1;
place = "{524, 176}";
type = Stem;
}
);
layerId = "C94DCDBE-E93C-4FE0-915D-AD8FEA32188B";
paths = (
{
closed = 1;
nodes = (
"437 449.157 OFFCURVE",
"418 438.175 OFFCURVE",
"378 438.175 CURVE SMOOTH",
"252 438.175 LINE",
"252 524.02 LINE",
"378 524.02 LINE SMOOTH",
"418 524.02 OFFCURVE",
"437 512.332 OFFCURVE",
"437 480.112 CURVE SMOOTH"
);
},
{
closed = 1;
nodes = (
"679 282.806 OFFCURVE",
"615 353.299 OFFCURVE",
"491 358.224 CURVE",
"485.922 364.24 LINE",
"589.344 364.24 OFFCURVE",
"663 414.534 OFFCURVE",
"663 517.467 CURVE SMOOTH",
"663 639.51 OFFCURVE",
"572 700.035 OFFCURVE",
"431 700.035 CURVE SMOOTH",
"30 700.035 LINE",
"30 0 LINE",
"441 0 LINE SMOOTH",
"595 0 OFFCURVE",
"679 69.429 OFFCURVE",
"679 192.417 CURVE SMOOTH"
);
},
{
closed = 1;
nodes = (
"452 194.79 OFFCURVE",
"433 177.985 OFFCURVE",
"393 177.985 CURVE SMOOTH",
"252 177.985 LINE",
"252 275.83 LINE",
"393 275.83 LINE SMOOTH",
"433 275.83 OFFCURVE",
"452 257.86 OFFCURVE",
"452 226.923 CURVE SMOOTH"
);
},
{
closed = 1;
nodes = (
"441 330.96 LINE",
"511 330.96 LINE",
"511 386.805 LINE",
"441 386.805 LINE"
);
}
);
width = 698;
},
{
hints = (
{
place = "{85, 114}";
type = Stem;
},
{
place = "{499, 116}";
type = Stem;
},
{
place = "{517, 114}";
type = Stem;
},
{
horizontal = 1;
place = "{0, 93}";
type = Stem;
},
{
horizontal = 1;
place = "{308, 93}";
type = Stem;
},
{
horizontal = 1;
place = "{607, 93}";
type = Stem;
}
);
layerId = "B277CF55-BF18-48AA-9059-7C346BD7E968";
paths = (
{
closed = 1;
nodes = (
"499 438.599 OFFCURVE",
"454 401.396 OFFCURVE",
"380 401.396 CURVE SMOOTH",
"199 401.396 LINE",
"199 607.328 LINE",
"380 607.328 LINE SMOOTH",
"454 607.328 OFFCURVE",
"499 566.939 OFFCURVE",
"499 503.275 CURVE SMOOTH"
);
},
{
closed = 1;
nodes = (
"631 302.134 OFFCURVE",
"560.956 349.727 OFFCURVE",
"461 354.865 CURVE",
"461 355.524 LINE",
"545 367.431 OFFCURVE",
"615 413.889 OFFCURVE",
"615 517.376 CURVE SMOOTH",
"615 615.897 OFFCURVE",
"537 700.328 OFFCURVE",
"390 700.328 CURVE SMOOTH",
"85 700.328 LINE",
"85 0 LINE",
"403 0 LINE SMOOTH",
"545 0 OFFCURVE",
"631 80.438 OFFCURVE",
"631 187.01 CURVE SMOOTH"
);
},
{
closed = 1;
nodes = (
"517 131.403 OFFCURVE",
"470 92.867 OFFCURVE",
"393 93 CURVE SMOOTH",
"199 93.334 LINE",
"199 308.229 LINE",
"389 308.229 LINE SMOOTH",
"465 308.229 OFFCURVE",
"517 268.8 OFFCURVE",
"517 199.096 CURVE SMOOTH"
);
},
{
closed = 1;
nodes = (
"408 334.416 LINE",
"487 334.416 LINE",
"487 388.135 LINE",
"408 388.135 LINE"
);
}
);
width = 687;
},
{
hints = (
{
place = "{105, 20}";
type = Stem;
},
{
place = "{544, 20}";
type = Stem;
},
{
place = "{560, 20}";
type = Stem;
},
{
horizontal = 1;
place = "{700, -20}";
target = down;
type = TopGhost;
},
{
horizontal = 1;
place = "{0, 21}";
target = up;
type = BottomGhost;
}
);
layerId = "DC8E81A1-AADA-409F-9952-6B611BF6633C";
paths = (
{
closed = 1;
nodes = (
"544 434.569 OFFCURVE",
"482 368.915 OFFCURVE",
"363 368.915 CURVE SMOOTH",
"125 368.915 LINE",
"125 682.166 LINE",
"357 682.166 LINE SMOOTH",
"489 682.166 OFFCURVE",
"544 616.53 OFFCURVE",
"544 529.029 CURVE"
);
},
{
closed = 1;
nodes = (
"580 291.387 OFFCURVE",
"496 359.972 OFFCURVE",
"399 359.972 CURVE",
"391 357.984 LINE",
"472 358.978 OFFCURVE",
"564 408.717 OFFCURVE",
"564 529.029 CURVE",
"564 624.484 OFFCURVE",
"504 700.052 OFFCURVE",
"357 700.052 CURVE SMOOTH",
"105 700.052 LINE",
"105 0.051 LINE",
"357 0.051 LINE SMOOTH",
"509 0.051 OFFCURVE",
"580 83.574 OFFCURVE",
"580 186.983 CURVE SMOOTH"
);
},
{
closed = 1;
nodes = (
"560 83.574 OFFCURVE",
"485 17.938 OFFCURVE",
"357 17.938 CURVE SMOOTH",
"125 17.938 LINE",
"125 351.029 LINE",
"355 351.029 LINE SMOOTH",
"483 351.029 OFFCURVE",
"560 288.404 OFFCURVE",
"560 186.983 CURVE SMOOTH"
);
},
{
closed = 1;
nodes = (
"342 354.006 LINE",
"431 354.006 LINE",
"431 366.932 LINE",
"342 366.932 LINE"
);
}
);
width = 649;
}
);
unicode = 0042;
},
{
glyphname = C;
leftMetricsKey = O;
rightMetricsKey = "O*1.3333";
layers = (
{
anchors = (
{
name = bottom;
position = "{403, 0}";
},
{
name = top;
position = "{519, 700}";
}
);
hints = (
{
horizontal = 1;
place = "{-7, 21}";
target = up;
type = BottomGhost;
},
{
horizontal = 1;
place = "{707, -20}";
target = down;
type = TopGhost;
}
);
layerId = "DDF9CB4A-5BD9-4FF0-B193-4B15C8A4E20E";
paths = (
{
closed = 1;
nodes = (
"79.9 140.247 OFFCURVE",
"187.626 -6.909 OFFCURVE",
"378.626 -6.909 CURVE SMOOTH",
"545.594 -6.909 OFFCURVE",
"665.527 75.587 OFFCURVE",
"739.283 201.265 CURVE",
"723.215 207.516 LINE",
"659.921 96.608 OFFCURVE",
"540.054 8.877 OFFCURVE",
"382.186 10.988 CURVE",
"212.186 10.988 OFFCURVE",
"100.702 139.253 OFFCURVE",
"142.438 349.05 CURVE SMOOTH",
"184.569 560.836 OFFCURVE",
"347.086 689.101 OFFCURVE",
"517.086 689.101 CURVE SMOOTH",
"673.115 689.101 OFFCURVE",
"756.285 609.673 OFFCURVE",
"777.611 501.533 CURVE",
"796.277 507.853 LINE",
"770.046 628.823 OFFCURVE",
"683.184 706.998 OFFCURVE",
"520.646 706.998 CURVE SMOOTH",
"329.646 706.998 OFFCURVE",
"163.372 559.842 OFFCURVE",
"121.438 349.05 CURVE SMOOTH"
);
}
);
width = 769;
},
{
anchors = (
{
name = bottom;
position = "{392, 0}";
},
{
name = top;
position = "{541, 709}";
}
);
hints = (
{
horizontal = 1;
place = "{-6, 100}";
type = Stem;
},
{
horizontal = 1;
place = "{608, 101}";
type = Stem;
}
);
layerId = "1561AD04-BD37-418E-8B6B-BE98B6024D19";
paths = (
{
closed = 1;
nodes = (
"70.976 140.674 OFFCURVE",
"200.732 -6.378 OFFCURVE",
"396.732 -6.378 CURVE SMOOTH",
"537.55 -6.378 OFFCURVE",
"670.53 58.807 OFFCURVE",
"760.956 202.733 CURVE",
"668.311 239.303 LINE",
"593.928 129.628 OFFCURVE",
"497.23 93.335 OFFCURVE",
"416.561 93.335 CURVE SMOOTH",
"278.561 93.335 OFFCURVE",
"198.391 193.048 OFFCURVE",
"229.838 351.179 CURVE SMOOTH",
"261.285 509.309 OFFCURVE",
"380.915 608.015 OFFCURVE",
"518.915 608.015 CURVE SMOOTH",
"597.343 608.015 OFFCURVE",
"677.498 573.05 OFFCURVE",
"706.631 483.845 CURVE",
"814.872 520.995 LINE",
"781.649 643.339 OFFCURVE",
"675.694 708.735 OFFCURVE",
"538.945 708.735 CURVE SMOOTH",
"342.945 708.735 OFFCURVE",
"154.501 560.676 OFFCURVE",
"112.838 351.179 CURVE SMOOTH"
);
}
);
width = 777;
},
{
anchors = (
{
name = bottom;
position = "{363, 1}";
},
{
name = top;
position = "{506, 702}";
}
);
hints = (
{
horizontal = 1;
place = "{-4, 202}";
type = Stem;
},
{
horizontal = 1;
place = "{504, 202}";
type = Stem;
}
);
layerId = "42D00F0D-4BAE-4BEF-B7B4-E50550C9319F";
paths = (
{
closed = 1;
nodes = (
"44.474 143.168 OFFCURVE",
"148.285 -3.598 OFFCURVE",
"365.285 -3.598 CURVE SMOOTH",
"543.039 -3.598 OFFCURVE",
"686.405 96.084 OFFCURVE",
"753.153 247.224 CURVE",
"546.446 284.801 LINE",
"501.999 212.97 OFFCURVE",
"450.55 198.328 OFFCURVE",
"401.444 198.328 CURVE SMOOTH",
"326.444 198.328 OFFCURVE",
"292.394 258.413 OFFCURVE",
"310.809 351.003 CURVE SMOOTH",
"329.223 443.593 OFFCURVE",
"387.173 503.678 OFFCURVE",
"462.173 503.678 CURVE SMOOTH",
"510.646 503.678 OFFCURVE",
"547.721 487.841 OFFCURVE",
"566.49 425.681 CURVE",
"793.901 464.036 LINE",
"783.508 609.977 OFFCURVE",
"680.433 705.603 OFFCURVE",
"506.333 705.603 CURVE SMOOTH",
"289.333 705.603 OFFCURVE",
"127.143 558.838 OFFCURVE",
"85.809 351.003 CURVE SMOOTH"
);
}
);
width = 723;
},
{
anchors = (
{
name = bottom;
position = "{362, 1}";
},
{
name = top;
position = "{365, 702}";
}
);
hints = (
{
place = "{15, 225}";
type = Stem;
},
{
horizontal = 1;
place = "{-4, 202}";
type = Stem;
},
{
horizontal = 1;
place = "{504, 202}";
type = Stem;
}
);
layerId = "C94DCDBE-E93C-4FE0-915D-AD8FEA32188B";
paths = (
{
closed = 1;
nodes = (
"15 143.168 OFFCURVE",
"148 -3.598 OFFCURVE",
"365 -3.598 CURVE SMOOTH",
"542.755 -3.598 OFFCURVE",
"666.296 96.084 OFFCURVE",
"702.985 247.224 CURVE",
"488.804 284.801 LINE",
"458.643 212.97 OFFCURVE",
"410.106 198.328 OFFCURVE",
"361 198.328 CURVE SMOOTH",
"286 198.328 OFFCURVE",
"240 258.413 OFFCURVE",
"240 351.003 CURVE SMOOTH",
"240 443.593 OFFCURVE",
"286 503.678 OFFCURVE",
"361 503.678 CURVE SMOOTH",
"409.473 503.678 OFFCURVE",
"449.697 487.841 OFFCURVE",
"480.829 425.681 CURVE",
"700.612 464.036 LINE",
"661.194 609.977 OFFCURVE",
"539.101 705.603 OFFCURVE",
"365 705.603 CURVE SMOOTH",
"148 705.603 OFFCURVE",
"15 558.838 OFFCURVE",
"15 351.003 CURVE SMOOTH"
);
}
);
width = 722;
},
{
anchors = (
{
name = bottom;
position = "{391, 0}";
},
{
name = top;
position = "{399, 709}";
}
);
hints = (
{
place = "{42, 117}";
type = Stem;
},
{
horizontal = 1;
place = "{-6, 100}";
type = Stem;
},
{
horizontal = 1;
place = "{608, 101}";
type = Stem;
}
);
layerId = "B277CF55-BF18-48AA-9059-7C346BD7E968";
paths = (
{
closed = 1;
nodes = (
"42 140.674 OFFCURVE",
"201 -6.378 OFFCURVE",
"397 -6.378 CURVE SMOOTH",
"537.818 -6.378 OFFCURVE",
"657.835 58.807 OFFCURVE",
"719.639 202.733 CURVE",
"619.722 239.303 LINE",
"567.149 129.628 OFFCURVE",
"477.669 93.335 OFFCURVE",
"397 93.335 CURVE SMOOTH",
"259 93.335 OFFCURVE",
"159 193.048 OFFCURVE",
"159 351.179 CURVE SMOOTH",
"159 509.309 OFFCURVE",
"259 608.015 OFFCURVE",
"397 608.015 CURVE SMOOTH",
"475.429 608.015 OFFCURVE",
"562.537 573.05 OFFCURVE",
"609.41 483.845 CURVE",
"710.262 520.995 LINE",
"652.709 643.339 OFFCURVE",
"533.749 708.735 OFFCURVE",
"397 708.735 CURVE SMOOTH",
"201 708.735 OFFCURVE",
"42 560.676 OFFCURVE",
"42 351.179 CURVE SMOOTH"
);
}
);
width = 776;
},
{
anchors = (
{
name = bottom;
position = "{403, 0}";
},
{
name = top;
position = "{380, 700}";
}
);
hints = (
{
place = "{52, 21}";
type = Stem;
},
{
horizontal = 1;
place = "{-7, 21}";
target = up;
type = BottomGhost;
},
{
horizontal = 1;
place = "{707, -20}";
target = down;
type = TopGhost;
}
);
layerId = "DC8E81A1-AADA-409F-9952-6B611BF6633C";
paths = (
{
closed = 1;
nodes = (
"52 140.247 OFFCURVE",
"189 -6.909 OFFCURVE",
"380 -6.909 CURVE SMOOTH",
"546.969 -6.909 OFFCURVE",
"650.491 75.587 OFFCURVE",
"699.245 201.265 CURVE",
"681.934 207.516 LINE",
"640.702 96.608 OFFCURVE",
"538.288 8.877 OFFCURVE",
"380 10.988 CURVE",
"210 10.988 OFFCURVE",
"73 139.253 OFFCURVE",
"73 349.05 CURVE SMOOTH",
"73 560.836 OFFCURVE",
"210 689.101 OFFCURVE",
"380 689.101 CURVE SMOOTH",
"536.03 689.101 OFFCURVE",
"635. 609.673 OFFCURVE",
"677.839 501.533 CURVE",
"695.248 507.853 LINE",
"644.952 628.823 OFFCURVE",
"542.538 706.998 OFFCURVE",
"380 706.998 CURVE SMOOTH",
"189 706.998 OFFCURVE",
"52 559.842 OFFCURVE",
"52 349.05 CURVE SMOOTH"
);
}
);
width = 769;
}
);
unicode = 0043;
},
{
glyphname = D;
leftMetricsKey = H;
rightMetricsKey = "H*0.5";
layers = (
{
anchors = (
{
name = top;
position = "{505, 679}";
}
);
hints = (
{
horizontal = 1;
place = "{0, 21}";
target = up;
type = BottomGhost;
},
{
horizontal = 1;
place = "{700, -20}";
target = down;
type = TopGhost;
}
);
layerId = "DDF9CB4A-5BD9-4FF0-B193-4B15C8A4E20E";
paths = (
{
closed = 1;
nodes = (
"244.261 700.038 LINE",
"105.01 0.051 LINE",
"310.01 0.051 LINE SMOOTH",
"555.01 0.051 OFFCURVE",
"707.724 129.31 OFFCURVE",
"751.636 350.045 CURVE SMOOTH",
"795.547 570.779 OFFCURVE",
"694.261 700.038 OFFCURVE",
"449.261 700.038 CURVE SMOOTH"
);
},
{
closed = 1;
nodes = (
"128.571 17.949 LINE",
"260.701 682.141 LINE",
"445.701 682.141 LINE SMOOTH",
"681.701 682.141 OFFCURVE",
"772.383 554.871 OFFCURVE",
"731.636 350.045 CURVE SMOOTH",
"690.889 145.219 OFFCURVE",
"549.571 17.949 OFFCURVE",
"313.571 17.949 CURVE SMOOTH"
);
}
);
width = 735;
},
{
anchors = (
{
name = top;
position = "{524, 701}";
}
);
hints = (
{
horizontal = 1;
place = "{0, 93}";
type = Stem;
},
{
horizontal = 1;
place = "{607, 93}";
type = Stem;
}
);
layerId = "1561AD04-BD37-418E-8B6B-BE98B6024D19";
paths = (
{
closed = 1;
nodes = (
"224.295 700.328 LINE",
"85 0 LINE",
"332 0 LINE SMOOTH",
"555 0 OFFCURVE",
"727.218 131.815 OFFCURVE",
"770.047 347.146 CURVE SMOOTH",
"813.078 563.487 OFFCURVE",
"694.295 700.328 OFFCURVE",
"471.295 700.328 CURVE SMOOTH"
);
},
{
closed = 1;
nodes = (
"217.564 93.334 LINE",
"319.798 607.328 LINE",
"452.798 607.328 LINE SMOOTH",
"616.798 607.328 OFFCURVE",
"684.941 507.496 OFFCURVE",
"653.047 347.146 CURVE SMOOTH",
"621.354 187.801 OFFCURVE",
"514.416 92.588 OFFCURVE",
"350.498 93 CURVE SMOOTH"
);
}
);
width = 743;
},
{
anchors = (
{
name = top;
position = "{500, 702}";
}
);
hints = (
{
horizontal = 1;
place = "{0, 198}";
type = Stem;
},
{
horizontal = 1;
place = "{506, 194}";
type = Stem;
}
);
layerId = "42D00F0D-4BAE-4BEF-B7B4-E50550C9319F";
paths = (
{
closed = 1;
nodes = (
"170.237 700.035 LINE",
"31 0 LINE",
"346 0 LINE SMOOTH",
"572 0 OFFCURVE",
"744.285 152.264 OFFCURVE",
"784.01 351.988 CURVE SMOOTH",
"824.13 553.697 OFFCURVE",
"711.237 700.035 OFFCURVE",
"485.237 700.035 CURVE SMOOTH"
);
},
{
closed = 1;
nodes = (
"292.32 197.685 LINE",
"353.701 506.29 LINE",
"426.701 506.29 LINE SMOOTH",
"524.701 506.29 OFFCURVE",
"579.018 452.577 OFFCURVE",
"559.01 351.988 CURVE SMOOTH",
"539.003 251.398 OFFCURVE",
"463.32 197.685 OFFCURVE",
"365.32 197.685 CURVE SMOOTH"
);
}
);
width = 728;
},
{
anchors = (
{
name = top;
position = "{359, 702}";
}
);
hints = (
{
place = "{30, 222}";
type = Stem;
},
{
place = "{488, 225}";
type = Stem;
},
{
horizontal = 1;
place = "{0, 198}";
type = Stem;
},
{
horizontal = 1;
place = "{506, 194}";
type = Stem;
}
);
layerId = "C94DCDBE-E93C-4FE0-915D-AD8FEA32188B";
paths = (
{
closed = 1;
nodes = (
"30 700.035 LINE",
"30 0 LINE",
"345 0 LINE SMOOTH",
"571 0 OFFCURVE",
"713 152.264 OFFCURVE",
"713 351.988 CURVE SMOOTH",
"713 553.697 OFFCURVE",
"571 700.035 OFFCURVE",
"345 700.035 CURVE SMOOTH"
);
},
{
closed = 1;
nodes = (
"252 197.685 LINE",
"252 506.29 LINE",
"325 506.29 LINE SMOOTH",
"423 506.29 OFFCURVE",
"488 452.577 OFFCURVE",
"488 351.988 CURVE SMOOTH",
"488 251.398 OFFCURVE",
"423 197.685 OFFCURVE",
"325 197.685 CURVE SMOOTH"
);
}
);
width = 728;
},
{
anchors = (
{
name = top;
position = "{385, 701}";
}
);
hints = (
{
place = "{85, 114}";
type = Stem;
},
{
place = "{584, 117}";
type = Stem;
},
{
horizontal = 1;
place = "{0, 93}";
type = Stem;
},
{
horizontal = 1;
place = "{607, 93}";
type = Stem;
}
);
layerId = "B277CF55-BF18-48AA-9059-7C346BD7E968";
paths = (
{
closed = 1;
nodes = (
"85 700.328 LINE",
"85 0 LINE",
"332 0 LINE SMOOTH",
"555 0 OFFCURVE",
"701 131.815 OFFCURVE",
"701 347.146 CURVE SMOOTH",
"701 563.487 OFFCURVE",
"555 700.328 OFFCURVE",
"332 700.328 CURVE SMOOTH"
);
},
{
closed = 1;
nodes = (
"199 93.334 LINE",
"199 607.328 LINE",
"332 607.328 LINE SMOOTH",
"496 607.328 OFFCURVE",
"584 507.496 OFFCURVE",
"584 347.146 CURVE SMOOTH",
"584 187.801 OFFCURVE",
"496 92.588 OFFCURVE",
"332 93 CURVE SMOOTH"
);
}
);
width = 743;
},
{
anchors = (
{
name = top;
position = "{370, 679}";
}
);
hints = (
{
place = "{105, 20}";
type = Stem;
},
{
place = "{662, 20}";
type = Stem;
},
{
horizontal = 1;
place = "{0, 21}";
target = up;
type = BottomGhost;
},
{
horizontal = 1;
place = "{700, -20}";
target = down;
type = TopGhost;
}
);
layerId = "DC8E81A1-AADA-409F-9952-6B611BF6633C";
paths = (
{
closed = 1;
nodes = (
"105 700.038 LINE",
"105 0.051 LINE",
"310 0.051 LINE",
"555 0.051 OFFCURVE",
"682 129.31 OFFCURVE",
"682 350.045 CURVE",
"682 570.779 OFFCURVE",
"555 700.038 OFFCURVE",
"310 700.038 CURVE"
);
},
{
closed = 1;
nodes = (
"125 17.949 LINE",
"125 682.141 LINE",
"310 682.141 LINE",
"546 682.141 OFFCURVE",
"662 554.871 OFFCURVE",
"662 350.045 CURVE",
"662 145.219 OFFCURVE",
"546 17.949 OFFCURVE",
"310 17.949 CURVE"
);
}
);
width = 734;
}
);
unicode = 0044;
},
{
glyphname = Eth;
leftMetricsKey = "=D-20";
rightMetricsKey = D;
layers = (
{
hints = (
{
horizontal = 1;
place = "{0, 21}";
target = up;
type = BottomGhost;
},
{
horizontal = 1;
place = "{700, -20}";
target = down;
type = TopGhost;
}
);
layerId = "DDF9CB4A-5BD9-4FF0-B193-4B15C8A4E20E";
paths = (
{
closed = 1;
nodes = (
"151.856 341.096 LINE",
"519.856 341.096 LINE",
"523.416 358.993 LINE",
"155.416 358.993 LINE"
);
},
{
closed = 1;
nodes = (
"338.261 700.038 LINE",
"199.01 0.051 LINE",
"384.01 0.051 LINE SMOOTH",
"629.01 0.051 OFFCURVE",
"781.724 129.31 OFFCURVE",
"825.636 350.045 CURVE SMOOTH",
"869.547 570.779 OFFCURVE",
"768.261 700.038 OFFCURVE",
"523.261 700.038 CURVE SMOOTH"
);
},
{
closed = 1;
nodes = (
"222.571 17.949 LINE",
"354.701 682.141 LINE",
"519.701 682.141 LINE SMOOTH",
"755.701 682.141 OFFCURVE",
"846.383 554.871 OFFCURVE",
"805.636 350.045 CURVE SMOOTH",
"764.889 145.219 OFFCURVE",
"623.571 17.949 OFFCURVE",
"387.571 17.949 CURVE SMOOTH"
);
}
);
width = 809;
},
{
hints = (
{
horizontal = 1;
place = "{0, 87}";
type = Stem;
},
{
horizontal = 1;
place = "{295, 105}";
type = Stem;
},
{
horizontal = 1;
place = "{608, 92}";
type = Stem;
}
);
layerId = "1561AD04-BD37-418E-8B6B-BE98B6024D19";
paths = (
{
closed = 1;
nodes = (
"123.697 295.107 LINE",
"493.697 295.107 LINE",
"514.598 400.193 LINE",
"144.598 400.193 LINE"
);
},
{
closed = 1;
nodes = (
"281.295 700.328 LINE",
"142 0 LINE",
"370 0 LINE SMOOTH",
"593 0 OFFCURVE",
"764.218 131.815 OFFCURVE",
"807.047 347.146 CURVE SMOOTH",
"850.078 563.487 OFFCURVE",
"732.295 700.328 OFFCURVE",
"509.295 700.328 CURVE SMOOTH"
);
},
{
closed = 1;
nodes = (
"274.362 87.291 LINE",
"377.998 608.336 LINE",
"490.998 608.336 LINE SMOOTH",
"653.998 608.336 OFFCURVE",
"721.941 507.495 OFFCURVE",
"690.047 347.146 CURVE SMOOTH",
"658.355 187.805 OFFCURVE",
"550.2 86.475 OFFCURVE",
"387.296 86.957 CURVE SMOOTH"
);
}
);
width = 780;
},
{
hints = (
{
horizontal = 1;
place = "{0, 198}";
type = Stem;
},
{
horizontal = 1;
place = "{264, 176}";
type = Stem;
},
{
horizontal = 1;
place = "{506, 194}";
type = Stem;
}
);
layerId = "42D00F0D-4BAE-4BEF-B7B4-E50550C9319F";
paths = (
{
closed = 1;
nodes = (
"63.506 263.98 LINE",
"465.506 263.98 LINE",
"500.515 439.995 LINE",
"98.515 439.995 LINE"
);
},
{
closed = 1;
nodes = (
"200.237 700.035 LINE",
"61 0 LINE",
"356 0 LINE SMOOTH",
"582 0 OFFCURVE",
"754.285 152.264 OFFCURVE",
"794.01 351.987 CURVE SMOOTH",
"834.13 553.697 OFFCURVE",
"721.237 700.035 OFFCURVE",
"495.237 700.035 CURVE SMOOTH"
);
},
{
closed = 1;
nodes = (
"322.32 197.685 LINE",
"383.701 506.29 LINE",
"436.701 506.29 LINE SMOOTH",
"534.701 506.29 OFFCURVE",
"589.018 452.577 OFFCURVE",
"569.01 351.987 CURVE SMOOTH",
"549.003 251.398 OFFCURVE",
"473.32 197.685 OFFCURVE",
"375.32 197.685 CURVE SMOOTH"
);
}
);
width = 738;
},
{
hints = (
{
place = "{60, 222}";
type = Stem;
},
{
place = "{498, 225}";
type = Stem;
},
{
horizontal = 1;
place = "{0, 198}";
type = Stem;
},
{
horizontal = 1;
place = "{264, 176}";
type = Stem;
},
{
horizontal = 1;
place = "{506, 194}";
type = Stem;
}
);
layerId = "C94DCDBE-E93C-4FE0-915D-AD8FEA32188B";
paths = (
{
closed = 1;
nodes = (
"10 263.98 LINE",
"412 263.98 LINE",
"412 439.995 LINE",
"10 439.995 LINE"
);
},
{
closed = 1;
nodes = (
"60 700.035 LINE",
"60 0 LINE",
"355 0 LINE SMOOTH",
"581 0 OFFCURVE",
"723 152.264 OFFCURVE",
"723 351.987 CURVE SMOOTH",
"723 553.697 OFFCURVE",
"581 700.035 OFFCURVE",
"355 700.035 CURVE SMOOTH"
);
},
{
closed = 1;
nodes = (
"282 197.685 LINE",
"282 506.29 LINE",
"335 506.29 LINE SMOOTH",
"433 506.29 OFFCURVE",
"498 452.577 OFFCURVE",
"498 351.987 CURVE SMOOTH",
"498 251.398 OFFCURVE",
"433 197.685 OFFCURVE",
"335 197.685 CURVE SMOOTH"
);
}
);
width = 738;
},
{
hints = (
{
place = "{142, 115}";
type = Stem;
},
{
place = "{621, 117}";
type = Stem;
},
{
horizontal = 1;
place = "{0, 87}";
type = Stem;
},
{
horizontal = 1;
place = "{295, 105}";
type = Stem;
},
{
horizontal = 1;
place = "{608, 92}";
type = Stem;
}
);
layerId = "B277CF55-BF18-48AA-9059-7C346BD7E968";
paths = (
{
closed = 1;
nodes = (
"65 295.107 LINE",
"435 295.107 LINE",
"435 400.193 LINE",
"65 400.193 LINE"
);
},
{
closed = 1;
nodes = (
"142 700.328 LINE",
"142 0 LINE",
"370 0 LINE SMOOTH",
"593 0 OFFCURVE",
"738 131.815 OFFCURVE",
"738 347.146 CURVE SMOOTH",
"738 563.487 OFFCURVE",
"593 700.328 OFFCURVE",
"370 700.328 CURVE SMOOTH"
);
},
{
closed = 1;
nodes = (
"257 87.291 LINE",
"257 608.336 LINE",
"370 608.336 LINE SMOOTH",
"533 608.336 OFFCURVE",
"621 507.495 OFFCURVE",
"621 347.146 CURVE SMOOTH",
"621 187.805 OFFCURVE",
"533 86.475 OFFCURVE",
"370 86.957 CURVE SMOOTH"
);
}
);
width = 780;
},
{
hints = (
{
place = "{200, 20}";
type = Stem;
},
{
place = "{737, 20}";
type = Stem;
},
{
horizontal = 1;
place = "{0, 21}";
target = up;
type = BottomGhost;
},
{
horizontal = 1;
place = "{700, -20}";
target = down;
type = TopGhost;
}
);
layerId = "DC8E81A1-AADA-409F-9952-6B611BF6633C";
paths = (
{
closed = 1;
nodes = (
"85 341.096 LINE",
"453 341.096 LINE",
"453 358.993 LINE",
"85 358.993 LINE"
);
},
{
closed = 1;
nodes = (
"200 700.038 LINE",
"200 0.051 LINE",
"385 0.051 LINE",
"630 0.051 OFFCURVE",
"757 129.31 OFFCURVE",
"757 350.045 CURVE",
"757 570.779 OFFCURVE",
"630 700.038 OFFCURVE",
"385 700.038 CURVE"
);
},
{
closed = 1;
nodes = (
"220 17.949 LINE",
"220 682.141 LINE",
"385 682.141 LINE",
"621 682.141 OFFCURVE",
"737 554.871 OFFCURVE",
"737 350.045 CURVE",
"737 145.219 OFFCURVE",
"621 17.949 OFFCURVE",
"385 17.949 CURVE"
);
}
);
width = 809;
}
);
unicode = 00D0;
},
{
glyphname = E;
leftMetricsKey = H;
rightMetricsKey = "=H-20";
layers = (
{
anchors = (
{
name = bottom;
position = "{292, 0}";
},
{
name = ogonek;
position = "{488, 0}";
},
{
name = top;
position = "{458, 690}";
}
);
hints = (
{
horizontal = 1;
place = "{700, -20}";
target = down;
type = TopGhost;
},
{
horizontal = 1;
place = "{0, 21}";
target = up;
type = BottomGhost;
}
);
layerId = "DDF9CB4A-5BD9-4FF0-B193-4B15C8A4E20E";
paths = (
{
closed = 1;
nodes = (
"677.261 700.038 LINE",
"243.261 700.038 LINE",
"104.01 0.051 LINE",
"538.01 0.051 LINE",
"541.571 17.949 LINE",
"127.571 17.949 LINE",
"193.845 351.096 LINE",
"517.845 351.096 LINE",
"521.405 368.993 LINE",
"197.405 368.993 LINE",
"259.701 682.141 LINE",
"673.701 682.141 LINE"
);
}
);
width = 623;
},
{
anchors = (
{
name = bottom;
position = "{312, 0}";
},
{
name = ogonek;
position = "{509, 0}";
},
{
name = top;
position = "{461, 701}";
}
);
hints = (
{
horizontal = 1;
place = "{0, 93}";
type = Stem;
},
{
horizontal = 1;
place = "{308, 93}";
type = Stem;
},
{
horizontal = 1;
place = "{607, 93}";
type = Stem;
}
);
layerId = "1561AD04-BD37-418E-8B6B-BE98B6024D19";
paths = (
{
closed = 1;
nodes = (
"698.297 700.336 LINE",
"224.297 700.336 LINE",
"85 0 LINE",
"559 0 LINE",
"577.498 93 LINE",
"217.564 93.334 LINE",
"260.301 308.2 LINE",
"530.301 308.2 LINE",
"548.832 401.367 LINE",
"278.832 401.367 LINE",
"319.799 607.336 LINE",
"679.799 607.336 LINE"
);
}
);
width = 624;
},
{
anchors = (
{
name = bottom;
position = "{303, 1}";
},
{
name = ogonek;
position = "{543, 1}";
},
{
name = top;
position = "{443, 702}";
}
);
hints = (
{
horizontal = 1;
place = "{0, 177}";
type = Stem;
},
{
horizontal = 1;
place = "{270, 177}";
type = Stem;
},
{
horizontal = 1;
place = "{523, 177}";
type = Stem;
}
);
layerId = "42D00F0D-4BAE-4BEF-B7B4-E50550C9319F";
paths = (
{
closed = 1;
nodes = (
"732.237 700.035 LINE",
"170.237 700.035 LINE",
"31 0 LINE",
"593 0 LINE",
"628.205 177 LINE",
"288.205 177 LINE",
"306.672 269.845 LINE",
"536.672 269.845 LINE",
"571.907 446.995 LINE",
"341.907 446.995 LINE",
"357.032 523.035 LINE",
"697.032 523.035 LINE"
);
}
);
width = 602;
},
{
anchors = (
{
name = bottom;
position = "{302, 1}";
},
{
name = ogonek;
position = "{542, 1}";
},
{
name = top;
position = "{302, 702}";
}
);
hints = (
{
place = "{30, 222}";
type = Stem;
},
{
horizontal = 1;
place = "{0, 177}";
type = Stem;
},
{
horizontal = 1;
place = "{270, 177}";
type = Stem;
},
{
horizontal = 1;
place = "{523, 177}";
type = Stem;
}
);
layerId = "C94DCDBE-E93C-4FE0-915D-AD8FEA32188B";
paths = (
{
closed = 1;
nodes = (
"592 700.035 LINE",
"30 700.035 LINE",
"30 0 LINE",
"592 0 LINE",
"592 177 LINE",
"252 177 LINE",
"252 269.845 LINE",
"482 269.845 LINE",
"482 446.995 LINE",
"252 446.995 LINE",
"252 523.035 LINE",
"592 523.035 LINE"
);
}
);
width = 602;
},
{
anchors = (
{
name = bottom;
position = "{312, 0}";
},
{
name = ogonek;
position = "{509, 0}";
},
{
name = top;
position = "{322, 701}";
}
);
hints = (
{
place = "{85, 114}";
type = Stem;
},
{
horizontal = 1;
place = "{0, 93}";
type = Stem;
},
{
horizontal = 1;
place = "{308, 93}";
type = Stem;
},
{
horizontal = 1;
place = "{607, 93}";
type = Stem;
}
);
layerId = "B277CF55-BF18-48AA-9059-7C346BD7E968";
paths = (
{
closed = 1;
nodes = (
"559 700.336 LINE",
"85 700.336 LINE",
"85 0 LINE",
"559 0 LINE",
"559 93 LINE",
"199 93.334 LINE",
"199 308.2 LINE",
"469 308.2 LINE",
"469 401.367 LINE",
"199 401.367 LINE",
"199 607.336 LINE",
"559 607.336 LINE"
);
}
);
width = 624;
},
{
anchors = (
{
name = bottom;
position = "{293, 0}";
},
{
name = ogonek;
position = "{489, 0}";
},
{
name = top;
position = "{322, 690}";
}
);
hints = (
{
place = "{105, 20}";
type = Stem;
},
{
horizontal = 1;
place = "{700, -20}";
target = down;
type = TopGhost;
},
{
horizontal = 1;
place = "{0, 21}";
target = up;
type = BottomGhost;
}
);
layerId = "DC8E81A1-AADA-409F-9952-6B611BF6633C";
paths = (
{
closed = 1;
nodes = (
"539 700.038 LINE",
"105 700.038 LINE",
"105 0.051 LINE",
"539 0.051 LINE",
"539 17.949 LINE",
"125 17.949 LINE",
"125 351.096 LINE",
"449 351.096 LINE",
"449 368.993 LINE",
"125 368.993 LINE",
"125 682.141 LINE",
"539 682.141 LINE"
);
}
);
width = 624;
}
);
unicode = 0045;
},
{
glyphname = F;
leftMetricsKey = H;
rightMetricsKey = "E*0.666";
layers = (
{
hints = (
{
horizontal = 1;
place = "{700, -20}";
target = down;
type = TopGhost;
},
{
horizontal = 1;
place = "{0, 21}";
target = up;
type = BottomGhost;
}
);
layerId = "DDF9CB4A-5BD9-4FF0-B193-4B15C8A4E20E";
paths = (
{
closed = 1;
nodes = (
"105.01 0.051 LINE",
"125.01 0.051 LINE",
"192.85 341.103 LINE",
"506.85 341.103 LINE",
"510.41 359 LINE",
"196.41 359 LINE",
"260.689 682.154 LINE",
"664.689 682.154 LINE",
"668.249 700.052 LINE",
"244.249 700.052 LINE"
);
}
);
width = 585;
},
{
hints = (
{
horizontal = 1;
place = "{607, 93}";
type = Stem;
},
{
horizontal = 1;
place = "{306, 93}";
type = Stem;
},
{
horizontal = 1;
place = "{0, 21}";
target = up;
type = BottomGhost;
}
);
layerId = "1561AD04-BD37-418E-8B6B-BE98B6024D19";
paths = (
{
closed = 1;
nodes = (
"85 0 LINE",
"199 0 LINE",
"259.904 306.186 LINE",
"547.463 306.186 LINE",
"565.962 399.186 LINE",
"278.469 399.52 LINE",
"319.805 607.328 LINE",
"694.805 607.328 LINE",
"713.304 700.328 LINE",
"224.304 700.328 LINE"
);
}
);
width = 617;
},
{
hints = (
{
horizontal = 1;
place = "{263, 167}";
type = Stem;
},
{
horizontal = 1;
place = "{524, 176}";
type = Stem;
},
{
horizontal = 1;
place = "{0, 21}";
target = up;
type = BottomGhost;
}
);
layerId = "42D00F0D-4BAE-4BEF-B7B4-E50550C9319F";
paths = (
{
closed = 1;
nodes = (
"31 0 LINE",
"253 0 LINE",
"305.313 262.995 LINE",
"550.775 262.995 LINE",
"584.023 430.145 LINE",
"338.561 430.145 LINE",
"357.234 524.02 LINE",
"715.234 524.02 LINE",
"750.246 700.035 LINE",
"170.246 700.035 LINE"
);
}
);
width = 617;
},
{
hints = (
{
place = "{30, 222}";
type = Stem;
},
{
horizontal = 1;
place = "{263, 167}";
type = Stem;
},
{
horizontal = 1;
place = "{524, 176}";
type = Stem;
},
{
horizontal = 1;
place = "{0, 21}";
target = up;
type = BottomGhost;
}
);
layerId = "C94DCDBE-E93C-4FE0-915D-AD8FEA32188B";
paths = (
{
closed = 1;
nodes = (
"30 0 LINE",
"252 0 LINE",
"252 262.995 LINE",
"497.462 262.995 LINE",
"497.462 430.145 LINE",
"252 430.145 LINE",
"252 524.02 LINE",
"610 524.02 LINE",
"610 700.035 LINE",
"30 700.035 LINE"
);
}
);
width = 616;
},
{
hints = (
{
place = "{85, 114}";
type = Stem;
},
{
horizontal = 1;
place = "{306, 93}";
type = Stem;
},
{
horizontal = 1;
place = "{607, 93}";
type = Stem;
},
{
horizontal = 1;
place = "{0, 21}";
target = up;
type = BottomGhost;
}
);
layerId = "B277CF55-BF18-48AA-9059-7C346BD7E968";
paths = (
{
closed = 1;
nodes = (
"85 0 LINE",
"199 0 LINE",
"199 306.186 LINE",
"486.559 306.186 LINE",
"486.559 399.186 LINE",
"199 399.52 LINE",
"199 607.328 LINE",
"574 607.328 LINE",
"574 700.328 LINE",
"85 700.328 LINE"
);
}
);
width = 617;
},
{
hints = (
{
place = "{105, 20}";
type = Stem;
},
{
horizontal = 1;
place = "{700, -20}";
target = down;
type = TopGhost;
},
{
horizontal = 1;
place = "{0, 21}";
target = up;
type = BottomGhost;
}
);
layerId = "DC8E81A1-AADA-409F-9952-6B611BF6633C";
paths = (
{
closed = 1;
nodes = (
"105 0.051 LINE",
"125 0.051 LINE",
"125 341.103 LINE",
"439 341.103 LINE",
"439 359 LINE",
"125 359 LINE",
"125 682.154 LINE",
"529 682.154 LINE",
"529 700.052 LINE",
"105 700.052 LINE"
);
}
);
width = 585;
}
);
unicode = 0046;
},
{
glyphname = G;
leftMetricsKey = O;
rightMetricsKey = "O*1.2";
layers = (
{
anchors = (
{
name = bottom;
position = "{403, 0}";
},
{
name = top;
position = "{538, 679}";
}
);
hints = (
{
horizontal = 1;
place = "{706, -20}";
target = down;
type = TopGhost;
},
{
horizontal = 1;
place = "{-8, 21}";
target = up;
type = BottomGhost;
}
);
layerId = "DDF9CB4A-5BD9-4FF0-B193-4B15C8A4E20E";
paths = (
{
closed = 1;
nodes = (
"795.736 508.138 LINE",
"768.532 627.504 OFFCURVE",
"676.948 706.004 OFFCURVE",
"528.448 706.004 CURVE SMOOTH",
"332.448 706.004 OFFCURVE",
"163.174 558.848 OFFCURVE",
"121.438 349.05 CURVE SMOOTH",
"79.702 139.253 OFFCURVE",
"190.428 -7.903 OFFCURVE",
"386.428 -7.903 CURVE SMOOTH",
"546.078 -7.903 OFFCURVE",
"688.002 89.737 OFFCURVE",
"757.721 239.379 CURVE",
"781.02 357.005 LINE",
"459.02 357.005 LINE",
"455.46 339.107 LINE",
"758.46 339.107 LINE",
"739.285 241.716 LINE",
"670.409 95.554 OFFCURVE",
"532.688 9.994 OFFCURVE",
"389.988 9.994 CURVE SMOOTH",
"214.988 9.994 OFFCURVE",
"100.504 138.259 OFFCURVE",
"142.438 349.05 CURVE SMOOTH",
"184.372 559.842 OFFCURVE",
"349.888 688.107 OFFCURVE",
"524.888 688.107 CURVE SMOOTH",
"666.688 688.107 OFFCURVE",
"755.112 609.308 OFFCURVE",
"777.13 501.825 CURVE"
);
}
);
width = 773;
},
{
anchors = (
{
name = bottom;
position = "{392, 0}";
},
{
name = top;
position = "{531, 701}";
}
);
hints = (
{
horizontal = 1;
place = "{-6, 103}";
type = Stem;
},
{
horizontal = 1;
place = "{292, 91}";
type = Stem;
},
{
horizontal = 1;
place = "{604, 104}";
type = Stem;
}
);
layerId = "1561AD04-BD37-418E-8B6B-BE98B6024D19";
paths = (
{
closed = 1;
nodes = (
"813.192 520.684 LINE",
"783.525 641.924 OFFCURVE",
"672.551 708.393 OFFCURVE",
"538.899 708.393 CURVE SMOOTH",
"342.899 708.393 OFFCURVE",
"154.478 560.475 OFFCURVE",
"112.849 351.175 CURVE SMOOTH",
"71.019 140.869 OFFCURVE",
"200.798 -6.043 OFFCURVE",
"396.798 -6.043 CURVE SMOOTH",
"552.851 -6.043 OFFCURVE",
"691.857 89.547 OFFCURVE",
"764.848 215.425 CURVE",
"798.193 383.071 LINE",
"478.193 383.071 LINE",
"460.096 292.085 LINE",
"658.029 291.751 LINE",
"643.829 220.356 LINE",
"594.585 143.737 OFFCURVE",
"515.59 97.029 OFFCURVE",
"417.299 97.029 CURVE SMOOTH",
"279.299 97.029 OFFCURVE",
"199.158 196.872 OFFCURVE",
"229.849 351.175 CURVE SMOOTH",
"260.54 505.479 OFFCURVE",
"380.198 604.314 OFFCURVE",
"518.198 604.314 CURVE SMOOTH",
"599.498 604.314 OFFCURVE",
"677.598 562.5 OFFCURVE",
"700.88 482.147 CURVE"
);
}
);
width = 773;
},
{
anchors = (
{
name = bottom;
position = "{363, 1}";
},
{
name = top;
position = "{503, 702}";
}
);
hints = (
{
horizontal = 1;
place = "{-5, 195}";
type = Stem;
},
{
horizontal = 1;
place = "{249, 156}";
type = Stem;
},
{
horizontal = 1;
place = "{502, 205}";
type = Stem;
}
);
layerId = "42D00F0D-4BAE-4BEF-B7B4-E50550C9319F";
paths = (
{
closed = 1;
nodes = (
"795.222 500.086 LINE",
"784.096 626.895 OFFCURVE",
"684.529 706.93 OFFCURVE",
"514.608 706.93 CURVE SMOOTH",
"292.608 706.93 OFFCURVE",
"127.308 559.616 OFFCURVE",
"85.814 351.003 CURVE SMOOTH",
"44.321 142.389 OFFCURVE",
"152.02 -4.925 OFFCURVE",
"375.02 -4.925 CURVE SMOOTH",
"557.699 -4.925 OFFCURVE",
"678.885 100.84 OFFCURVE",
"744.769 184.86 CURVE",
"788.658 405.52 LINE",
"454.658 405.52 LINE",
"423.567 249.205 LINE",
"573.489 249.205 LINE",
"573.712 250.261 LINE",
"532.889 208.46 OFFCURVE",
"487.385 189.805 OFFCURVE",
"437.752 189.805 CURVE SMOOTH",
"328.752 189.805 OFFCURVE",
"289.44 243.538 OFFCURVE",
"310.814 351.003 CURVE SMOOTH",
"329.07 442.787 OFFCURVE",
"388.917 502.35 OFFCURVE",
"474.917 502.35 CURVE SMOOTH",
"520.391 502.35 OFFCURVE",
"548.939 486.227 OFFCURVE",
"561.033 460.47 CURVE"
);
}
);
width = 725;
},
{
anchors = (
{
name = bottom;
position = "{362, 1}";
},
{
name = top;
position = "{362, 702}";
}
);
hints = (
{
place = "{15, 225}";
type = Stem;
},
{
horizontal = 1;
place = "{-5, 195}";
type = Stem;
},
{
horizontal = 1;
place = "{249, 156}";
type = Stem;
},
{
horizontal = 1;
place = "{502, 205}";
type = Stem;
}
);
layerId = "C94DCDBE-E93C-4FE0-915D-AD8FEA32188B";
paths = (
{
closed = 1;
nodes = (
"694.755 500.086 LINE",
"658.406 626.895 OFFCURVE",
"542.921 706.93 OFFCURVE",
"373 706.93 CURVE SMOOTH",
"151 706.93 OFFCURVE",
"15 559.616 OFFCURVE",
"15 351.003 CURVE SMOOTH",
"15 142.389 OFFCURVE",
"152 -4.925 OFFCURVE",
"375 -4.925 CURVE SMOOTH",
"557.678 -4.925 OFFCURVE",
"657.828 100.84 OFFCURVE",
"707 184.86 CURVE",
"707 405.52 LINE",
"373 405.52 LINE",
"373 249.205 LINE",
"522.922 249.205 LINE",
"522.935 250.261 LINE",
"490.426 208.46 OFFCURVE",
"448.633 189.805 OFFCURVE",
"399 189.805 CURVE SMOOTH",
"290 189.805 OFFCURVE",
"240 243.538 OFFCURVE",
"240 351.003 CURVE SMOOTH",
"240 442.787 OFFCURVE",
"288 502.35 OFFCURVE",
"374 502.35 CURVE SMOOTH",
"419.473 502.35 OFFCURVE",
"451.229 486.227 OFFCURVE",
"468.445 460.47 CURVE"
);
}
);
width = 725;
},
{
anchors = (
{
name = bottom;
position = "{391, 0}";
},
{
name = top;
position = "{391, 701}";
}
);
hints = (
{
place = "{42, 117}";
type = Stem;
},
{
place = "{599, 122}";
type = Stem;
},
{
horizontal = 1;
place = "{-6, 103}";
type = Stem;
},
{
horizontal = 1;
place = "{292, 91}";
type = Stem;
},
{
horizontal = 1;
place = "{604, 104}";
type = Stem;
}
);
layerId = "B277CF55-BF18-48AA-9059-7C346BD7E968";
paths = (
{
closed = 1;
nodes = (
"708.628 520.684 LINE",
"654.846 641.924 OFFCURVE",
"530.651 708.393 OFFCURVE",
"397 708.393 CURVE SMOOTH",
"201 708.393 OFFCURVE",
"42 560.475 OFFCURVE",
"42 351.175 CURVE SMOOTH",
"42 140.869 OFFCURVE",
"201 -6.043 OFFCURVE",
"397 -6.043 CURVE SMOOTH",
"553.053 -6.043 OFFCURVE",
"673.046 89.547 OFFCURVE",
"721 215.425 CURVE",
"721 383.071 LINE",
"401 383.071 LINE",
"401 292.085 LINE",
"599 291.751 LINE",
"599 220.356 LINE",
"564.995 143.737 OFFCURVE",
"495.291 97.029 OFFCURVE",
"397 97.029 CURVE SMOOTH",
"259 97.029 OFFCURVE",
"159 196.872 OFFCURVE",
"159 351.175 CURVE SMOOTH",
"159 505.479 OFFCURVE",
"259 604.314 OFFCURVE",
"397 604.314 CURVE SMOOTH",
"478.3 604.314 OFFCURVE",
"564.716 562.5 OFFCURVE",
"603.981 482.147 CURVE"
);
}
);
width = 772;
},
{
anchors = (
{
name = bottom;
position = "{403, 0}";
},
{
name = top;
position = "{403, 679}";
}
);
hints = (
{
place = "{52, 21}";
type = Stem;
},
{
horizontal = 1;
place = "{706, -20}";
target = down;
type = TopGhost;
},
{
horizontal = 1;
place = "{-8, 21}";
target = up;
type = BottomGhost;
}
);
layerId = "DC8E81A1-AADA-409F-9952-6B611BF6633C";
paths = (
{
closed = 1;
nodes = (
"694.65 508.138 LINE",
"643.7 627.504 OFFCURVE",
"536.5 706.004 OFFCURVE",
"388 706.004 CURVE SMOOTH",
"192 706.004 OFFCURVE",
"52 558.848 OFFCURVE",
"52 349.05 CURVE SMOOTH",
"52 139.253 OFFCURVE",
"192 -7.903 OFFCURVE",
"388 -7.903 CURVE SMOOTH",
"547.65 -7.903 OFFCURVE",
"670.15 89.737 OFFCURVE",
"710.1 239.379 CURVE",
"710 357.005 LINE",
"388 357.005 LINE",
"388 339.107 LINE",
"691 339.107 LINE",
"691.2 241.716 LINE",
"651.4 95.554 OFFCURVE",
"530.7 9.994 OFFCURVE",
"388 9.994 CURVE SMOOTH",
"213 9.994 OFFCURVE",
"73 138.259 OFFCURVE",
"73 349.05 CURVE SMOOTH",
"73 559.842 OFFCURVE",
"213 688.107 OFFCURVE",
"388 688.107 CURVE SMOOTH",
"529.8 688.107 OFFCURVE",
"633.9 609.308 OFFCURVE",
"677.3 501.825 CURVE"
);
}
);
width = 774;
}
);
unicode = 0047;
},
{
glyphname = Gcommaaccent;
leftMetricsKey = G;
rightMetricsKey = G;
layers = (
{
anchors = (
{
name = _bottom;
position = "{394, -8}";
}
);
components = (
{
name = G;
alignment = -1;
}
);
hints = (
{
horizontal = 1;
place = "{-59, -20}";
target = down;
type = TopGhost;
},
{
horizontal = 1;
place = "{-175, 21}";
target = up;
type = BottomGhost;
}
);
layerId = "DDF9CB4A-5BD9-4FF0-B193-4B15C8A4E20E";
paths = (
{
closed = 1;
nodes = (
"365.341 -58.614 LINE",
"357.825 -96.398 LINE",
"388.825 -96.398 LINE",
"387.441 -103.358 LINE SMOOTH",
"380.914 -136.171 OFFCURVE",
"365.761 -157.051 OFFCURVE",
"333.761 -157.051 CURVE",
"330.2 -174.949 LINE",
"366.2 -174.949 OFFCURVE",
"398.167 -160.034 OFFCURVE",
"412.21 -89.438 CURVE SMOOTH",
"413.99 -80.489 OFFCURVE",
"415.561 -67.563 OFFCURVE",
"416.341 -58.614 CURVE"
);
}
);
width = 773;
},
{
anchors = (
{
name = _bottom;
position = "{386, 0}";
}
);
components = (
{
name = G;
alignment = -1;
}
);
hints = (
{
horizontal = 1;
place = "{-143, 96}";
type = Stem;
},
{
horizontal = 1;
place = "{-272, 21}";
target = up;
type = BottomGhost;
}
);
layerId = "1561AD04-BD37-418E-8B6B-BE98B6024D19";
paths = (
{
closed = 1;
nodes = (
"322.651 -47 LINE",
"303.551 -143.022 LINE",
"356.485 -143.356 LINE",
"352.278 -164.507 LINE SMOOTH",
"344.62 -203.003 OFFCURVE",
"325.792 -222.251 OFFCURVE",
"291.792 -222.251 CURVE",
"281.907 -271.942 LINE",
"355.907 -271.942 OFFCURVE",
"403.299 -229.752 OFFCURVE",
"419.884 -146.377 CURVE SMOOTH",
"425.683 -117.224 OFFCURVE",
"427.293 -84.102 OFFCURVE",
"425.713 -47 CURVE"
);
}
);
width = 773;
},
{
anchors = (
{
name = _bottom;
position = "{378, 1}";
}
);
components = (
{
name = G;
alignment = -1;
}
);
hints = (
{
horizontal = 1;
place = "{-341, 79}";
type = Stem;
},
{
horizontal = 1;
place = "{-179, 147}";
type = Stem;
}
);
layerId = "42D00F0D-4BAE-4BEF-B7B4-E50550C9319F";
paths = (
{
closed = 1;
nodes = (
"291.671 -31.82 LINE",
"262.341 -179.27 LINE",
"334.341 -179.27 LINE",
"332.45 -188.777 LINE SMOOTH",
"322.444 -239.077 OFFCURVE",
"298.019 -261.325 OFFCURVE",
"263.019 -261.325 CURVE",
"247.209 -340.81 LINE",
"361.209 -340.81 OFFCURVE",
"428.003 -261.407 OFFCURVE",
"446.956 -166.122 CURVE SMOOTH",
"455.244 -124.455 OFFCURVE",
"456.242 -78.705 OFFCURVE",
"447.339 -31.82 CURVE"
);
}
);
width = 725;
},
{
anchors = (
{
name = _bottom;
position = "{378, 1}";
}
);
components = (
{
name = G;
alignment = -1;
}
);
hints = (
{
place = "{298, 182}";
type = Stem;
},
{
place = "{370, 110}";
type = Stem;
},
{
horizontal = 1;
place = "{-341, 79}";
type = Stem;
},
{
horizontal = 1;
place = "{-179, 147}";
type = Stem;
}
);
layerId = "C94DCDBE-E93C-4FE0-915D-AD8FEA32188B";
paths = (
{
closed = 1;
nodes = (
"298 -31.82 LINE",
"298 -179.27 LINE",
"370 -179.27 LINE",
"370 -188.777 LINE",
"370 -239.077 OFFCURVE",
"350 -261.325 OFFCURVE",
"315 -261.325 CURVE",
"315 -340.81 LINE",
"429 -340.81 OFFCURVE",
"480 -261.407 OFFCURVE",
"480 -166.122 CURVE SMOOTH",
"480 -124.455 OFFCURVE",
"471.898 -78.705 OFFCURVE",
"453.668 -31.82 CURVE"
);
}
);
width = 725;
},
{
anchors = (
{
name = _bottom;
position = "{386, 0}";
}
);
components = (
{
name = G;
alignment = -1;
}
);
hints = (
{
place = "{332, 117}";
type = Stem;
},
{
place = "{336, 113}";
type = Stem;
},
{
place = "{385, 64}";
type = Stem;
},
{
horizontal = 1;
place = "{-143, 96}";
type = Stem;
},
{
horizontal = 1;
place = "{-272, 21}";
target = up;
type = BottomGhost;
}
);
layerId = "B277CF55-BF18-48AA-9059-7C346BD7E968";
paths = (
{
closed = 1;
nodes = (
"332 -47 LINE",
"332 -143.022 LINE",
"385 -143.356 LINE",
"385 -164.507 LINE SMOOTH",
"385 -203.003 OFFCURVE",
"370 -222.251 OFFCURVE",
"336 -222.251 CURVE",
"336 -271.942 LINE",
"410 -271.942 OFFCURVE",
"449 -229.752 OFFCURVE",
"449 -146.377 CURVE SMOOTH",
"449 -117.224 OFFCURVE",
"444.022 -84.102 OFFCURVE",
"435.062 -47 CURVE"
);
}
);
width = 772;
},
{
anchors = (
{
name = _bottom;
position = "{396, -8}";
}
);
components = (
{
name = G;
alignment = -1;
}
);
hints = (
{
place = "{408, 22}";
type = Stem;
},
{
horizontal = 1;
place = "{-59, -20}";
target = down;
type = TopGhost;
},
{
horizontal = 1;
place = "{-175, 21}";
target = up;
type = BottomGhost;
}
);
layerId = "DC8E81A1-AADA-409F-9952-6B611BF6633C";
paths = (
{
closed = 1;
nodes = (
"377 -58.614 LINE",
"377 -96.398 LINE",
"408 -96.398 LINE",
"408 -103.358 LINE SMOOTH",
"408 -136.171 OFFCURVE",
"397 -157.051 OFFCURVE",
"365 -157.051 CURVE",
"365 -174.949 LINE",
"401 -174.949 OFFCURVE",
"430 -160.034 OFFCURVE",
"430 -89.438 CURVE SMOOTH",
"430 -80.489 OFFCURVE",
"429 -67.563 OFFCURVE",
"428 -58.614 CURVE"
);
}
);
width = 774;
}
);
unicode = 0122;
},
{
glyphname = H;
layers = (
{
hints = (
{
horizontal = 1;
place = "{0, 21}";
target = up;
type = BottomGhost;
},
{
horizontal = 1;
place = "{700, -20}";
target = down;
type = TopGhost;
}
);
layerId = "DDF9CB4A-5BD9-4FF0-B193-4B15C8A4E20E";
paths = (
{
closed = 1;
nodes = (
"105.01 0.051 LINE",
"125.01 0.051 LINE",
"264.249 700.052 LINE",
"244.249 700.052 LINE"
);
},
{
closed = 1;
nodes = (
"564.01 0.051 LINE",
"584.01 0.051 LINE",
"723.249 700.052 LINE",
"703.249 700.052 LINE"
);
},
{
closed = 1;
nodes = (
"184.827 351.046 LINE",
"645.827 351.046 LINE",
"649.387 368.944 LINE",
"188.387 368.944 LINE"
);
}
);
width = 689;
},
{
guideLines = (
{
position = "{0, 699.66}";
}
);
hints = (
{
horizontal = 1;
place = "{306, 93}";
type = Stem;
},
{
horizontal = 1;
place = "{0, 21}";
target = up;
type = BottomGhost;
},
{
horizontal = 1;
place = "{700, -20}";
target = down;
type = TopGhost;
}
);
layerId = "1561AD04-BD37-418E-8B6B-BE98B6024D19";
paths = (
{
closed = 1;
nodes = (
"85 0 LINE",
"199 0 LINE",
"338.304 700.328 LINE",
"224.304 700.328 LINE"
);
},
{
closed = 1;
nodes = (
"526 0 LINE",
"640 0 LINE",
"779.304 700.328 LINE",
"665.304 700.328 LINE"
);
},
{
closed = 1;
nodes = (
"239.904 306.186 LINE",
"613.904 306.186 LINE",
"632.403 399.186 LINE",
"258.403 399.186 LINE"
);
}
);
width = 725;
},
{
hints = (
{
horizontal = 1;
place = "{272, 177}";
type = Stem;
},
{
horizontal = 1;
place = "{0, 21}";
target = up;
type = BottomGhost;
},
{
horizontal = 1;
place = "{700, -20}";
target = down;
type = TopGhost;
}
);
layerId = "42D00F0D-4BAE-4BEF-B7B4-E50550C9319F";
paths = (
{
closed = 1;
nodes = (
"30 0 LINE",
"252 0 LINE",
"391.246 700.035 LINE",
"169.246 700.035 LINE"
);
},
{
closed = 1;
nodes = (
"463 0 LINE",
"685 0 LINE",
"824.246 700.035 LINE",
"602.246 700.035 LINE"
);
},
{
closed = 1;
nodes = (
"286.076 271.86 LINE",
"539.076 271.86 LINE",
"574.284 448.86 LINE",
"321.284 448.86 LINE"
);
}
);
width = 715;
},
{
hints = (
{
place = "{30, 222}";
type = Stem;
},
{
place = "{463, 222}";
type = Stem;
},
{
horizontal = 1;
place = "{272, 177}";
type = Stem;
},
{
horizontal = 1;
place = "{0, 21}";
target = up;
type = BottomGhost;
},
{
horizontal = 1;
place = "{700, -20}";
target = down;
type = TopGhost;
}
);
layerId = "C94DCDBE-E93C-4FE0-915D-AD8FEA32188B";
paths = (
{
closed = 1;
nodes = (
"30 0 LINE",
"252 0 LINE",
"252 700.035 LINE",
"30 700.035 LINE"
);
},
{
closed = 1;
nodes = (
"463 0 LINE",
"685 0 LINE",
"685 700.035 LINE",
"463 700.035 LINE"
);
},
{
closed = 1;
nodes = (
"232 271.86 LINE",
"485 271.86 LINE",
"485 448.86 LINE",
"232 448.86 LINE"
);
}
);
width = 715;
},
{
guideLines = (
{
position = "{0, 699.66}";
}
);
hints = (
{
place = "{85, 114}";
type = Stem;
},
{
place = "{526, 114}";
type = Stem;
},
{
horizontal = 1;
place = "{306, 93}";
type = Stem;
},
{
horizontal = 1;
place = "{0, 21}";
target = up;
type = BottomGhost;
},
{
horizontal = 1;
place = "{700, -20}";
target = down;
type = TopGhost;
}
);
layerId = "B277CF55-BF18-48AA-9059-7C346BD7E968";
paths = (
{
closed = 1;
nodes = (
"85 0 LINE",
"199 0 LINE",
"199 700.328 LINE",
"85 700.328 LINE"
);
},
{
closed = 1;
nodes = (
"526 0 LINE",
"640 0 LINE",
"640 700.328 LINE",
"526 700.328 LINE"
);
},
{
closed = 1;
nodes = (
"179 306.186 LINE",
"553 306.186 LINE",
"553 399.186 LINE",
"179 399.186 LINE"
);
}
);
width = 725;
},
{
hints = (
{
place = "{105, 20}";
type = Stem;
},
{
place = "{564, 20}";
type = Stem;
},
{
horizontal = 1;
place = "{0, 21}";
target = up;
type = BottomGhost;
},
{
horizontal = 1;
place = "{700, -20}";
target = down;
type = TopGhost;
}
);
layerId = "DC8E81A1-AADA-409F-9952-6B611BF6633C";
paths = (
{
closed = 1;
nodes = (
"105 0.051 LINE",
"125 0.051 LINE",
"125 700.052 LINE",
"105 700.052 LINE"
);
},
{
closed = 1;
nodes = (
"564 0.051 LINE",
"584 0.051 LINE",
"584 700.052 LINE",
"564 700.052 LINE"
);
},
{
closed = 1;
nodes = (
"115 351.046 LINE",
"576 351.046 LINE",
"576 368.944 LINE",
"115 368.944 LINE"
);
}
);
width = 689;
}
);
unicode = 0048;
},
{
glyphname = I;
leftMetricsKey = H;
rightMetricsKey = H;
layers = (
{
anchors = (
{
name = ogonek;
position = "{125, 0}";
},
{
name = top;
position = "{250, 679}";
}
);
hints = (
{
horizontal = 1;
place = "{0, 21}";
target = up;
type = BottomGhost;
},
{
horizontal = 1;
place = "{700, -20}";
target = down;
type = TopGhost;
}
);
layerId = "DDF9CB4A-5BD9-4FF0-B193-4B15C8A4E20E";
paths = (
{
closed = 1;
nodes = (
"105.01 0.051 LINE",
"125.01 0.051 LINE",
"264.261 700.038 LINE",
"244.261 700.038 LINE"
);
}
);
width = 230;
},
{
anchors = (
{
name = ogonek;
position = "{199, 1}";
},
{
name = top;
position = "{281, 701}";
}
);
hints = (
{
horizontal = 1;
place = "{0, 21}";
target = up;
type = BottomGhost;
},
{
horizontal = 1;
place = "{700, -20}";
target = down;
type = TopGhost;
}
);
layerId = "1561AD04-BD37-418E-8B6B-BE98B6024D19";
paths = (
{
closed = 1;
nodes = (
"85 0 LINE",
"199 0 LINE",
"338.295 700.328 LINE",
"224.295 700.328 LINE"
);
}
);
width = 284;
},
{
anchors = (
{
name = ogonek;
position = "{253, 1}";
},
{
name = top;
position = "{283, 702}";
}
);
hints = (
{
horizontal = 1;
place = "{0, 21}";
target = up;
type = BottomGhost;
},
{
horizontal = 1;
place = "{700, -20}";
target = down;
type = TopGhost;
}
);
layerId = "42D00F0D-4BAE-4BEF-B7B4-E50550C9319F";
paths = (
{
closed = 1;
nodes = (
"31 0 LINE",
"253 0 LINE",
"392.237 700.035 LINE",
"170.237 700.035 LINE"
);
}
);
width = 282;
},
{
anchors = (
{
name = ogonek;
position = "{252, 1}";
},
{
name = top;
position = "{142, 702}";
}
);
hints = (
{
place = "{30, 222}";
type = Stem;
},
{
horizontal = 1;
place = "{0, 21}";
target = up;
type = BottomGhost;
},
{
horizontal = 1;
place = "{700, -20}";
target = down;
type = TopGhost;
}
);
layerId = "C94DCDBE-E93C-4FE0-915D-AD8FEA32188B";
paths = (
{
closed = 1;
nodes = (
"30 0 LINE",
"252 0 LINE",
"252 700.035 LINE",
"30 700.035 LINE"
);
}
);
width = 282;
},
{
anchors = (
{
name = ogonek;
position = "{199, 1}";
},
{
name = top;
position = "{142, 701}";
}
);
hints = (
{
place = "{85, 114}";
type = Stem;
},
{
horizontal = 1;
place = "{0, 21}";
target = up;
type = BottomGhost;
},
{
horizontal = 1;
place = "{700, -20}";
target = down;
type = TopGhost;
}
);
layerId = "B277CF55-BF18-48AA-9059-7C346BD7E968";
paths = (
{
closed = 1;
nodes = (
"85 0 LINE",
"199 0 LINE",
"199 700.328 LINE",
"85 700.328 LINE"
);
}
);
width = 284;
},
{
anchors = (
{
name = ogonek;
position = "{125, 0}";
},
{
name = top;
position = "{115, 679}";
}
);
hints = (
{
place = "{105, 20}";
type = Stem;
},
{
horizontal = 1;
place = "{0, 21}";
target = up;
type = BottomGhost;
},
{
horizontal = 1;
place = "{700, -20}";
target = down;
type = TopGhost;
}
);
layerId = "DC8E81A1-AADA-409F-9952-6B611BF6633C";
paths = (
{
closed = 1;
nodes = (
"105 0.051 LINE",
"125 0.051 LINE",
"125 700.038 LINE",
"105 700.038 LINE"
);
}
);
width = 230;
}
);
unicode = 0049;
},
{
glyphname = J;
leftMetricsKey = "H*0.66";
rightMetricsKey = U;
layers = (
{
hints = (
{
place = "{97, 21}";
type = Stem;
},
{
horizontal = 1;
place = "{-7, 21}";
target = up;
type = BottomGhost;
},
{
horizontal = 1;
place = "{700, -20}";
target = down;
type = TopGhost;
}
);
layerId = "DDF9CB4A-5BD9-4FF0-B193-4B15C8A4E20E";
paths = (
{
closed = 1;
nodes = (
"397.669 154.168 LINE SMOOTH",
"386.197 96.498 OFFCURVE",
"338.186 10.988 OFFCURVE",
"233.186 10.988 CURVE SMOOTH",
"138.801 10.988 OFFCURVE",
"114.779 71.334 OFFCURVE",
"117.712 142.889 CURVE",
"110.402 140.411 OFFCURVE",
"103.393 138.034 OFFCURVE",
"97.023 135.874 CURVE",
"94.59 47.571 OFFCURVE",
"136.729 -6.909 OFFCURVE",
"229.626 -6.909 CURVE SMOOTH",
"330.626 -6.909 OFFCURVE",
"401.252 71.641 OFFCURVE",
"417.669 154.168 CURVE SMOOTH",
"526.261 700.038 LINE",
"506.261 700.038 LINE"
);
}
);
width = 487;
},
{
hints = (
{
horizontal = 1;
place = "{-7, 102}";
type = Stem;
},
{
horizontal = 1;
place = "{700, -20}";
target = down;
type = TopGhost;
}
);
layerId = "1561AD04-BD37-418E-8B6B-BE98B6024D19";
paths = (
{
closed = 1;
nodes = (
"81.427 127.377 LINE",
"91.344 41.765 OFFCURVE",
"149.737 -7.385 OFFCURVE",
"246.531 -7.385 CURVE SMOOTH",
"366.531 -7.385 OFFCURVE",
"472.555 73.191 OFFCURVE",
"497.793 200.099 CURVE SMOOTH",
"597.142 699.67 LINE",
"482.142 699.67 LINE",
"382.793 200.099 LINE SMOOTH",
"371.176 141.681 OFFCURVE",
"327.762 94.343 OFFCURVE",
"266.762 94.343 CURVE SMOOTH",
"216.881 94.343 OFFCURVE",
"193.889 121.955 OFFCURVE",
"188.595 163.963 CURVE"
);
}
);
width = 538;
},
{
hints = (
{
horizontal = 1;
place = "{-6, 197}";
type = Stem;
},
{
horizontal = 1;
place = "{700, -20}";
target = down;
type = TopGhost;
}
);
layerId = "42D00F0D-4BAE-4BEF-B7B4-E50550C9319F";
paths = (
{
closed = 1;
nodes = (
"60.472 205.846 LINE",
"56.338 64.458 OFFCURVE",
"141.97 -5.568 OFFCURVE",
"287.893 -5.568 CURVE SMOOTH",
"443.893 -5.568 OFFCURVE",
"563.544 78.158 OFFCURVE",
"597.435 248.563 CURVE SMOOTH",
"687.16 699.708 LINE",
"466.16 699.708 LINE",
"376.435 248.563 LINE SMOOTH",
"367.424 203.253 OFFCURVE",
"341.073 191.433 OFFCURVE",
"317.073 191.433 CURVE SMOOTH",
"292.775 191.433 OFFCURVE",
"274.889 202.496 OFFCURVE",
"275.108 242.004 CURVE"
);
}
);
width = 576;
},
{
hints = (
{
place = "{327, 221}";
type = Stem;
},
{
horizontal = 1;
place = "{-6, 197}";
type = Stem;
},
{
horizontal = 1;
place = "{700, -20}";
target = down;
type = TopGhost;
}
);
layerId = "C94DCDBE-E93C-4FE0-915D-AD8FEA32188B";
paths = (
{
closed = 1;
nodes = (
"19.533 205.846 LINE",
"43.518 64.458 OFFCURVE",
"143.077 -5.568 OFFCURVE",
"289 -5.568 CURVE SMOOTH",
"445 -5.568 OFFCURVE",
"548 78.158 OFFCURVE",
"548 248.563 CURVE SMOOTH",
"548 699.708 LINE",
"327 699.708 LINE",
"327 248.563 LINE SMOOTH",
"327 203.253 OFFCURVE",
"303 191.433 OFFCURVE",
"279 191.433 CURVE SMOOTH",
"254.702 191.433 OFFCURVE",
"234.616 202.496 OFFCURVE",
"226.977 242.004 CURVE"
);
}
);
width = 576;
},
{
hints = (
{
place = "{343, 115}";
type = Stem;
},
{
horizontal = 1;
place = "{-7, 102}";
type = Stem;
},
{
horizontal = 1;
place = "{700, -20}";
target = down;
type = TopGhost;
}
);
layerId = "B277CF55-BF18-48AA-9059-7C346BD7E968";
paths = (
{
closed = 1;
nodes = (
"56.096 127.377 LINE",
"83.039 41.765 OFFCURVE",
"151.205 -7.385 OFFCURVE",
"248 -7.385 CURVE SMOOTH",
"368 -7.385 OFFCURVE",
"458 73.191 OFFCURVE",
"458 200.099 CURVE SMOOTH",
"458 699.67 LINE",
"343 699.67 LINE",
"343 200.099 LINE SMOOTH",
"343 141.681 OFFCURVE",
"309 94.343 OFFCURVE",
"248 94.343 CURVE SMOOTH",
"198.119 94.343 OFFCURVE",
"169.636 121.955 OFFCURVE",
"155.988 163.963 CURVE"
);
}
);
width = 538;
},
{
hints = (
{
place = "{367, 20}";
type = Stem;
},
{
horizontal = 1;
place = "{-7, 21}";
target = up;
type = BottomGhost;
},
{
horizontal = 1;
place = "{700, -20}";
target = down;
type = TopGhost;
}
);
layerId = "DC8E81A1-AADA-409F-9952-6B611BF6633C";
paths = (
{
closed = 1;
nodes = (
"367 154.168 LINE SMOOTH",
"367 96.498 OFFCURVE",
"336 10.988 OFFCURVE",
"231 10.988 CURVE SMOOTH",
"136.615 10.988 OFFCURVE",
"100.588 71.334 OFFCURVE",
"89.287 142.889 CURVE",
"82.47 140.411 OFFCURVE",
"75.933 138.034 OFFCURVE",
"69.993 135.874 CURVE",
"85.127 47.571 OFFCURVE",
"138.103 -6.909 OFFCURVE",
"231 -6.909 CURVE SMOOTH",
"332 -6.909 OFFCURVE",
"387 71.641 OFFCURVE",
"387 154.168 CURVE SMOOTH",
"387 700.038 LINE",
"367 700.038 LINE"
);
}
);
width = 486;
}
);
unicode = 004A;
},
{
glyphname = K;
leftMetricsKey = H;
rightMetricsKey = "H*0.15";
layers = (
{
anchors = (
{
name = bottom;
position = "{275, 0}";
},
{
name = top;
position = "{410, 679}";
}
);
hints = (
{
horizontal = 1;
place = "{0, 21}";
target = up;
type = BottomGhost;
},
{
horizontal = 1;
place = "{700, -20}";
target = down;
type = TopGhost;
}
);
layerId = "DDF9CB4A-5BD9-4FF0-B193-4B15C8A4E20E";
paths = (
{
closed = 1;
nodes = (
"105.01 0.051 LINE",
"125.01 0.051 LINE",
"264.261 700.038 LINE",
"244.261 700.038 LINE"
);
},
{
closed = 1;
nodes = (
"238.733 360.771 LINE",
"663.261 700.038 LINE",
"636.261 700.038 LINE",
"211.614 359.988 LINE",
"497.01 0.051 LINE",
"524.01 0.051 LINE"
);
},
{
closed = 1;
nodes = (
"184.834 351.039 LINE",
"235.834 351.039 LINE",
"239.394 368.936 LINE",
"188.394 368.936 LINE"
);
}
);
width = 540;
},
{
anchors = (
{
name = bottom;
position = "{327, 0}";
},
{
name = top;
position = "{466, 701}";
}
);
hints = (
{
horizontal = 1;
place = "{0, 21}";
target = up;
type = BottomGhost;
},
{
horizontal = 1;
place = "{700, -20}";
target = down;
type = TopGhost;
}
);
layerId = "1561AD04-BD37-418E-8B6B-BE98B6024D19";
paths = (
{
closed = 1;
nodes = (
"85 0 LINE",
"199 0 LINE",
"338.295 700.328 LINE",
"224.295 700.328 LINE"
);
},
{
closed = 1;
nodes = (
"410.47 356.017 LINE",
"780.806 700.328 LINE",
"638.196 700.328 LINE",
"270.434 353.185 LINE",
"497.901 0 LINE",
"646.522 0 LINE"
);
},
{
closed = 1;
nodes = (
"239.9 306.186 LINE",
"383.9 306.186 LINE",
"402.398 399.186 LINE",
"258.398 399.186 LINE"
);
}
);
width = 659;
},
{
anchors = (
{
name = bottom;
position = "{355, 1}";
},
{
name = top;
position = "{495, 702}";
}
);
hints = (
{
horizontal = 1;
place = "{0, 21}";
target = up;
type = BottomGhost;
},
{
horizontal = 1;
place = "{700, -20}";
target = down;
type = TopGhost;
}
);
layerId = "42D00F0D-4BAE-4BEF-B7B4-E50550C9319F";
paths = (
{
closed = 1;
nodes = (
"31 0 LINE",
"253 0 LINE",
"392.237 700.035 LINE",
"170.237 700.035 LINE"
);
},
{
closed = 1;
nodes = (
"565.558 364.385 LINE",
"877.775 700.035 LINE",
"625.638 700.035 LINE",
"318.089 354.952 LINE",
"489.4 0 LINE",
"754.502 0 LINE"
);
},
{
closed = 1;
nodes = (
"287.073 271.86 LINE",
"480.073 271.86 LINE",
"515.278 448.86 LINE",
"322.278 448.86 LINE"
);
}
);
width = 759;
},
{
anchors = (
{
name = bottom;
position = "{354, 1}";
},
{
name = top;
position = "{354, 702}";
}
);
hints = (
{
place = "{30, 222}";
type = Stem;
},
{
horizontal = 1;
place = "{0, 21}";
target = up;
type = BottomGhost;
},
{
horizontal = 1;
place = "{700, -20}";
target = down;
type = TopGhost;
}
);
layerId = "C94DCDBE-E93C-4FE0-915D-AD8FEA32188B";
paths = (
{
closed = 1;
nodes = (
"30 0 LINE",
"252 0 LINE",
"252 700.035 LINE",
"30 700.035 LINE"
);
},
{
closed = 1;
nodes = (
"492.082 364.385 LINE",
"737.538 700.035 LINE",
"485.401 700.035 LINE",
"246.489 354.952 LINE",
"488.4 0 LINE",
"753.502 0 LINE"
);
},
{
closed = 1;
nodes = (
"232 271.86 LINE",
"425 271.86 LINE",
"425 448.86 LINE",
"232 448.86 LINE"
);
}
);
width = 758;
},
{
anchors = (
{
name = bottom;
position = "{327, 0}";
},
{
name = top;
position = "{327, 701}";
}
);
hints = (
{
place = "{85, 114}";
type = Stem;
},
{
horizontal = 1;
place = "{0, 21}";
target = up;
type = BottomGhost;
},
{
horizontal = 1;
place = "{700, -20}";
target = down;
type = TopGhost;
}
);
layerId = "B277CF55-BF18-48AA-9059-7C346BD7E968";
paths = (
{
closed = 1;
nodes = (
"85 0 LINE",
"199 0 LINE",
"199 700.328 LINE",
"85 700.328 LINE"
);
},
{
closed = 1;
nodes = (
"339.659 356.017 LINE",
"641.511 700.328 LINE",
"498.901 700.328 LINE",
"200.186 353.185 LINE",
"497.901 0 LINE",
"646.522 0 LINE"
);
},
{
closed = 1;
nodes = (
"179 306.186 LINE",
"323 306.186 LINE",
"323 399.186 LINE",
"179 399.186 LINE"
);
}
);
width = 659;
},
{
anchors = (
{
name = bottom;
position = "{275, 0}";
},
{
name = top;
position = "{275, 679}";
}
);
hints = (
{
place = "{105, 20}";
type = Stem;
},
{
horizontal = 1;
place = "{0, 21}";
target = up;
type = BottomGhost;
},
{
horizontal = 1;
place = "{700, -20}";
target = down;
type = TopGhost;
}
);
layerId = "DC8E81A1-AADA-409F-9952-6B611BF6633C";
paths = (
{
closed = 1;
nodes = (
"105 0.051 LINE",
"125 0.051 LINE",
"125 700.038 LINE",
"105 700.038 LINE"
);
},
{
closed = 1;
nodes = (
"166.964 360.771 LINE",
"524 700.038 LINE",
"497 700.038 LINE",
"140 359.988 LINE",
"497 0.051 LINE",
"524 0.051 LINE"
);
},
{
closed = 1;
nodes = (
"115 351.039 LINE",
"166 351.039 LINE",
"166 368.936 LINE",
"115 368.936 LINE"
);
}
);
width = 539;
}
);
unicode = 004B;
},
{
glyphname = Kcommaaccent;
leftMetricsKey = H;
rightMetricsKey = K;
layers = (
{
anchors = (
{
name = _bottom;
position = "{241, 0}";
}
);
components = (
{
name = K;
alignment = -1;
}
);
hints = (
{
horizontal = 1;
place = "{-59, -20}";
target = down;
type = TopGhost;
},
{
horizontal = 1;
place = "{-175, 21}";
target = up;
type = BottomGhost;
}
);
layerId = "DDF9CB4A-5BD9-4FF0-B193-4B15C8A4E20E";
paths = (
{
closed = 1;
nodes = (
"205.341 -58.614 LINE",
"197.825 -96.398 LINE",
"228.825 -96.398 LINE",
"227.441 -103.358 LINE SMOOTH",
"220.914 -136.171 OFFCURVE",
"205.761 -157.051 OFFCURVE",
"173.761 -157.051 CURVE",
"170.2 -174.949 LINE",
"206.2 -174.949 OFFCURVE",
"238.167 -160.034 OFFCURVE",
"252.21 -89.438 CURVE SMOOTH",
"253.99 -80.489 OFFCURVE",
"255.561 -67.563 OFFCURVE",
"256.341 -58.614 CURVE"
);
}
);
width = 540;
},
{
anchors = (
{
name = _bottom;
position = "{317, 0}";
}
);
components = (
{
name = K;
alignment = -1;
}
);
hints = (
{
horizontal = 1;
place = "{-143, 96}";
type = Stem;
},
{
horizontal = 1;
place = "{-272, 21}";
target = up;
type = BottomGhost;
}
);
layerId = "1561AD04-BD37-418E-8B6B-BE98B6024D19";
paths = (
{
closed = 1;
nodes = (
"252.651 -47 LINE",
"233.551 -143.022 LINE",
"286.485 -143.356 LINE",
"282.278 -164.507 LINE SMOOTH",
"274.62 -203.003 OFFCURVE",
"255.792 -222.251 OFFCURVE",
"222.792 -222.251 CURVE",
"212.907 -271.942 LINE",
"286.907 -271.942 OFFCURVE",
"333.299 -229.752 OFFCURVE",
"349.884 -146.377 CURVE SMOOTH",
"355.683 -117.223 OFFCURVE",
"358.292 -84.089 OFFCURVE",
"355.717 -47 CURVE"
);
}
);
width = 659;
},
{
anchors = (
{
name = _bottom;
position = "{399, 1}";
}
);
components = (
{
name = K;
alignment = -1;
}
);
hints = (
{
horizontal = 1;
place = "{-179, 147}";
type = Stem;
},
{
horizontal = 1;
place = "{-341, 21}";
target = up;
type = BottomGhost;
}
);
layerId = "42D00F0D-4BAE-4BEF-B7B4-E50550C9319F";
paths = (
{
closed = 1;
nodes = (
"312.671 -31.82 LINE",
"283.341 -179.27 LINE",
"355.341 -179.27 LINE",
"353.45 -188.777 LINE SMOOTH",
"343.444 -239.077 OFFCURVE",
"318.019 -261.325 OFFCURVE",
"284.019 -261.325 CURVE",
"268.209 -340.81 LINE",
"381.209 -340.81 OFFCURVE",
"448.003 -261.407 OFFCURVE",
"466.956 -166.122 CURVE SMOOTH",
"475.242 -124.466 OFFCURVE",
"477.247 -78.729 OFFCURVE",
"468.339 -31.82 CURVE"
);
}
);
width = 759;
},
{
anchors = (
{
name = _bottom;
position = "{399, 1}";
}
);
components = (
{
name = K;
alignment = -1;
}
);
hints = (
{
place = "{319, 181}";
type = Stem;
},
{
place = "{391, 109}";
type = Stem;
},
{
horizontal = 1;
place = "{-179, 147}";
type = Stem;
},
{
horizontal = 1;
place = "{-341, 21}";
target = up;
type = BottomGhost;
}
);
layerId = "C94DCDBE-E93C-4FE0-915D-AD8FEA32188B";
paths = (
{
closed = 1;
nodes = (
"319 -31.82 LINE",
"319 -179.27 LINE",
"391 -179.27 LINE",
"391 -188.777 LINE",
"391 -239.077 OFFCURVE",
"370 -261.325 OFFCURVE",
"336 -261.325 CURVE",
"336 -340.81 LINE",
"449 -340.81 OFFCURVE",
"500 -261.407 OFFCURVE",
"500 -166.122 CURVE SMOOTH",
"500 -124.466 OFFCURVE",
"492.907 -78.729 OFFCURVE",
"474.668 -31.82 CURVE"
);
}
);
width = 758;
},
{
anchors = (
{
name = _bottom;
position = "{317, 0}";
}
);
components = (
{
name = K;
alignment = -1;
}
);
hints = (
{
place = "{262, 117}";
type = Stem;
},
{
place = "{267, 112}";
type = Stem;
},
{
place = "{315, 64}";
type = Stem;
},
{
horizontal = 1;
place = "{-143, 96}";
type = Stem;
},
{
horizontal = 1;
place = "{-272, 21}";
target = up;
type = BottomGhost;
}
);
layerId = "B277CF55-BF18-48AA-9059-7C346BD7E968";
paths = (
{
closed = 1;
nodes = (
"262 -47 LINE",
"262 -143.022 LINE",
"315 -143.356 LINE",
"315 -164.507 LINE SMOOTH",
"315 -203.003 OFFCURVE",
"300 -222.251 OFFCURVE",
"267 -222.251 CURVE",
"267 -271.942 LINE",
"341 -271.942 OFFCURVE",
"379 -229.752 OFFCURVE",
"379 -146.377 CURVE SMOOTH",
"379 -117.223 OFFCURVE",
"375.019 -84.089 OFFCURVE",
"365.066 -47 CURVE"
);
}
);
width = 659;
},
{
anchors = (
{
name = _bottom;
position = "{241, 0}";
}
);
components = (
{
name = K;
alignment = -1;
}
);
hints = (
{
place = "{248, 22}";
type = Stem;
},
{
horizontal = 1;
place = "{-59, -20}";
target = down;
type = TopGhost;
},
{
horizontal = 1;
place = "{-175, 21}";
target = up;
type = BottomGhost;
}
);
layerId = "DC8E81A1-AADA-409F-9952-6B611BF6633C";
paths = (
{
closed = 1;
nodes = (
"217 -58.614 LINE",
"217 -96.398 LINE",
"248 -96.398 LINE",
"248 -103.358 LINE SMOOTH",
"248 -136.171 OFFCURVE",
"237 -157.051 OFFCURVE",
"205 -157.051 CURVE",
"205 -174.949 LINE",
"241 -174.949 OFFCURVE",
"270 -160.034 OFFCURVE",
"270 -89.438 CURVE SMOOTH",
"270 -80.489 OFFCURVE",
"269 -67.563 OFFCURVE",
"268 -58.614 CURVE"
);
}
);
width = 539;
}
);
unicode = 0136;
},
{
glyphname = L;
leftMetricsKey = H;
rightMetricsKey = "H*0.333";
layers = (
{
anchors = (
{
name = bottom;
position = "{240, 0}";
},
{
name = commaaccent;
position = "{242, 10}";
},
{
name = top;
position = "{357, 679}";
},
{
name = topright;
position = "{530, 679}";
}
);
hints = (
{
horizontal = 1;
place = "{0, 21}";
target = up;
type = BottomGhost;
},
{
horizontal = 1;
place = "{700, -20}";
target = down;
type = TopGhost;
}
);
layerId = "DDF9CB4A-5BD9-4FF0-B193-4B15C8A4E20E";
paths = (
{
closed = 1;
nodes = (
"244.261 700.038 LINE",
"105.01 0.051 LINE",
"475.01 0.051 LINE",
"478.571 17.949 LINE",
"128.571 17.949 LINE",
"264.261 700.038 LINE"
);
}
);
width = 510;
},
{
anchors = (
{
name = bottom;
position = "{258, 0}";
},
{
name = commaaccent;
position = "{260, 10}";
},
{
name = top;
position = "{371, 701}";
},
{
name = topright;
position = "{573, 701}";
}
);
hints = (
{
horizontal = 1;
place = "{0, 92}";
type = Stem;
},
{
horizontal = 1;
place = "{700, -20}";
target = down;
type = TopGhost;
}
);
layerId = "1561AD04-BD37-418E-8B6B-BE98B6024D19";
paths = (
{
closed = 1;
nodes = (
"224.295 700.328 LINE",
"85 0 LINE",
"514 0 LINE",
"532.297 91.993 LINE",
"217.364 92.327 LINE",
"338.295 700.328 LINE"
);
}
);
width = 542;
},
{
anchors = (
{
name = bottom;
position = "{246, 1}";
},
{
name = commaaccent;
position = "{248, 11}";
},
{
name = top;
position = "{352, 702}";
},
{
name = topright;
position = "{587, 702}";
}
);
hints = (
{
horizontal = 1;
place = "{0, 168}";
type = Stem;
},
{
horizontal = 1;
place = "{700, -20}";
target = down;
type = TopGhost;
}
);
layerId = "42D00F0D-4BAE-4BEF-B7B4-E50550C9319F";
paths = (
{
closed = 1;
nodes = (
"170.237 700.035 LINE",
"31 0 LINE",
"547 0 LINE",
"580.442 168.135 LINE",
"286.442 168.135 LINE",
"392.237 700.035 LINE"
);
}
);
width = 556;
},
{
anchors = (
{
name = bottom;
position = "{245, 1}";
},
{
name = commaaccent;
position = "{245, 11}";
},
{
name = top;
position = "{211, 702}";
},
{
name = topright;
position = "{446, 702}";
}
);
hints = (
{
place = "{30, 222}";
type = Stem;
},
{
horizontal = 1;
place = "{0, 168}";
type = Stem;
},
{
horizontal = 1;
place = "{700, -20}";
target = down;
type = TopGhost;
}
);
layerId = "C94DCDBE-E93C-4FE0-915D-AD8FEA32188B";
paths = (
{
closed = 1;
nodes = (
"30 700.035 LINE",
"30 0 LINE",
"546 0 LINE",
"546 168.135 LINE",
"252 168.135 LINE",
"252 700.035 LINE"
);
}
);
width = 555;
},
{
anchors = (
{
name = bottom;
position = "{258, 0}";
},
{
name = commaaccent;
position = "{258, 10}";
},
{
name = top;
position = "{232, 701}";
},
{
name = topright;
position = "{434, 701}";
}
);
hints = (
{
place = "{85, 114}";
type = Stem;
},
{
horizontal = 1;
place = "{0, 92}";
type = Stem;
},
{
horizontal = 1;
place = "{700, -20}";
target = down;
type = TopGhost;
}
);
layerId = "B277CF55-BF18-48AA-9059-7C346BD7E968";
paths = (
{
closed = 1;
nodes = (
"85 700.328 LINE",
"85 0 LINE",
"514 0 LINE",
"514 91.993 LINE",
"199 92.327 LINE",
"199 700.328 LINE"
);
}
);
width = 542;
},
{
anchors = (
{
name = bottom;
position = "{240, 0}";
},
{
name = commaaccent;
position = "{240, 10}";
},
{
name = top;
position = "{222, 679}";
},
{
name = topright;
position = "{395, 679}";
}
);
hints = (
{
place = "{105, 20}";
type = Stem;
},
{
horizontal = 1;
place = "{0, 21}";
target = up;
type = BottomGhost;
},
{
horizontal = 1;
place = "{700, -20}";
target = down;
type = TopGhost;
}
);
layerId = "DC8E81A1-AADA-409F-9952-6B611BF6633C";
paths = (
{
closed = 1;
nodes = (
"105 700.038 LINE",
"105 0.051 LINE",
"475 0.051 LINE",
"475 17.949 LINE",
"125 17.949 LINE",
"125 700.038 LINE"
);
}
);
width = 509;
}
);
unicode = 004C;
},
{
glyphname = Lcaron;
leftMetricsKey = L;
rightMetricsKey = L;
layers = (
{
anchors = (
{
name = _bottom;
position = "{405, 736}";
}
);
components = (
{
name = L;
alignment = -1;
}
);
hints = (
{
horizontal = 1;
place = "{554, 20}";
type = Stem;
},
{
horizontal = 1;
place = "{700, -20}";
target = down;
type = TopGhost;
}
);
layerId = "DDF9CB4A-5BD9-4FF0-B193-4B15C8A4E20E";
paths = (
{
closed = 1;
nodes = (
"371.249 700.052 LINE",
"360.767 647.353 LINE",
"398.767 647.353 LINE",
"393.031 618.518 LINE SMOOTH",
"387.295 589.683 OFFCURVE",
"374.131 573.774 OFFCURVE",
"339.131 573.774 CURVE",
"335.175 553.887 LINE",
"375.175 553.887 OFFCURVE",
"405.142 568.802 OFFCURVE",
"417.602 631.444 CURVE SMOOTH",
"421.162 649.342 OFFCURVE",
"424.513 671.217 OFFCURVE",
"427.249 700.052 CURVE"
);
}
);
width = 510;
},
{
anchors = (
{
name = _bottom;
position = "{500, 746}";
}
);
components = (
{
name = L;
alignment = -1;
}
);
hints = (
{
horizontal = 1;
place = "{603, 96}";
type = Stem;
},
{
horizontal = 1;
place = "{474, 21}";
target = up;
type = BottomGhost;
}
);
layerId = "1561AD04-BD37-418E-8B6B-BE98B6024D19";
paths = (
{
closed = 1;
nodes = (
"436.105 699.328 LINE",
"417.005 603.307 LINE",
"469.939 602.973 LINE",
"465.732 581.822 LINE SMOOTH",
"458.074 543.325 OFFCURVE",
"439.245 524.077 OFFCURVE",
"406.245 524.077 CURVE",
"396.361 474.387 LINE",
"470.361 474.387 OFFCURVE",
"516.753 516.576 OFFCURVE",
"533.338 599.951 CURVE SMOOTH",
"539.137 629.106 OFFCURVE",
"541.746 662.239 OFFCURVE",
"539.171 699.328 CURVE"
);
}
);
width = 542;
},
{
anchors = (
{
name = _bottom;
position = "{595, 733}";
}
);
components = (
{
name = L;
alignment = -1;
}
);
hints = (
{
horizontal = 1;
place = "{555, 145}";
type = Stem;
},
{
horizontal = 1;
place = "{391, 21}";
target = up;
type = BottomGhost;
}
);
layerId = "42D00F0D-4BAE-4BEF-B7B4-E50550C9319F";
paths = (
{
closed = 1;
nodes = (
"508.246 700.035 LINE",
"479.112 553.57 LINE",
"551.376 554.897 LINE",
"549.025 543.077 LINE SMOOTH",
"539.215 493.757 OFFCURVE",
"513.79 471.515 OFFCURVE",
"479.79 471.515 CURVE",
"463.784 391.045 LINE",
"576.784 391.045 OFFCURVE",
"643.577 470.445 OFFCURVE",
"662.727 566.717 CURVE SMOOTH",
"671.014 608.377 OFFCURVE",
"673.018 654.117 OFFCURVE",
"663.91 700.035 CURVE"
);
}
);
width = 560;
},
{
anchors = (
{
name = _bottom;
position = "{449, 733}";
}
);
components = (
{
name = L;
alignment = -1;
}
);
hints = (
{
place = "{369, 181}";
type = Stem;
},
{
place = "{441, 109}";
type = Stem;
},
{
horizontal = 1;
place = "{555, 145}";
type = Stem;
},
{
horizontal = 1;
place = "{391, 21}";
target = up;
type = BottomGhost;
}
);
layerId = "C94DCDBE-E93C-4FE0-915D-AD8FEA32188B";
paths = (
{
closed = 1;
nodes = (
"369 700.035 LINE",
"369 553.57 LINE",
"441 554.897 LINE",
"441 543.077 LINE SMOOTH",
"441 493.757 OFFCURVE",
"420 471.515 OFFCURVE",
"386 471.515 CURVE",
"386 391.045 LINE",
"499 391.045 OFFCURVE",
"550 470.445 OFFCURVE",
"550 566.717 CURVE SMOOTH",
"550 608.377 OFFCURVE",
"542.906 654.117 OFFCURVE",
"524.665 700.035 CURVE"
);
}
);
width = 559;
},
{
anchors = (
{
name = _bottom;
position = "{352, 746}";
}
);
components = (
{
name = L;
alignment = -1;
}
);
hints = (
{
place = "{297, 117}";
type = Stem;
},
{
place = "{302, 112}";
type = Stem;
},
{
place = "{350, 64}";
type = Stem;
},
{
horizontal = 1;
place = "{603, 96}";
type = Stem;
},
{
horizontal = 1;
place = "{474, 21}";
target = up;
type = BottomGhost;
}
);
layerId = "B277CF55-BF18-48AA-9059-7C346BD7E968";
paths = (
{
closed = 1;
nodes = (
"297 699.328 LINE",
"297 603.307 LINE",
"350 602.973 LINE",
"350 581.822 LINE SMOOTH",
"350 543.325 OFFCURVE",
"335 524.077 OFFCURVE",
"302 524.077 CURVE",
"302 474.387 LINE",
"376 474.387 OFFCURVE",
"414 516.576 OFFCURVE",
"414 599.951 CURVE SMOOTH",
"414 629.106 OFFCURVE",
"410.019 662.239 OFFCURVE",
"400.066 699.328 CURVE"
);
}
);
width = 542;
},
{
anchors = (
{
name = _bottom;
position = "{259, 736}";
}
);
components = (
{
name = L;
alignment = -1;
}
);
hints = (
{
place = "{232, 60}";
type = Stem;
},
{
place = "{270, 22}";
type = Stem;
},
{
horizontal = 1;
place = "{554, 20}";
type = Stem;
},
{
horizontal = 1;
place = "{700, -20}";
target = down;
type = TopGhost;
}
);
layerId = "DC8E81A1-AADA-409F-9952-6B611BF6633C";
paths = (
{
closed = 1;
nodes = (
"232 700.052 LINE",
"232 647.353 LINE",
"270 647.353 LINE",
"270 618.518 LINE SMOOTH",
"270 589.683 OFFCURVE",
"260 573.774 OFFCURVE",
"225 573.774 CURVE",
"225 553.887 LINE",
"265 553.887 OFFCURVE",
"292 568.802 OFFCURVE",
"292 631.444 CURVE SMOOTH",
"292 649.342 OFFCURVE",
"291 671.217 OFFCURVE",
"288 700.052 CURVE"
);
}
);
width = 509;
}
);
unicode = 013D;
},
{
glyphname = Lcommaaccent;
leftMetricsKey = L;
rightMetricsKey = L;
layers = (
{
anchors = (
{
name = _commaaccent;
position = "{231, 0}";
}
);
components = (
{
name = L;
alignment = -1;
}
);
hints = (
{
horizontal = 1;
place = "{-59, -20}";
target = down;
type = TopGhost;
},
{
horizontal = 1;
place = "{-175, 21}";
target = up;
type = BottomGhost;
}
);
layerId = "DDF9CB4A-5BD9-4FF0-B193-4B15C8A4E20E";
paths = (
{
closed = 1;
nodes = (
"195.341 -58.614 LINE",
"187.825 -96.398 LINE",
"218.825 -96.398 LINE",
"217.441 -103.358 LINE SMOOTH",
"210.914 -136.171 OFFCURVE",
"195.761 -157.051 OFFCURVE",
"163.761 -157.051 CURVE",
"160.2 -174.949 LINE",
"196.2 -174.949 OFFCURVE",
"228.167 -160.034 OFFCURVE",
"242.21 -89.438 CURVE SMOOTH",
"243.99 -80.489 OFFCURVE",
"245.561 -67.563 OFFCURVE",
"246.341 -58.614 CURVE"
);
}
);
width = 510;
},
{
anchors = (
{
name = _commaaccent;
position = "{248, 0}";
}
);
components = (
{
name = L;
alignment = -1;
}
);
hints = (
{
horizontal = 1;
place = "{-143, 96}";
type = Stem;
},
{
horizontal = 1;
place = "{-272, 21}";
target = up;
type = BottomGhost;
}
);
layerId = "1561AD04-BD37-418E-8B6B-BE98B6024D19";
paths = (
{
closed = 1;
nodes = (
"183.651 -47 LINE",
"164.551 -143.022 LINE",
"217.485 -143.356 LINE",
"213.278 -164.507 LINE SMOOTH",
"205.62 -203.003 OFFCURVE",
"186.792 -222.251 OFFCURVE",
"152.792 -222.251 CURVE",
"142.907 -271.942 LINE",
"217.907 -271.942 OFFCURVE",
"264.299 -229.752 OFFCURVE",
"280.884 -146.377 CURVE SMOOTH",
"286.683 -117.223 OFFCURVE",
"289.292 -84.089 OFFCURVE",
"286.717 -47 CURVE"
);
}
);
width = 542;
},
{
anchors = (
{
name = _commaaccent;
position = "{292, 11}";
}
);
components = (
{
name = L;
alignment = -1;
}
);
hints = (
{
horizontal = 1;
place = "{-341, 79}";
type = Stem;
},
{
horizontal = 1;
place = "{-179, 147}";
type = Stem;
}
);
layerId = "42D00F0D-4BAE-4BEF-B7B4-E50550C9319F";
paths = (
{
closed = 1;
nodes = (
"203.671 -31.82 LINE",
"174.341 -179.27 LINE",
"246.341 -179.27 LINE",
"244.45 -188.777 LINE SMOOTH",
"234.444 -239.077 OFFCURVE",
"210.019 -261.325 OFFCURVE",
"175.019 -261.325 CURVE",
"159.209 -340.81 LINE",
"273.209 -340.81 OFFCURVE",
"340.003 -261.407 OFFCURVE",
"358.956 -166.122 CURVE SMOOTH",
"367.244 -124.455 OFFCURVE",
"368.242 -78.705 OFFCURVE",
"359.339 -31.82 CURVE"
);
}
);
width = 556;
},
{
anchors = (
{
name = _commaaccent;
position = "{290, 11}";
}
);
components = (
{
name = L;
alignment = -1;
}
);
hints = (
{
place = "{210, 182}";
type = Stem;
},
{
place = "{282, 110}";
type = Stem;
},
{
horizontal = 1;
place = "{-341, 79}";
type = Stem;
},
{
horizontal = 1;
place = "{-179, 147}";
type = Stem;
}
);
layerId = "C94DCDBE-E93C-4FE0-915D-AD8FEA32188B";
paths = (
{
closed = 1;
nodes = (
"210 -31.82 LINE",
"210 -179.27 LINE",
"282 -179.27 LINE",
"282 -188.777 LINE",
"282 -239.077 OFFCURVE",
"262 -261.325 OFFCURVE",
"227 -261.325 CURVE",
"227 -340.81 LINE",
"341 -340.81 OFFCURVE",
"392 -261.407 OFFCURVE",
"392 -166.122 CURVE SMOOTH",
"392 -124.455 OFFCURVE",
"383.898 -78.705 OFFCURVE",
"365.668 -31.82 CURVE"
);
}
);
width = 555;
},
{
anchors = (
{
name = _commaaccent;
position = "{248, 0}";
}
);
components = (
{
name = L;
alignment = -1;
}
);
hints = (
{
place = "{193, 117}";
type = Stem;
},
{
place = "{197, 113}";
type = Stem;
},
{
place = "{246, 64}";
type = Stem;
},
{
horizontal = 1;
place = "{-143, 96}";
type = Stem;
},
{
horizontal = 1;
place = "{-272, 21}";
target = up;
type = BottomGhost;
}
);
layerId = "B277CF55-BF18-48AA-9059-7C346BD7E968";
paths = (
{
closed = 1;
nodes = (
"193 -47 LINE",
"193 -143.022 LINE",
"246 -143.356 LINE",
"246 -164.507 LINE SMOOTH",
"246 -203.003 OFFCURVE",
"231 -222.251 OFFCURVE",
"197 -222.251 CURVE",
"197 -271.942 LINE",
"272 -271.942 OFFCURVE",
"310 -229.752 OFFCURVE",
"310 -146.377 CURVE SMOOTH",
"310 -117.223 OFFCURVE",
"306.019 -84.089 OFFCURVE",
"296.066 -47 CURVE"
);
}
);
width = 542;
},
{
anchors = (
{
name = _commaaccent;
position = "{231, 0}";
}
);
components = (
{
name = L;
alignment = -1;
}
);
hints = (
{
place = "{238, 22}";
type = Stem;
},
{
horizontal = 1;
place = "{-59, -20}";
target = down;
type = TopGhost;
},
{
horizontal = 1;
place = "{-175, 21}";
target = up;
type = BottomGhost;
}
);
layerId = "DC8E81A1-AADA-409F-9952-6B611BF6633C";
paths = (
{
closed = 1;
nodes = (
"207 -58.614 LINE",
"207 -96.398 LINE",
"238 -96.398 LINE",
"238 -103.358 LINE SMOOTH",
"238 -136.171 OFFCURVE",
"227 -157.051 OFFCURVE",
"195 -157.051 CURVE",
"195 -174.949 LINE",
"231 -174.949 OFFCURVE",
"260 -160.034 OFFCURVE",
"260 -89.438 CURVE SMOOTH",
"260 -80.489 OFFCURVE",
"259 -67.563 OFFCURVE",
"258 -58.614 CURVE"
);
}
);
width = 509;
}
);
unicode = 013B;
},
{
color = 4;
glyphname = Ldot;
leftMetricsKey = L;
rightMetricsKey = L;
layers = (
{
hints = (
{
horizontal = 1;
place = "{346, 60}";
type = Stem;
},
{
horizontal = 1;
place = "{0, 21}";
target = up;
type = BottomGhost;
},
{
horizontal = 1;
place = "{700, -20}";
target = down;
type = TopGhost;
}
);
layerId = "DDF9CB4A-5BD9-4FF0-B193-4B15C8A4E20E";
paths = (
{
closed = 1;
nodes = (
"395.01 0.051 LINE",
"398.57 17.949 LINE",
"128.57 17.949 LINE",
"264.249 700.052 LINE",
"244.249 700.052 LINE",
"105.01 0.051 LINE"
);
},
{
closed = 1;
nodes = (
"426.839 346.074 OFFCURVE",
"443.607 359.995 OFFCURVE",
"446.772 375.904 CURVE SMOOTH",
"449.936 391.813 OFFCURVE",
"438.705 405.734 OFFCURVE",
"422.705 405.734 CURVE SMOOTH",
"406.705 405.734 OFFCURVE",
"389.936 391.813 OFFCURVE",
"386.772 375.904 CURVE SMOOTH",
"383.607 359.995 OFFCURVE",
"394.839 346.074 OFFCURVE",
"410.839 346.074 CURVE SMOOTH"
);
}
);
width = 429;
},
{
hints = (
{
horizontal = 1;
place = "{0, 92}";
type = Stem;
},
{
horizontal = 1;
place = "{317, 120}";
type = Stem;
},
{
horizontal = 1;
place = "{699, -20}";
target = down;
type = TopGhost;
}
);
layerId = "1561AD04-BD37-418E-8B6B-BE98B6024D19";
paths = (
{
closed = 1;
nodes = (
"433 0 LINE",
"451.299 91.993 LINE",
"216.365 92.327 LINE",
"337.105 699.328 LINE",
"223.105 699.328 LINE",
"84 0 LINE"
);
},
{
closed = 1;
nodes = (
"457.108 317.265 OFFCURVE",
"489.288 343.307 OFFCURVE",
"496.062 377.362 CURVE SMOOTH",
"502.637 410.415 OFFCURVE",
"481.016 437.459 OFFCURVE",
"448.016 437.459 CURVE SMOOTH",
"414.016 437.459 OFFCURVE",
"382.637 410.415 OFFCURVE",
"376.062 377.362 CURVE SMOOTH",
"369.288 343.307 OFFCURVE",
"390.108 317.265 OFFCURVE",
"424.108 317.265 CURVE SMOOTH"
);
}
);
width = 461;
},
{
hints = (
{
horizontal = 1;
place = "{0, 168}";
type = Stem;
},
{
horizontal = 1;
place = "{322, 172}";
type = Stem;
},
{
horizontal = 1;
place = "{700, -20}";
target = down;
type = TopGhost;
}
);
layerId = "42D00F0D-4BAE-4BEF-B7B4-E50550C9319F";
paths = (
{
closed = 1;
nodes = (
"467 0 LINE",
"500.444 168.135 LINE",
"286.444 168.135 LINE",
"392.246 700.035 LINE",
"170.246 700.035 LINE",
"31 0 LINE"
);
},
{
closed = 1;
nodes = (
"509.069 322.095 OFFCURVE",
"553.433 359.118 OFFCURVE",
"562.987 407.148 CURVE SMOOTH",
"572.935 457.16 OFFCURVE",
"543.297 494.17 OFFCURVE",
"493.297 494.17 CURVE SMOOTH",
"445.297 494.17 OFFCURVE",
"400.935 457.16 OFFCURVE",
"390.987 407.148 CURVE SMOOTH",
"381.433 359.118 OFFCURVE",
"411.069 322.095 OFFCURVE",
"459.069 322.095 CURVE SMOOTH"
);
}
);
width = 491;
},
{
hints = (
{
place = "{30, 222}";
type = Stem;
},
{
place = "{309, 172}";
type = Stem;
},
{
horizontal = 1;
place = "{0, 168}";
type = Stem;
},
{
horizontal = 1;
place = "{322, 172}";
type = Stem;
},
{
horizontal = 1;
place = "{700, -20}";
target = down;
type = TopGhost;
}
);
layerId = "C94DCDBE-E93C-4FE0-915D-AD8FEA32188B";
paths = (
{
closed = 1;
nodes = (
"466 0 LINE",
"466 168.135 LINE",
"252 168.135 LINE",
"252 700.035 LINE",
"30 700.035 LINE",
"30 0 LINE"
);
},
{
closed = 1;
nodes = (
"444 322.095 OFFCURVE",
"481 359.118 OFFCURVE",
"481 407.148 CURVE SMOOTH",
"481 457.16 OFFCURVE",
"444 494.17 OFFCURVE",
"394 494.17 CURVE SMOOTH",
"346 494.17 OFFCURVE",
"309 457.16 OFFCURVE",
"309 407.148 CURVE SMOOTH",
"309 359.118 OFFCURVE",
"346 322.095 OFFCURVE",
"394 322.095 CURVE SMOOTH"
);
}
);
width = 490;
},
{
hints = (
{
place = "{85, 114}";
type = Stem;
},
{
place = "{302, 120}";
type = Stem;
},
{
horizontal = 1;
place = "{0, 92}";
type = Stem;
},
{
horizontal = 1;
place = "{317, 120}";
type = Stem;
},
{
horizontal = 1;
place = "{699, -20}";
target = down;
type = TopGhost;
}
);
layerId = "B277CF55-BF18-48AA-9059-7C346BD7E968";
paths = (
{
closed = 1;
nodes = (
"434 0 LINE",
"434 91.993 LINE",
"199 92.327 LINE",
"199 699.328 LINE",
"85 699.328 LINE",
"85 0 LINE"
);
},
{
closed = 1;
nodes = (
"395 317.265 OFFCURVE",
"422 343.307 OFFCURVE",
"422 377.362 CURVE SMOOTH",
"422 410.415 OFFCURVE",
"395 437.459 OFFCURVE",
"362 437.459 CURVE SMOOTH",
"328 437.459 OFFCURVE",
"302 410.415 OFFCURVE",
"302 377.362 CURVE SMOOTH",
"302 343.307 OFFCURVE",
"328 317.265 OFFCURVE",
"362 317.265 CURVE SMOOTH"
);
}
);
width = 462;
},
{
hints = (
{
place = "{105, 20}";
type = Stem;
},
{
place = "{312, 60}";
type = Stem;
},
{
horizontal = 1;
place = "{346, 60}";
type = Stem;
},
{
horizontal = 1;
place = "{0, 21}";
target = up;
type = BottomGhost;
},
{
horizontal = 1;
place = "{700, -20}";
target = down;
type = TopGhost;
}
);
layerId = "DC8E81A1-AADA-409F-9952-6B611BF6633C";
paths = (
{
closed = 1;
nodes = (
"395 0.051 LINE",
"395 17.949 LINE",
"125 17.949 LINE",
"125 700.052 LINE",
"105 700.052 LINE",
"105 0.051 LINE"
);
},
{
closed = 1;
nodes = (
"358 346.074 OFFCURVE",
"372 359.995 OFFCURVE",
"372 375.904 CURVE SMOOTH",
"372 391.813 OFFCURVE",
"358 405.734 OFFCURVE",
"342 405.734 CURVE SMOOTH",
"326 405.734 OFFCURVE",
"312 391.813 OFFCURVE",
"312 375.904 CURVE SMOOTH",
"312 359.995 OFFCURVE",
"326 346.074 OFFCURVE",
"342 346.074 CURVE SMOOTH"
);
}
);
width = 429;
}
);
unicode = 013F;
},
{
glyphname = Lslash;
leftMetricsKey = L;
rightMetricsKey = L;
layers = (
{
hints = (
{
horizontal = 1;
place = "{0, 21}";
target = up;
type = BottomGhost;
},
{
horizontal = 1;
place = "{700, -20}";
target = down;
type = TopGhost;
}
);
layerId = "DDF9CB4A-5BD9-4FF0-B193-4B15C8A4E20E";
paths = (
{
closed = 1;
nodes = (
"166.114 312.268 LINE",
"467.826 441.529 LINE",
"471.781 461.416 LINE",
"170.07 332.154 LINE"
);
},
{
closed = 1;
nodes = (
"338.249 700.052 LINE",
"199.01 0.051 LINE",
"489.01 0.051 LINE",
"492.57 17.949 LINE",
"222.57 17.949 LINE",
"358.249 700.052 LINE"
);
}
);
width = 524;
},
{
hints = (
{
horizontal = 1;
place = "{0, 87}";
type = Stem;
},
{
horizontal = 1;
place = "{699, -20}";
target = down;
type = TopGhost;
}
);
layerId = "1561AD04-BD37-418E-8B6B-BE98B6024D19";
paths = (
{
closed = 1;
nodes = (
"138.488 268.903 LINE",
"440.92 361.565 LINE",
"458.223 448.555 LINE",
"155.591 354.886 LINE"
);
},
{
closed = 1;
nodes = (
"301.105 699.328 LINE",
"162 0 LINE",
"511 0 LINE",
"528.297 86.957 LINE",
"294.363 87.291 LINE",
"416.105 699.328 LINE"
);
}
);
width = 539;
},
{
hints = (
{
horizontal = 1;
place = "{0, 168}";
type = Stem;
},
{
horizontal = 1;
place = "{700, -20}";
target = down;
type = TopGhost;
}
);
layerId = "42D00F0D-4BAE-4BEF-B7B4-E50550C9319F";
paths = (
{
closed = 1;
nodes = (
"78.228 237.433 LINE",
"449.233 332.978 LINE",
"488.145 528.597 LINE",
"117.139 433.052 LINE"
);
},
{
closed = 1;
nodes = (
"225.246 700.035 LINE",
"86 0 LINE",
"522 0 LINE",
"555.444 168.135 LINE",
"341.444 168.135 LINE",
"447.246 700.035 LINE"
);
}
);
width = 532;
},
{
hints = (
{
place = "{85, 222}";
type = Stem;
},
{
horizontal = 1;
place = "{0, 168}";
type = Stem;
},
{
horizontal = 1;
place = "{700, -20}";
target = down;
type = TopGhost;
}
);
layerId = "C94DCDBE-E93C-4FE0-915D-AD8FEA32188B";
paths = (
{
closed = 1;
nodes = (
"30 237.433 LINE",
"382 332.978 LINE",
"382 528.597 LINE",
"30 433.052 LINE"
);
},
{
closed = 1;
nodes = (
"85 700.035 LINE",
"85 0 LINE",
"521 0 LINE",
"521 168.135 LINE",
"307 168.135 LINE",
"307 700.035 LINE"
);
}
);
width = 530;
},
{
hints = (
{
place = "{85, 192}";
type = Stem;
},
{
place = "{162, 115}";
type = Stem;
},
{
place = "{162, 207}";
type = Stem;
},
{
horizontal = 1;
place = "{0, 87}";
type = Stem;
},
{
horizontal = 1;
place = "{699, -20}";
target = down;
type = TopGhost;
}
);
layerId = "B277CF55-BF18-48AA-9059-7C346BD7E968";
paths = (
{
closed = 1;
nodes = (
"85 268.903 LINE",
"369 361.565 LINE",
"369 448.555 LINE",
"85 354.886 LINE"
);
},
{
closed = 1;
nodes = (
"162 699.328 LINE",
"162 0 LINE",
"511 0 LINE",
"511 86.957 LINE",
"277 87.291 LINE",
"277 699.328 LINE"
);
}
);
width = 539;
},
{
hints = (
{
place = "{200, 20}";
type = Stem;
},
{
horizontal = 1;
place = "{0, 21}";
target = up;
type = BottomGhost;
},
{
horizontal = 1;
place = "{700, -20}";
target = down;
type = TopGhost;
}
);
layerId = "DC8E81A1-AADA-409F-9952-6B611BF6633C";
paths = (
{
closed = 1;
nodes = (
"105 312.268 LINE",
"381 441.529 LINE",
"381 461.416 LINE",
"105 332.154 LINE"
);
},
{
closed = 1;
nodes = (
"200 700.052 LINE",
"200 0.051 LINE",
"490 0.051 LINE",
"490 17.949 LINE",
"220 17.949 LINE",
"220 700.052 LINE"
);
}
);
width = 524;
}
);
unicode = 0141;
},
{
glyphname = M;
leftMetricsKey = H;
rightMetricsKey = H;
layers = (
{
guideLines = (
{
angle = 245.87;
position = "{583, 348.06}";
}
);
hints = (
{
horizontal = 1;
place = "{0, 21}";
target = up;
type = BottomGhost;
},
{
horizontal = 1;
place = "{700, -20}";
target = down;
type = TopGhost;
}
);
layerId = "DDF9CB4A-5BD9-4FF0-B193-4B15C8A4E20E";
paths = (
{
closed = 1;
nodes = (
"254.427 650.675 LINE",
"409.01 0.051 LINE",
"429.01 0.051 LINE",
"841.432 650.696 LINE",
"712.01 0.051 LINE",
"732.01 0.051 LINE",
"871.248 700.045 LINE",
"851.248 700.045 LINE",
"424.381 25.894 LINE",
"264.248 700.045 LINE",
"244.248 700.045 LINE",
"105.01 0.051 LINE",
"125.01 0.051 LINE"
);
}
);
width = 837;
},
{
hints = (
{
horizontal = 1;
place = "{700, -20}";
target = down;
type = TopGhost;
},
{
horizontal = 1;
place = "{0, 21}";
target = up;
type = BottomGhost;
}
);
layerId = "1561AD04-BD37-418E-8B6B-BE98B6024D19";
paths = (
{
closed = 1;
nodes = (
"294.357 479.392 LINE",
"411.912 0 LINE",
"491.088 0 LINE",
"798.277 478.99 LINE",
"703 0 LINE",
"817 0 LINE",
"956.304 700.328 LINE",
"834.216 700.328 LINE",
"481.436 150.499 LINE",
"347.392 700.328 LINE",
"224.304 700.328 LINE",
"85 0 LINE",
"199 0 LINE"
);
}
);
width = 902;
},
{
hints = (
{
horizontal = 1;
place = "{700, -20}";
target = down;
type = TopGhost;
},
{
horizontal = 1;
place = "{0, 21}";
target = up;
type = BottomGhost;
}
);
layerId = "42D00F0D-4BAE-4BEF-B7B4-E50550C9319F";
paths = (
{
closed = 1;
nodes = (
"322.41 348.947 LINE",
"362.293 0 LINE",
"551.707 0 LINE",
"730.488 349.338 LINE",
"661 0 LINE",
"882 0 LINE",
"1021.246 700.035 LINE",
"750.565 700.035 LINE",
"515.176 280.53 LINE",
"441.921 700.035 LINE",
"170.246 700.035 LINE",
"31 0 LINE",
"253 0 LINE"
);
}
);
width = 912;
},
{
hints = (
{
place = "{30, 222}";
type = Stem;
},
{
place = "{660, 221}";
type = Stem;
},
{
horizontal = 1;
place = "{700, -20}";
target = down;
type = TopGhost;
},
{
horizontal = 1;
place = "{0, 21}";
target = up;
type = BottomGhost;
}
);
layerId = "C94DCDBE-E93C-4FE0-915D-AD8FEA32188B";
paths = (
{
closed = 1;
nodes = (
"252 348.947 LINE",
"361.293 0 LINE",
"550.707 0 LINE",
"660 349.338 LINE",
"660 0 LINE",
"881 0 LINE",
"881 700.035 LINE",
"610.319 700.035 LINE",
"458.375 280.53 LINE",
"301.675 700.035 LINE",
"30 700.035 LINE",
"30 0 LINE",
"252 0 LINE"
);
}
);
width = 911;
},
{
hints = (
{
place = "{85, 114}";
type = Stem;
},
{
place = "{703, 114}";
type = Stem;
},
{
horizontal = 1;
place = "{700, -20}";
target = down;
type = TopGhost;
},
{
horizontal = 1;
place = "{0, 21}";
target = up;
type = BottomGhost;
}
);
layerId = "B277CF55-BF18-48AA-9059-7C346BD7E968";
paths = (
{
closed = 1;
nodes = (
"199 479.392 LINE",
"411.912 0 LINE",
"491.088 0 LINE",
"703 478.99 LINE",
"703 0 LINE",
"817 0 LINE",
"817 700.328 LINE",
"694.912 700.328 LINE",
"451.5 150.499 LINE",
"208.088 700.328 LINE",
"85 700.328 LINE",
"85 0 LINE",
"199 0 LINE"
);
}
);
width = 902;
},
{
guideLines = (
{
angle = 245.87;
position = "{583, 348.06}";
}
);
hints = (
{
place = "{105, 20}";
type = Stem;
},
{
place = "{712, 20}";
type = Stem;
},
{
horizontal = 1;
place = "{0, 21}";
target = up;
type = BottomGhost;
},
{
horizontal = 1;
place = "{700, -20}";
target = down;
type = TopGhost;
}
);
layerId = "DC8E81A1-AADA-409F-9952-6B611BF6633C";
paths = (
{
closed = 1;
nodes = (
"125 650.675 LINE",
"409 0.051 LINE",
"429 0.051 LINE",
"712 650.696 LINE",
"712 0.051 LINE",
"732 0.051 LINE",
"732 700.045 LINE",
"712 700.045 LINE",
"419.23 25.894 LINE",
"125 700.045 LINE",
"105 700.045 LINE",
"105 0.051 LINE",
"125 0.051 LINE"
);
}
);
width = 837;
}
);
unicode = 004D;
},
{
glyphname = N;
leftMetricsKey = H;
rightMetricsKey = H;
layers = (
{
anchors = (
{
name = bottom;
position = "{344, 0}";
},
{
name = top;
position = "{479, 679}";
}
);
hints = (
{
horizontal = 1;
place = "{699, -20}";
target = down;
type = TopGhost;
},
{
horizontal = 1;
place = "{0, 21}";
target = up;
type = BottomGhost;
}
);
layerId = "DDF9CB4A-5BD9-4FF0-B193-4B15C8A4E20E";
paths = (
{
closed = 1;
nodes = (
"701.064 699.044 LINE",
"569.329 36.84 LINE",
"264.064 699.044 LINE",
"244.064 699.044 LINE",
"105.01 0.051 LINE",
"125.01 0.051 LINE",
"256.943 663.249 LINE",
"562.01 0.051 LINE",
"582.01 0.051 LINE",
"721.064 699.044 LINE"
);
}
);
width = 687;
},
{
anchors = (
{
name = bottom;
position = "{371, 0}";
},
{
name = top;
position = "{510, 701}";
}
);
hints = (
{
horizontal = 1;
place = "{700, -20}";
target = down;
type = TopGhost;
},
{
horizontal = 1;
place = "{0, 21}";
target = up;
type = BottomGhost;
}
);
layerId = "1561AD04-BD37-418E-8B6B-BE98B6024D19";
paths = (
{
closed = 1;
nodes = (
"681.297 700.336 LINE",
"577.556 178.761 LINE",
"338.395 700.336 LINE",
"224.297 700.336 LINE",
"85 0 LINE",
"199 0 LINE",
"302.941 522.582 LINE",
"541.902 0 LINE",
"656 0 LINE",
"795.297 700.336 LINE"
);
}
);
width = 741;
},
{
anchors = (
{
name = bottom;
position = "{370, 1}";
},
{
name = top;
position = "{510, 702}";
}
);
hints = (
{
horizontal = 1;
place = "{700, -20}";
target = down;
type = TopGhost;
},
{
horizontal = 1;
place = "{0, 21}";
target = up;
type = BottomGhost;
}
);
layerId = "42D00F0D-4BAE-4BEF-B7B4-E50550C9319F";
paths = (
{
closed = 1;
nodes = (
"627.237 700.035 LINE",
"556.195 342.86 LINE",
"391.838 700.035 LINE",
"170.237 700.035 LINE",
"31 0 LINE",
"253 0 LINE",
"322.865 351.256 LINE",
"488.4 0 LINE",
"710 0 LINE",
"849.237 700.035 LINE"
);
}
);
width = 739;
},
{
anchors = (
{
name = bottom;
position = "{369, 1}";
},
{
name = top;
position = "{369, 702}";
}
);
hints = (
{
place = "{30, 222}";
type = Stem;
},
{
place = "{487, 222}";
type = Stem;
},
{
horizontal = 1;
place = "{700, -20}";
target = down;
type = TopGhost;
},
{
horizontal = 1;
place = "{0, 21}";
target = up;
type = BottomGhost;
}
);
layerId = "C94DCDBE-E93C-4FE0-915D-AD8FEA32188B";
paths = (
{
closed = 1;
nodes = (
"487 700.035 LINE",
"487 342.86 LINE",
"251.601 700.035 LINE",
"30 700.035 LINE",
"30 0 LINE",
"252 0 LINE",
"252 351.256 LINE",
"487.4 0 LINE",
"709 0 LINE",
"709 700.035 LINE"
);
}
);
width = 739;
},
{
anchors = (
{
name = bottom;
position = "{371, 0}";
},
{
name = top;
position = "{371, 701}";
}
);
hints = (
{
place = "{85, 114}";
type = Stem;
},
{
place = "{542, 114}";
type = Stem;
},
{
horizontal = 1;
place = "{700, -20}";
target = down;
type = TopGhost;
},
{
horizontal = 1;
place = "{0, 21}";
target = up;
type = BottomGhost;
}
);
layerId = "B277CF55-BF18-48AA-9059-7C346BD7E968";
paths = (
{
closed = 1;
nodes = (
"542 700.336 LINE",
"542 178.761 LINE",
"199.098 700.336 LINE",
"85 700.336 LINE",
"85 0 LINE",
"199 0 LINE",
"199 522.582 LINE",
"541.902 0 LINE",
"656 0 LINE",
"656 700.336 LINE"
);
}
);
width = 741;
},
{
anchors = (
{
name = bottom;
position = "{344, 0}";
},
{
name = top;
position = "{344, 679}";
}
);
hints = (
{
place = "{105, 20}";
type = Stem;
},
{
place = "{562, 20}";
type = Stem;
},
{
horizontal = 1;
place = "{699, -20}";
target = down;
type = TopGhost;
},
{
horizontal = 1;
place = "{0, 21}";
target = up;
type = BottomGhost;
}
);
layerId = "DC8E81A1-AADA-409F-9952-6B611BF6633C";
paths = (
{
closed = 1;
nodes = (
"562 699.044 LINE",
"562 36.84 LINE",
"125 699.044 LINE",
"105 699.044 LINE",
"105 0.051 LINE",
"125 0.051 LINE",
"125 663.249 LINE",
"562 0.051 LINE",
"582 0.051 LINE",
"582 699.044 LINE"
);
}
);
width = 687;
}
);
unicode = 004E;
},
{
glyphname = Ncommaaccent;
leftMetricsKey = H;
rightMetricsKey = H;
layers = (
{
anchors = (
{
name = _bottom;
position = "{323, 0}";
}
);
components = (
{
name = N;
alignment = -1;
}
);
hints = (
{
horizontal = 1;
place = "{-59, -20}";
target = down;
type = TopGhost;
},
{
horizontal = 1;
place = "{-175, 21}";
target = up;
type = BottomGhost;
}
);
layerId = "DDF9CB4A-5BD9-4FF0-B193-4B15C8A4E20E";
paths = (
{
closed = 1;
nodes = (
"285.341 -58.614 LINE",
"277.825 -96.398 LINE",
"308.825 -96.398 LINE",
"307.441 -103.358 LINE SMOOTH",
"300.914 -136.171 OFFCURVE",
"285.761 -157.051 OFFCURVE",
"253.761 -157.051 CURVE",
"250.2 -174.949 LINE",
"286.2 -174.949 OFFCURVE",
"318.167 -160.034 OFFCURVE",
"332.21 -89.438 CURVE SMOOTH",
"333.99 -80.489 OFFCURVE",
"335.561 -67.563 OFFCURVE",
"336.341 -58.614 CURVE"
);
}
);
width = 687;
},
{
anchors = (
{
name = _bottom;
position = "{361, 0}";
}
);
components = (
{
name = N;
alignment = -1;
}
);
hints = (
{
horizontal = 1;
place = "{-143, 96}";
type = Stem;
},
{
horizontal = 1;
place = "{-272, 21}";
target = up;
type = BottomGhost;
}
);
layerId = "1561AD04-BD37-418E-8B6B-BE98B6024D19";
paths = (
{
closed = 1;
nodes = (
"296.651 -47 LINE",
"277.551 -143.022 LINE",
"330.485 -143.356 LINE",
"326.278 -164.507 LINE SMOOTH",
"318.62 -203.003 OFFCURVE",
"299.792 -222.251 OFFCURVE",
"266.792 -222.251 CURVE",
"256.907 -271.942 LINE",
"330.907 -271.942 OFFCURVE",
"377.299 -229.752 OFFCURVE",
"393.884 -146.377 CURVE SMOOTH",
"399.683 -117.223 OFFCURVE",
"402.292 -84.089 OFFCURVE",
"399.717 -47 CURVE"
);
}
);
width = 741;
},
{
anchors = (
{
name = _bottom;
position = "{414, 1}";
}
);
components = (
{
name = N;
alignment = -1;
}
);
hints = (
{
horizontal = 1;
place = "{-341, 79}";
type = Stem;
},
{
horizontal = 1;
place = "{-179, 147}";
type = Stem;
}
);
layerId = "42D00F0D-4BAE-4BEF-B7B4-E50550C9319F";
paths = (
{
closed = 1;
nodes = (
"327.671 -31.82 LINE",
"298.341 -179.27 LINE",
"370.341 -179.27 LINE",
"368.45 -188.777 LINE SMOOTH",
"358.444 -239.077 OFFCURVE",
"334.019 -261.325 OFFCURVE",
"299.019 -261.325 CURVE",
"283.209 -340.81 LINE",
"397.209 -340.81 OFFCURVE",
"464.003 -261.407 OFFCURVE",
"482.956 -166.122 CURVE SMOOTH",
"491.244 -124.455 OFFCURVE",
"492.242 -78.705 OFFCURVE",
"483.339 -31.82 CURVE"
);
}
);
width = 739;
},
{
anchors = (
{
name = _bottom;
position = "{414, 1}";
}
);
components = (
{
name = N;
alignment = -1;
}
);
hints = (
{
place = "{334, 182}";
type = Stem;
},
{
place = "{406, 110}";
type = Stem;
},
{
horizontal = 1;
place = "{-341, 79}";
type = Stem;
},
{
horizontal = 1;
place = "{-179, 147}";
type = Stem;
}
);
layerId = "C94DCDBE-E93C-4FE0-915D-AD8FEA32188B";
paths = (
{
closed = 1;
nodes = (
"334 -31.82 LINE",
"334 -179.27 LINE",
"406 -179.27 LINE",
"406 -188.777 LINE",
"406 -239.077 OFFCURVE",
"386 -261.325 OFFCURVE",
"351 -261.325 CURVE",
"351 -340.81 LINE",
"465 -340.81 OFFCURVE",
"516 -261.407 OFFCURVE",
"516 -166.122 CURVE SMOOTH",
"516 -124.455 OFFCURVE",
"507.898 -78.705 OFFCURVE",
"489.668 -31.82 CURVE"
);
}
);
width = 739;
},
{
anchors = (
{
name = _bottom;
position = "{361, 0}";
}
);
components = (
{
name = N;
alignment = -1;
}
);
hints = (
{
place = "{306, 117}";
type = Stem;
},
{
place = "{311, 112}";
type = Stem;
},
{
place = "{359, 64}";
type = Stem;
},
{
horizontal = 1;
place = "{-143, 96}";
type = Stem;
},
{
horizontal = 1;
place = "{-272, 21}";
target = up;
type = BottomGhost;
}
);
layerId = "B277CF55-BF18-48AA-9059-7C346BD7E968";
paths = (
{
closed = 1;
nodes = (
"306 -47 LINE",
"306 -143.022 LINE",
"359 -143.356 LINE",
"359 -164.507 LINE SMOOTH",
"359 -203.003 OFFCURVE",
"344 -222.251 OFFCURVE",
"311 -222.251 CURVE",
"311 -271.942 LINE",
"385 -271.942 OFFCURVE",
"423 -229.752 OFFCURVE",
"423 -146.377 CURVE SMOOTH",
"423 -117.223 OFFCURVE",
"419.019 -84.089 OFFCURVE",
"409.066 -47 CURVE"
);
}
);
width = 741;
},
{
anchors = (
{
name = _bottom;
position = "{323, 0}";
}
);
components = (
{
name = N;
alignment = -1;
}
);
hints = (
{
place = "{328, 22}";
type = Stem;
},
{
horizontal = 1;
place = "{-59, -20}";
target = down;
type = TopGhost;
},
{
horizontal = 1;
place = "{-175, 21}";
target = up;
type = BottomGhost;
}
);
layerId = "DC8E81A1-AADA-409F-9952-6B611BF6633C";
paths = (
{
closed = 1;
nodes = (
"297 -58.614 LINE",
"297 -96.398 LINE",
"328 -96.398 LINE",
"328 -103.358 LINE SMOOTH",
"328 -136.171 OFFCURVE",
"317 -157.051 OFFCURVE",
"285 -157.051 CURVE",
"285 -174.949 LINE",
"321 -174.949 OFFCURVE",
"350 -160.034 OFFCURVE",
"350 -89.438 CURVE SMOOTH",
"350 -80.489 OFFCURVE",
"349 -67.563 OFFCURVE",
"348 -58.614 CURVE"
);
}
);
width = 687;
}
);
unicode = 0145;
},
{
glyphname = O;
leftMetricsKey = "H*0.5";
rightMetricsKey = "H*0.5";
layers = (
{
anchors = (
{
name = top;
position = "{534, 679}";
}
);
hints = (
{
horizontal = 1;
place = "{706, -20}";
target = down;
type = TopGhost;
},
{
horizontal = 1;
place = "{-8, 21}";
target = up;
type = BottomGhost;
}
);
layerId = "DDF9CB4A-5BD9-4FF0-B193-4B15C8A4E20E";
paths = (
{
closed = 1;
nodes = (
"582.428 -7.903 OFFCURVE",
"751.702 139.253 OFFCURVE",
"793.438 349.05 CURVE SMOOTH",
"835.174 558.848 OFFCURVE",
"724.448 706.004 OFFCURVE",
"528.448 706.004 CURVE SMOOTH",
"332.448 706.004 OFFCURVE",
"163.174 558.848 OFFCURVE",
"121.438 349.05 CURVE SMOOTH",
"79.702 139.253 OFFCURVE",
"190.428 -7.903 OFFCURVE",
"386.428 -7.903 CURVE SMOOTH"
);
},
{
closed = 1;
nodes = (
"214.988 9.994 OFFCURVE",
"100.504 138.259 OFFCURVE",
"142.438 349.05 CURVE SMOOTH",
"184.372 559.842 OFFCURVE",
"349.888 688.107 OFFCURVE",
"524.888 688.107 CURVE SMOOTH",
"699.888 688.107 OFFCURVE",
"814.372 559.842 OFFCURVE",
"772.438 349.05 CURVE SMOOTH",
"730.504 138.259 OFFCURVE",
"564.988 9.994 OFFCURVE",
"389.988 9.994 CURVE SMOOTH"
);
}
);
width = 777;
},
{
anchors = (
{
name = top;
position = "{537, 701}";
}
);
hints = (
{
horizontal = 1;
place = "{-7, 99}";
type = Stem;
},
{
horizontal = 1;
place = "{608, 100}";
type = Stem;
}
);
layerId = "1561AD04-BD37-418E-8B6B-BE98B6024D19";
paths = (
{
closed = 1;
nodes = (
"594.598 -7.05 OFFCURVE",
"781.019 140.869 OFFCURVE",
"822.849 351.175 CURVE SMOOTH",
"864.478 560.475 OFFCURVE",
"736.899 708.393 OFFCURVE",
"538.899 708.393 CURVE SMOOTH",
"342.899 708.393 OFFCURVE",
"154.478 560.475 OFFCURVE",
"112.849 351.175 CURVE SMOOTH",
"71.019 140.869 OFFCURVE",
"200.598 -7.05 OFFCURVE",
"396.598 -7.05 CURVE SMOOTH"
);
},
{
closed = 1;
nodes = (
"278.297 91.993 OFFCURVE",
"198.356 192.842 OFFCURVE",
"229.849 351.175 CURVE SMOOTH",
"261.341 509.51 OFFCURVE",
"380.999 608.343 OFFCURVE",
"518.999 608.343 CURVE SMOOTH",
"656.999 608.343 OFFCURVE",
"737.341 509.51 OFFCURVE",
"705.849 351.175 CURVE SMOOTH",
"674.356 192.842 OFFCURVE",
"554.297 91.993 OFFCURVE",
"416.297 91.993 CURVE SMOOTH"
);
}
);
width = 795;
},
{
anchors = (
{
name = top;
position = "{521, 702}";
}
);
hints = (
{
horizontal = 1;
place = "{-7, 207}";
type = Stem;
},
{
horizontal = 1;
place = "{507, 205}";
type = Stem;
}
);
layerId = "42D00F0D-4BAE-4BEF-B7B4-E50550C9319F";
paths = (
{
closed = 1;
nodes = (
"579.629 -6.895 OFFCURVE",
"772.322 142.391 OFFCURVE",
"814.206 352.972 CURVE SMOOTH",
"856.091 563.556 OFFCURVE",
"724.588 711.855 OFFCURVE",
"522.588 711.855 CURVE SMOOTH",
"321.588 711.855 OFFCURVE",
"128.091 563.556 OFFCURVE",
"86.206 352.972 CURVE SMOOTH",
"44.322 142.391 OFFCURVE",
"178.629 -6.895 OFFCURVE",
"379.629 -6.895 CURVE SMOOTH"
);
},
{
closed = 1;
nodes = (
"329.711 199.655 OFFCURVE",
"293.948 261.177 OFFCURVE",
"312.206 352.972 CURVE SMOOTH",
"330.854 446.726 OFFCURVE",
"390.897 507.275 OFFCURVE",
"481.897 507.275 CURVE SMOOTH",
"570.897 507.275 OFFCURVE",
"607.854 446.726 OFFCURVE",
"589.206 352.972 CURVE SMOOTH",
"570.948 261.177 OFFCURVE",
"509.711 199.655 OFFCURVE",
"420.711 199.655 CURVE SMOOTH"
);
}
);
width = 758;
},
{
anchors = (
{
name = top;
position = "{380, 702}";
}
);
hints = (
{
place = "{15, 226}";
type = Stem;
},
{
place = "{518, 225}";
type = Stem;
},
{
horizontal = 1;
place = "{-7, 207}";
type = Stem;
},
{
horizontal = 1;
place = "{507, 205}";
type = Stem;
}
);
layerId = "C94DCDBE-E93C-4FE0-915D-AD8FEA32188B";
paths = (
{
closed = 1;
nodes = (
"580 -6.895 OFFCURVE",
"743 142.391 OFFCURVE",
"743 352.972 CURVE SMOOTH",
"743 563.556 OFFCURVE",
"582 711.855 OFFCURVE",
"380 711.855 CURVE SMOOTH",
"179 711.855 OFFCURVE",
"15 563.556 OFFCURVE",
"15 352.972 CURVE SMOOTH",
"15 142.391 OFFCURVE",
"179 -6.895 OFFCURVE",
"380 -6.895 CURVE SMOOTH"
);
},
{
closed = 1;
nodes = (
"289 199.655 OFFCURVE",
"241 261.177 OFFCURVE",
"241 352.972 CURVE SMOOTH",
"241 446.726 OFFCURVE",
"289 507.275 OFFCURVE",
"380 507.275 CURVE SMOOTH",
"469 507.275 OFFCURVE",
"518 446.726 OFFCURVE",
"518 352.972 CURVE SMOOTH",
"518 261.177 OFFCURVE",
"469 199.655 OFFCURVE",
"380 199.655 CURVE SMOOTH"
);
}
);
width = 758;
},
{
anchors = (
{
name = top;
position = "{397, 701}";
}
);
hints = (
{
place = "{42, 117}";
type = Stem;
},
{
place = "{635, 117}";
type = Stem;
},
{
horizontal = 1;
place = "{-7, 99}";
type = Stem;
},
{
horizontal = 1;
place = "{608, 100}";
type = Stem;
}
);
layerId = "B277CF55-BF18-48AA-9059-7C346BD7E968";
paths = (
{
closed = 1;
nodes = (
"595 -7.05 OFFCURVE",
"752 140.869 OFFCURVE",
"752 351.175 CURVE SMOOTH",
"752 560.475 OFFCURVE",
"595 708.393 OFFCURVE",
"397 708.393 CURVE SMOOTH",
"201 708.393 OFFCURVE",
"42 560.475 OFFCURVE",
"42 351.175 CURVE SMOOTH",
"42 140.869 OFFCURVE",
"201 -7.05 OFFCURVE",
"397 -7.05 CURVE SMOOTH"
);
},
{
closed = 1;
nodes = (
"259 91.993 OFFCURVE",
"159 192.842 OFFCURVE",
"159 351.175 CURVE SMOOTH",
"159 509.51 OFFCURVE",
"259 608.343 OFFCURVE",
"397 608.343 CURVE SMOOTH",
"535 608.343 OFFCURVE",
"635 509.51 OFFCURVE",
"635 351.175 CURVE SMOOTH",
"635 192.842 OFFCURVE",
"535 91.993 OFFCURVE",
"397 91.993 CURVE SMOOTH"
);
}
);
width = 794;
},
{
anchors = (
{
name = top;
position = "{399, 679}";
}
);
hints = (
{
place = "{52, 21}";
type = Stem;
},
{
place = "{703, 21}";
type = Stem;
},
{
horizontal = 1;
place = "{706, -20}";
target = down;
type = TopGhost;
},
{
horizontal = 1;
place = "{-8, 21}";
target = up;
type = BottomGhost;
}
);
layerId = "DC8E81A1-AADA-409F-9952-6B611BF6633C";
paths = (
{
closed = 1;
nodes = (
"584 -7.903 OFFCURVE",
"724 139.253 OFFCURVE",
"724 349.05 CURVE",
"724 558.848 OFFCURVE",
"584 706.004 OFFCURVE",
"388 706.004 CURVE",
"192 706.004 OFFCURVE",
"52 558.848 OFFCURVE",
"52 349.05 CURVE",
"52 139.253 OFFCURVE",
"192 -7.903 OFFCURVE",
"388 -7.903 CURVE"
);
},
{
closed = 1;
nodes = (
"213 9.994 OFFCURVE",
"73 138.259 OFFCURVE",
"73 349.05 CURVE",
"73 559.842 OFFCURVE",
"213 688.107 OFFCURVE",
"388 688.107 CURVE",
"563 688.107 OFFCURVE",
"703 559.842 OFFCURVE",
"703 349.05 CURVE",
"703 138.259 OFFCURVE",
"563 9.994 OFFCURVE",
"388 9.994 CURVE"
);
}
);
width = 776;
}
);
unicode = 004F;
},
{
glyphname = Oslash;
leftMetricsKey = O;
rightMetricsKey = O;
layers = (
{
components = (
{
name = O;
alignment = -1;
}
);
layerId = "DDF9CB4A-5BD9-4FF0-B193-4B15C8A4E20E";
paths = (
{
closed = 1;
nodes = (
"168.534 102.788 LINE",
"191.136 100.788 LINE",
"753.39 602.19 LINE",
"731.987 605.19 LINE"
);
}
);
width = 777;
},
{
components = (
{
name = O;
alignment = -1;
}
);
layerId = "1561AD04-BD37-418E-8B6B-BE98B6024D19";
paths = (
{
closed = 1;
nodes = (
"177.04 156.466 LINE",
"258.372 109.274 LINE",
"761.399 561.102 LINE",
"680.066 608.294 LINE"
);
}
);
width = 795;
},
{
components = (
{
name = O;
alignment = -1;
}
);
layerId = "42D00F0D-4BAE-4BEF-B7B4-E50550C9319F";
paths = (
{
closed = 1;
nodes = (
"190.218 180.051 LINE",
"295.448 120.393 LINE",
"762.89 543.983 LINE",
"658.666 603.644 LINE"
);
}
);
width = 758;
},
{
components = (
{
name = O;
alignment = -1;
}
);
layerId = "C94DCDBE-E93C-4FE0-915D-AD8FEA32188B";
paths = (
{
closed = 1;
nodes = (
"154.403 180.051 LINE",
"271.5 120.393 LINE",
"654.685 543.983 LINE",
"538.593 603.644 LINE"
);
}
);
width = 758;
},
{
components = (
{
name = O;
alignment = -1;
}
);
layerId = "B277CF55-BF18-48AA-9059-7C346BD7E968";
paths = (
{
closed = 1;
nodes = (
"145.917 156.466 LINE",
"236.636 109.274 LINE",
"649.788 561.102 LINE",
"559.069 608.294 LINE"
);
}
);
width = 794;
},
{
components = (
{
name = O;
alignment = -1;
}
);
layerId = "DC8E81A1-AADA-409F-9952-6B611BF6633C";
paths = (
{
closed = 1;
nodes = (
"148.088 102.788 LINE",
"171.088 100.788 LINE",
"633.607 602.19 LINE",
"611.607 605.19 LINE"
);
}
);
width = 776;
}
);
unicode = 00D8;
},
{
glyphname = OE;
leftMetricsKey = O;
rightMetricsKey = E;
layers = (
{
hints = (
{
horizontal = 1;
place = "{706, -20}";
target = down;
type = TopGhost;
},
{
horizontal = 1;
place = "{-8, 21}";
target = up;
type = BottomGhost;
}
);
layerId = "DDF9CB4A-5BD9-4FF0-B193-4B15C8A4E20E";
paths = (
{
closed = 1;
nodes = (
"1184.689 682.155 LINE",
"1188.249 700.052 LINE",
"844.249 700.052 LINE",
"796.386 459.427 LINE",
"794.053 608.575 OFFCURVE",
"684.436 706.018 OFFCURVE",
"529.436 706.018 CURVE SMOOTH",
"333.436 706.018 OFFCURVE",
"164.164 558.859 OFFCURVE",
"122.432 349.057 CURVE SMOOTH",
"80.7 139.256 OFFCURVE",
"191.428 -7.903 OFFCURVE",
"387.428 -7.903 CURVE SMOOTH",
"542.428 -7.903 OFFCURVE",
"690.811 89.54 OFFCURVE",
"752.478 238.688 CURVE",
"705.01 0.051 LINE",
"1049.01 0.051 LINE",
"1052.57 17.949 LINE",
"728.57 17.949 LINE",
"792.85 341.103 LINE",
"1086.85 341.103 LINE",
"1090.41 359 LINE",
"796.41 359 LINE",
"860.689 682.154 LINE"
);
},
{
closed = 1;
nodes = (
"185.362 559.853 OFFCURVE",
"350.876 688.121 OFFCURVE",
"525.876 688.121 CURVE SMOOTH",
"700.876 688.121 OFFCURVE",
"815.362 559.853 OFFCURVE",
"773.432 349.057 CURVE SMOOTH",
"731.502 138.262 OFFCURVE",
"565.988 9.994 OFFCURVE",
"390.988 9.994 CURVE SMOOTH",
"215.988 9.994 OFFCURVE",
"101.502 138.262 OFFCURVE",
"143.432 349.057 CURVE SMOOTH"
);
}
);
width = 1133;
},
{
hints = (
{
horizontal = 1;
place = "{-7, 103}";
type = Stem;
},
{
horizontal = 1;
place = "{0, 89}";
type = Stem;
},
{
horizontal = 1;
place = "{309, 88}";
type = Stem;
},
{
horizontal = 1;
place = "{604, 104}";
type = Stem;
},
{
horizontal = 1;
place = "{611, 89}";
type = Stem;
}
);
layerId = "1561AD04-BD37-418E-8B6B-BE98B6024D19";
paths = (
{
closed = 1;
nodes = (
"1141.606 611.357 LINE",
"1159.304 700.328 LINE",
"775.304 700.328 LINE",
"753.895 592.698 LINE",
"711.169 669.157 OFFCURVE",
"633.973 708.393 OFFCURVE",
"528.908 708.393 CURVE SMOOTH",
"343.908 708.393 OFFCURVE",
"154.886 562.487 OFFCURVE",
"112.853 351.175 CURVE SMOOTH",
"71.02 140.869 OFFCURVE",
"200.598 -7.05 OFFCURVE",
"387.598 -7.05 CURVE SMOOTH",
"491.662 -7.05 OFFCURVE",
"584.469 32.185 OFFCURVE",
"658.171 111.464 CURVE",
"636 0 LINE",
"1020 0 LINE",
"1037.697 88.971 LINE",
"767.764 89.306 LINE",
"811.505 309.207 LINE",
"1051.505 309.207 LINE",
"1069.002 397.171 LINE",
"829.069 397.506 LINE",
"871.606 611.357 LINE"
);
},
{
closed = 1;
nodes = (
"260.546 505.479 OFFCURVE",
"380.206 604.314 OFFCURVE",
"518.206 604.314 CURVE SMOOTH",
"656.206 604.314 OFFCURVE",
"736.546 505.479 OFFCURVE",
"705.853 351.175 CURVE SMOOTH",
"675.16 196.873 OFFCURVE",
"555.1 96.022 OFFCURVE",
"417.1 96.022 CURVE SMOOTH",
"279.1 96.022 OFFCURVE",
"199.16 196.873 OFFCURVE",
"229.853 351.175 CURVE SMOOTH"
);
}
);
width = 1085;
},
{
hints = (
{
horizontal = 1;
place = "{-12, 205}";
type = Stem;
},
{
horizontal = 1;
place = "{0, 177}";
type = Stem;
},
{
horizontal = 1;
place = "{273, 167}";
type = Stem;
},
{
horizontal = 1;
place = "{507, 205}";
type = Stem;
},
{
horizontal = 1;
place = "{524, 176}";
type = Stem;
}
);
layerId = "42D00F0D-4BAE-4BEF-B7B4-E50550C9319F";
paths = (
{
closed = 1;
nodes = (
"1105.234 524.02 LINE",
"1140.246 700.035 LINE",
"668.246 700.035 LINE",
"660.943 663.325 LINE",
"623.157 695.184 OFFCURVE",
"563.649 711.855 OFFCURVE",
"505.597 711.855 CURVE SMOOTH",
"303.597 711.855 OFFCURVE",
"127.855 562.335 OFFCURVE",
"85.623 350.018 CURVE SMOOTH",
"43.39 137.7 OFFCURVE",
"159.649 -11.819 OFFCURVE",
"361.649 -11.819 CURVE",
"420.28 -8.912 OFFCURVE",
"485.803 4.888 OFFCURVE",
"536.302 36.711 CURVE",
"529 0 LINE",
"1001 0 LINE",
"1036.207 177 LINE",
"786.207 177 LINE",
"805.272 272.845 LINE",
"1025.272 272.845 LINE",
"1058.52 439.995 LINE",
"838.52 439.995 LINE",
"855.234 524.02 LINE"
);
},
{
closed = 1;
nodes = (
"330.629 445.567 OFFCURVE",
"390.903 507.275 OFFCURVE",
"481.903 507.275 CURVE SMOOTH",
"570.903 507.275 OFFCURVE",
"607.629 445.567 OFFCURVE",
"588.623 350.017 CURVE SMOOTH",
"569.617 254.468 OFFCURVE",
"508.342 192.76 OFFCURVE",
"419.342 192.76 CURVE SMOOTH",
"328.342 192.76 OFFCURVE",
"292.617 254.468 OFFCURVE",
"311.623 350.017 CURVE SMOOTH"
);
}
);
width = 1010;
},
{
hints = (
{
place = "{15, 226}";
type = Stem;
},
{
place = "{518, 232}";
type = Stem;
},
{
horizontal = 1;
place = "{-12, 205}";
type = Stem;
},
{
horizontal = 1;
place = "{0, 177}";
type = Stem;
},
{
horizontal = 1;
place = "{273, 167}";
type = Stem;
},
{
horizontal = 1;
place = "{507, 205}";
type = Stem;
},
{
horizontal = 1;
place = "{524, 176}";
type = Stem;
}
);
layerId = "C94DCDBE-E93C-4FE0-915D-AD8FEA32188B";
paths = (
{
closed = 1;
nodes = (
"1000 524.02 LINE",
"1000 700.035 LINE",
"528 700.035 LINE",
"528 663.325 LINE",
"483.877 695.184 OFFCURVE",
"421.052 711.855 OFFCURVE",
"363 711.855 CURVE SMOOTH",
"161 711.855 OFFCURVE",
"15 562.335 OFFCURVE",
"15 350.018 CURVE SMOOTH",
"15 137.7 OFFCURVE",
"161 -11.819 OFFCURVE",
"363 -11.819 CURVE",
"421.053 -8.912 OFFCURVE",
"483.831 4.888 OFFCURVE",
"528 36.711 CURVE",
"528 0 LINE",
"1000 0 LINE",
"1000 177 LINE",
"750 177 LINE",
"750 272.845 LINE",
"970 272.845 LINE",
"970 439.995 LINE",
"750 439.995 LINE",
"750 524.02 LINE"
);
},
{
closed = 1;
nodes = (
"241 445.567 OFFCURVE",
"289 507.275 OFFCURVE",
"380 507.275 CURVE SMOOTH",
"469 507.275 OFFCURVE",
"518 445.567 OFFCURVE",
"518 350.017 CURVE SMOOTH",
"518 254.468 OFFCURVE",
"469 192.76 OFFCURVE",
"380 192.76 CURVE SMOOTH",
"289 192.76 OFFCURVE",
"241 254.468 OFFCURVE",
"241 350.017 CURVE SMOOTH"
);
}
);
width = 1010;
},
{
hints = (
{
place = "{42, 117}";
type = Stem;
},
{
place = "{635, 114}";
type = Stem;
},
{
horizontal = 1;
place = "{-7, 103}";
type = Stem;
},
{
horizontal = 1;
place = "{0, 89}";
type = Stem;
},
{
horizontal = 1;
place = "{309, 88}";
type = Stem;
},
{
horizontal = 1;
place = "{604, 104}";
type = Stem;
},
{
horizontal = 1;
place = "{611, 89}";
type = Stem;
}
);
layerId = "B277CF55-BF18-48AA-9059-7C346BD7E968";
paths = (
{
closed = 1;
nodes = (
"1019 611.357 LINE",
"1019 700.328 LINE",
"635 700.328 LINE",
"635 592.698 LINE",
"577.066 669.157 OFFCURVE",
"492.065 708.393 OFFCURVE",
"387 708.393 CURVE SMOOTH",
"202 708.393 OFFCURVE",
"42 562.487 OFFCURVE",
"42 351.175 CURVE SMOOTH",
"42 140.869 OFFCURVE",
"201 -7.05 OFFCURVE",
"388 -7.05 CURVE SMOOTH",
"492.065 -7.05 OFFCURVE",
"577.067 32.185 OFFCURVE",
"635 111.464 CURVE",
"635 0 LINE",
"1019 0 LINE",
"1019 88.971 LINE",
"749 89.306 LINE",
"749 309.207 LINE",
"989 309.207 LINE",
"989 397.171 LINE",
"749 397.506 LINE",
"749 611.357 LINE"
);
},
{
closed = 1;
nodes = (
"159 505.479 OFFCURVE",
"259 604.314 OFFCURVE",
"397 604.314 CURVE SMOOTH",
"535 604.314 OFFCURVE",
"635 505.479 OFFCURVE",
"635 351.175 CURVE SMOOTH",
"635 196.873 OFFCURVE",
"535 96.022 OFFCURVE",
"397 96.022 CURVE SMOOTH",
"259 96.022 OFFCURVE",
"159 196.873 OFFCURVE",
"159 351.175 CURVE SMOOTH"
);
}
);
width = 1084;
},
{
hints = (
{
place = "{52, 21}";
type = Stem;
},
{
place = "{703, 21}";
type = Stem;
},
{
horizontal = 1;
place = "{706, -20}";
target = down;
type = TopGhost;
},
{
horizontal = 1;
place = "{-8, 21}";
target = up;
type = BottomGhost;
}
);
layerId = "DC8E81A1-AADA-409F-9952-6B611BF6633C";
paths = (
{
closed = 1;
nodes = (
"1048 682.155 LINE",
"1048 700.052 LINE",
"704 700.052 LINE",
"704 459.427 LINE",
"672 608.575 OFFCURVE",
"543 706.018 OFFCURVE",
"388 706.018 CURVE",
"192 706.018 OFFCURVE",
"52 558.859 OFFCURVE",
"52 349.057 CURVE",
"52 139.256 OFFCURVE",
"192 -7.903 OFFCURVE",
"388 -7.903 CURVE",
"543 -7.903 OFFCURVE",
"672 89.54 OFFCURVE",
"704 238.688 CURVE",
"704 0.051 LINE",
"1048 0.051 LINE",
"1048 17.949 LINE",
"724 17.949 LINE",
"724 341.103 LINE",
"1018 341.103 LINE",
"1018 359 LINE",
"724 359 LINE",
"724 682.154 LINE"
);
},
{
closed = 1;
nodes = (
"73 559.853 OFFCURVE",
"213 688.121 OFFCURVE",
"388 688.121 CURVE",
"563 688.121 OFFCURVE",
"703 559.853 OFFCURVE",
"703 349.057 CURVE",
"703 138.262 OFFCURVE",
"563 9.994 OFFCURVE",
"388 9.994 CURVE",
"213 9.994 OFFCURVE",
"73 138.262 OFFCURVE",
"73 349.057 CURVE"
);
}
);
width = 1133;
}
);
unicode = 0152;
},
{
glyphname = P;
leftMetricsKey = H;
rightMetricsKey = "H*0.5";
layers = (
{
hints = (
{
horizontal = 1;
place = "{315, 21}";
type = Stem;
},
{
horizontal = 1;
place = "{679, 21}";
type = Stem;
},
{
horizontal = 1;
place = "{0, 21}";
target = up;
type = BottomGhost;
}
);
layerId = "DDF9CB4A-5BD9-4FF0-B193-4B15C8A4E20E";
paths = (
{
closed = 1;
nodes = (
"191.861 336.131 LINE",
"260.096 679.172 LINE",
"448.096 679.172 LINE SMOOTH",
"599.096 679.172 OFFCURVE",
"640.277 614.728 OFFCURVE",
"618.781 506.66 CURVE SMOOTH",
"598.271 403.55 OFFCURVE",
"530.861 336.131 OFFCURVE",
"379.861 336.131 CURVE SMOOTH"
);
},
{
closed = 1;
nodes = (
"661.855 622.659 OFFCURVE",
"612.249 700.052 OFFCURVE",
"452.249 700.052 CURVE SMOOTH",
"244.249 700.052 LINE",
"105.01 0.051 LINE",
"125.01 0.051 LINE",
"187.707 315.251 LINE",
"375.707 315.251 LINE SMOOTH",
"521.707 315.251 OFFCURVE",
"613.144 377.772 OFFCURVE",
"638.781 506.66 CURVE SMOOTH"
);
}
);
width = 590;
},
{
hints = (
{
horizontal = 1;
place = "{607, 93}";
type = Stem;
},
{
horizontal = 1;
place = "{284, 93}";
type = Stem;
},
{
horizontal = 1;
place = "{0, 21}";
target = up;
type = BottomGhost;
}
);
layerId = "1561AD04-BD37-418E-8B6B-BE98B6024D19";
paths = (
{
closed = 1;
nodes = (
"273.062 377.362 LINE",
"318.805 607.328 LINE",
"474.805 607.328 LINE SMOOTH",
"563.805 607.328 OFFCURVE",
"595.167 563.903 OFFCURVE",
"580.701 491.174 CURVE SMOOTH",
"566.635 420.464 OFFCURVE",
"517.957 376.837 OFFCURVE",
"428.995 377.028 CURVE SMOOTH"
);
},
{
closed = 1;
nodes = (
"720.303 604.804 OFFCURVE",
"658.304 700.328 OFFCURVE",
"493.304 700.328 CURVE SMOOTH",
"223.304 700.328 LINE",
"84 0 LINE",
"198 0 LINE",
"254.497 284.028 LINE",
"410.497 284.028 LINE SMOOTH",
"591.497 284.028 OFFCURVE",
"677.899 391.623 OFFCURVE",
"697.701 491.174 CURVE SMOOTH"
);
}
);
width = 643;
},
{
hints = (
{
horizontal = 1;
place = "{222, 175}";
type = Stem;
},
{
horizontal = 1;
place = "{522, 178}";
type = Stem;
},
{
horizontal = 1;
place = "{0, 21}";
target = up;
type = BottomGhost;
}
);
layerId = "42D00F0D-4BAE-4BEF-B7B4-E50550C9319F";
paths = (
{
closed = 1;
nodes = (
"330.9 396.655 LINE",
"355.842 522.05 LINE",
"448.842 522.05 LINE SMOOTH",
"498.842 522.05 OFFCURVE",
"512.854 496.971 OFFCURVE",
"505.371 459.352 CURVE SMOOTH",
"497.888 421.734 OFFCURVE",
"473.9 396.655 OFFCURVE",
"423.9 396.655 CURVE SMOOTH"
);
},
{
closed = 1;
nodes = (
"758.52 600.87 OFFCURVE",
"687.246 700.035 OFFCURVE",
"509.246 700.035 CURVE SMOOTH",
"169.246 700.035 LINE",
"30 0 LINE",
"252 0 LINE",
"296.084 221.625 LINE",
"414.084 221.625 LINE SMOOTH",
"592.084 221.625 OFFCURVE",
"704.56 329.593 OFFCURVE",
"730.371 459.353 CURVE SMOOTH"
);
}
);
width = 654;
},
{
hints = (
{
place = "{30, 222}";
type = Stem;
},
{
place = "{414, 225}";
type = Stem;
},
{
horizontal = 1;
place = "{222, 175}";
type = Stem;
},
{
horizontal = 1;
place = "{522, 178}";
type = Stem;
},
{
horizontal = 1;
place = "{0, 21}";
target = up;
type = BottomGhost;
}
);
layerId = "C94DCDBE-E93C-4FE0-915D-AD8FEA32188B";
paths = (
{
closed = 1;
nodes = (
"252 396.655 LINE",
"252 522.05 LINE",
"345 522.05 LINE SMOOTH",
"395 522.05 OFFCURVE",
"414 496.971 OFFCURVE",
"414 459.352 CURVE SMOOTH",
"414 421.734 OFFCURVE",
"395 396.655 OFFCURVE",
"345 396.655 CURVE SMOOTH"
);
},
{
closed = 1;
nodes = (
"639 600.87 OFFCURVE",
"548 700.035 OFFCURVE",
"370 700.035 CURVE SMOOTH",
"30 700.035 LINE",
"30 0 LINE",
"252 0 LINE",
"252 221.625 LINE",
"370 221.625 LINE SMOOTH",
"548 221.625 OFFCURVE",
"639 329.593 OFFCURVE",
"639 459.353 CURVE SMOOTH"
);
}
);
width = 654;
},
{
hints = (
{
place = "{85, 114}";
type = Stem;
},
{
place = "{484, 117}";
type = Stem;
},
{
horizontal = 1;
place = "{284, 93}";
type = Stem;
},
{
horizontal = 1;
place = "{607, 93}";
type = Stem;
},
{
horizontal = 1;
place = "{0, 21}";
target = up;
type = BottomGhost;
}
);
layerId = "B277CF55-BF18-48AA-9059-7C346BD7E968";
paths = (
{
closed = 1;
nodes = (
"199 377.362 LINE",
"199 607.328 LINE",
"355 607.328 LINE SMOOTH",
"444 607.328 OFFCURVE",
"484 563.903 OFFCURVE",
"484 491.174 CURVE SMOOTH",
"484 420.464 OFFCURVE",
"444 376.837 OFFCURVE",
"355 377.028 CURVE SMOOTH"
);
},
{
closed = 1;
nodes = (
"601 604.804 OFFCURVE",
"520 700.328 OFFCURVE",
"355 700.328 CURVE SMOOTH",
"85 700.328 LINE",
"85 0 LINE",
"199 0 LINE",
"199 284.028 LINE",
"355 284.028 LINE SMOOTH",
"536 284.028 OFFCURVE",
"601 391.623 OFFCURVE",
"601 491.174 CURVE SMOOTH"
);
}
);
width = 643;
},
{
hints = (
{
place = "{105, 20}";
type = Stem;
},
{
place = "{518, 20}";
type = Stem;
},
{
horizontal = 1;
place = "{315, 21}";
type = Stem;
},
{
horizontal = 1;
place = "{679, 21}";
type = Stem;
},
{
horizontal = 1;
place = "{0, 21}";
target = up;
type = BottomGhost;
}
);
layerId = "DC8E81A1-AADA-409F-9952-6B611BF6633C";
paths = (
{
closed = 1;
nodes = (
"125 336.131 LINE",
"125 679.172 LINE",
"313 679.172 LINE",
"464 679.172 OFFCURVE",
"518 614.728 OFFCURVE",
"518 506.66 CURVE SMOOTH",
"518 403.55 OFFCURVE",
"464 336.131 OFFCURVE",
"313 336.131 CURVE SMOOTH"
);
},
{
closed = 1;
nodes = (
"538 622.659 OFFCURVE",
"473 700.052 OFFCURVE",
"313 700.052 CURVE SMOOTH",
"105 700.052 LINE",
"105 0.051 LINE",
"125 0.051 LINE",
"125 315.251 LINE",
"313 315.251 LINE SMOOTH",
"459 315.251 OFFCURVE",
"538 377.772 OFFCURVE",
"538 506.66 CURVE SMOOTH"
);
}
);
width = 590;
}
);
unicode = 0050;
},
{
glyphname = Thorn;
leftMetricsKey = H;
rightMetricsKey = D;
layers = (
{
hints = (
{
horizontal = 1;
place = "{158, 21}";
type = Stem;
},
{
horizontal = 1;
place = "{523, 20}";
type = Stem;
},
{
horizontal = 1;
place = "{700, -20}";
target = down;
type = TopGhost;
},
{
horizontal = 1;
place = "{0, 21}";
target = up;
type = BottomGhost;
}
);
layerId = "DDF9CB4A-5BD9-4FF0-B193-4B15C8A4E20E";
paths = (
{
closed = 1;
nodes = (
"159.611 179.029 LINE",
"228.044 523.063 LINE",
"386.044 523.063 LINE SMOOTH",
"537.044 523.063 OFFCURVE",
"578.188 458.433 OFFCURVE",
"556.63 350.052 CURVE SMOOTH",
"536.06 246.642 OFFCURVE",
"468.611 179.029 OFFCURVE",
"317.611 179.029 CURVE SMOOTH"
);
},
{
closed = 1;
nodes = (
"599.77 466.387 OFFCURVE",
"550 542.95 OFFCURVE",
"390 542.95 CURVE SMOOTH",
"232 542.95 LINE",
"263.25 700.052 LINE",
"243.25 700.052 LINE",
"104.011 0.051 LINE",
"124.011 0.051 LINE",
"155.458 158.148 LINE",
"313.458 158.148 LINE SMOOTH",
"459.458 158.148 OFFCURVE",
"550.918 220.79 OFFCURVE",
"576.63 350.052 CURVE SMOOTH"
);
}
);
width = 560;
},
{
hints = (
{
horizontal = 1;
place = "{469, 231}";
type = Stem;
},
{
horizontal = 1;
place = "{469, 89}";
type = Stem;
},
{
horizontal = 1;
place = "{143, 89}";
type = Stem;
},
{
horizontal = 1;
place = "{0, 21}";
target = up;
type = BottomGhost;
}
);
layerId = "1561AD04-BD37-418E-8B6B-BE98B6024D19";
paths = (
{
closed = 1;
nodes = (
"244.213 232.327 LINE",
"291.36 469.351 LINE",
"417.36 469.351 LINE SMOOTH",
"506.36 469.351 OFFCURVE",
"536.917 421.879 OFFCURVE",
"522.653 350.168 CURVE SMOOTH",
"508.589 279.464 OFFCURVE",
"459.099 231.756 OFFCURVE",
"370.146 231.992 CURVE SMOOTH"
);
},
{
closed = 1;
nodes = (
"662.255 463.798 OFFCURVE",
"600.09 558.489 OFFCURVE",
"435.09 558.489 CURVE SMOOTH",
"308.09 558.489 LINE",
"336.305 700.336 LINE",
"223.305 700.336 LINE",
"84 0 LINE",
"198 0 LINE",
"226.449 143.021 LINE",
"352.449 143.021 LINE SMOOTH",
"533.449 143.021 OFFCURVE",
"619.851 250.617 OFFCURVE",
"639.653 350.168 CURVE SMOOTH"
);
}
);
width = 613;
},
{
hints = (
{
horizontal = 1;
place = "{123, 165}";
type = Stem;
},
{
horizontal = 1;
place = "{414, 168}";
type = Stem;
},
{
horizontal = 1;
place = "{0, 21}";
target = up;
type = BottomGhost;
},
{
horizontal = 1;
place = "{700, -20}";
target = down;
type = TopGhost;
}
);
layerId = "42D00F0D-4BAE-4BEF-B7B4-E50550C9319F";
paths = (
{
closed = 1;
nodes = (
"310.347 288.305 LINE",
"335.29 413.7 LINE",
"398.29 413.7 LINE SMOOTH",
"448.29 413.7 OFFCURVE",
"462.302 388.621 OFFCURVE",
"454.819 351.003 CURVE SMOOTH",
"447.336 313.384 OFFCURVE",
"423.347 288.305 OFFCURVE",
"373.347 288.305 CURVE SMOOTH"
);
},
{
closed = 1;
nodes = (
"706.816 486.728 OFFCURVE",
"634.734 581.835 OFFCURVE",
"456.734 581.835 CURVE SMOOTH",
"366.734 581.835 LINE",
"390.246 700.035 LINE",
"170.246 700.035 LINE",
"31 0 LINE",
"253 0 LINE",
"277.491 123.125 LINE",
"365.491 123.125 LINE SMOOTH",
"543.491 123.125 OFFCURVE",
"654.987 226.165 OFFCURVE",
"679.819 351.003 CURVE SMOOTH"
);
}
);
width = 624;
},
{
hints = (
{
place = "{30, 220}";
type = Stem;
},
{
place = "{384, 225}";
type = Stem;
},
{
place = "{30, 222}";
type = Stem;
},
{
horizontal = 1;
place = "{123, 165}";
type = Stem;
},
{
horizontal = 1;
place = "{414, 168}";
type = Stem;
},
{
horizontal = 1;
place = "{0, 21}";
target = up;
type = BottomGhost;
},
{
horizontal = 1;
place = "{700, -20}";
target = down;
type = TopGhost;
}
);
layerId = "C94DCDBE-E93C-4FE0-915D-AD8FEA32188B";
paths = (
{
closed = 1;
nodes = (
"252 288.305 LINE",
"252 413.7 LINE",
"315 413.7 LINE SMOOTH",
"365 413.7 OFFCURVE",
"384 388.621 OFFCURVE",
"384 351.003 CURVE SMOOTH",
"384 313.384 OFFCURVE",
"365 288.305 OFFCURVE",
"315 288.305 CURVE SMOOTH"
);
},
{
closed = 1;
nodes = (
"609 486.728 OFFCURVE",
"518 581.835 OFFCURVE",
"340 581.835 CURVE SMOOTH",
"250 581.835 LINE",
"250 700.035 LINE",
"30 700.035 LINE",
"30 0 LINE",
"252 0 LINE",
"252 123.125 LINE",
"340 123.125 LINE SMOOTH",
"518 123.125 OFFCURVE",
"609 226.165 OFFCURVE",
"609 351.003 CURVE SMOOTH"
);
}
);
width = 624;
},
{
hints = (
{
place = "{85, 114}";
type = Stem;
},
{
place = "{454, 117}";
type = Stem;
},
{
horizontal = 1;
place = "{143, 89}";
type = Stem;
},
{
horizontal = 1;
place = "{469, 89}";
type = Stem;
},
{
horizontal = 1;
place = "{0, 21}";
target = up;
type = BottomGhost;
},
{
horizontal = 1;
place = "{700, -20}";
target = down;
type = TopGhost;
}
);
layerId = "B277CF55-BF18-48AA-9059-7C346BD7E968";
paths = (
{
closed = 1;
nodes = (
"199 232.327 LINE",
"199 469.351 LINE",
"325 469.351 LINE SMOOTH",
"414 469.351 OFFCURVE",
"454 421.879 OFFCURVE",
"454 350.168 CURVE SMOOTH",
"454 279.464 OFFCURVE",
"414 231.756 OFFCURVE",
"325 231.992 CURVE SMOOTH"
);
},
{
closed = 1;
nodes = (
"571 463.798 OFFCURVE",
"490 558.489 OFFCURVE",
"325 558.489 CURVE SMOOTH",
"198 558.489 LINE",
"198 700.336 LINE",
"85 700.336 LINE",
"85 0 LINE",
"199 0 LINE",
"199 143.021 LINE",
"325 143.021 LINE SMOOTH",
"506 143.021 OFFCURVE",
"571 250.617 OFFCURVE",
"571 350.168 CURVE SMOOTH"
);
}
);
width = 613;
},
{
hints = (
{
place = "{105, 20}";
type = Stem;
},
{
place = "{488, 20}";
type = Stem;
},
{
horizontal = 1;
place = "{158, 21}";
type = Stem;
},
{
horizontal = 1;
place = "{523, 20}";
type = Stem;
},
{
horizontal = 1;
place = "{700, -20}";
target = down;
type = TopGhost;
},
{
horizontal = 1;
place = "{0, 21}";
target = up;
type = BottomGhost;
}
);
layerId = "DC8E81A1-AADA-409F-9952-6B611BF6633C";
paths = (
{
closed = 1;
nodes = (
"125 179.029 LINE",
"125 523.063 LINE",
"283 523.063 LINE SMOOTH",
"434 523.063 OFFCURVE",
"488 458.433 OFFCURVE",
"488 350.052 CURVE SMOOTH",
"488 246.642 OFFCURVE",
"434 179.029 OFFCURVE",
"283 179.029 CURVE SMOOTH"
);
},
{
closed = 1;
nodes = (
"508 466.387 OFFCURVE",
"443 542.95 OFFCURVE",
"283 542.95 CURVE SMOOTH",
"125 542.95 LINE",
"125 700.052 LINE",
"105 700.052 LINE",
"105 0.051 LINE",
"125 0.051 LINE",
"125 158.148 LINE",
"283 158.148 LINE SMOOTH",
"429 158.148 OFFCURVE",
"508 220.79 OFFCURVE",
"508 350.052 CURVE SMOOTH"
);
}
);
width = 560;
}
);
unicode = 00DE;
},
{
glyphname = Q;
leftMetricsKey = O;
rightMetricsKey = O;
layers = (
{
components = (
{
name = O;
alignment = -1;
}
);
hints = (
{
horizontal = 1;
place = "{-100, 21}";
target = up;
type = BottomGhost;
},
{
horizontal = 1;
place = "{100, -20}";
target = down;
type = TopGhost;
}
);
layerId = "DDF9CB4A-5BD9-4FF0-B193-4B15C8A4E20E";
paths = (
{
closed = 1;
nodes = (
"365.914 -100.086 LINE",
"385.914 -100.086 LINE",
"425.752 100.193 LINE",
"405.752 100.193 LINE"
);
}
);
width = 777;
},
{
components = (
{
name = O;
alignment = -1;
}
);
hints = (
{
horizontal = 1;
place = "{-100, 21}";
target = up;
type = BottomGhost;
},
{
horizontal = 1;
place = "{200, -20}";
target = down;
type = TopGhost;
}
);
layerId = "1561AD04-BD37-418E-8B6B-BE98B6024D19";
paths = (
{
closed = 1;
nodes = (
"363.143 -99.834 LINE",
"477.143 -99.834 LINE",
"536.741 199.784 LINE",
"422.741 199.784 LINE"
);
}
);
width = 795;
},
{
components = (
{
name = O;
alignment = -1;
}
);
hints = (
{
horizontal = 1;
place = "{-74, 21}";
target = up;
type = BottomGhost;
},
{
horizontal = 1;
place = "{266, -20}";
target = down;
type = TopGhost;
}
);
layerId = "42D00F0D-4BAE-4BEF-B7B4-E50550C9319F";
paths = (
{
closed = 1;
nodes = (
"308.274 -74.003 LINE",
"452.274 -74.003 LINE",
"519.835 265.65 LINE",
"375.835 265.65 LINE"
);
}
);
width = 758;
},
{
components = (
{
name = O;
alignment = -1;
}
);
hints = (
{
place = "{323, 144}";
type = Stem;
},
{
horizontal = 1;
place = "{-74, 21}";
target = up;
type = BottomGhost;
},
{
horizontal = 1;
place = "{266, -20}";
target = down;
type = TopGhost;
}
);
layerId = "C94DCDBE-E93C-4FE0-915D-AD8FEA32188B";
paths = (
{
closed = 1;
nodes = (
"322.994 -74.003 LINE",
"466.994 -74.003 LINE",
"466.994 265.65 LINE",
"322.994 265.65 LINE"
);
}
);
width = 758;
},
{
components = (
{
name = O;
alignment = -1;
}
);
hints = (
{
place = "{383, 114}";
type = Stem;
},
{
horizontal = 1;
place = "{-100, 21}";
target = up;
type = BottomGhost;
},
{
horizontal = 1;
place = "{200, -20}";
target = down;
type = TopGhost;
}
);
layerId = "B277CF55-BF18-48AA-9059-7C346BD7E968";
paths = (
{
closed = 1;
nodes = (
"383.001 -99.834 LINE",
"497.001 -99.834 LINE",
"497.001 199.784 LINE",
"383.001 199.784 LINE"
);
}
);
width = 794;
},
{
components = (
{
name = O;
alignment = -1;
}
);
hints = (
{
place = "{386, 20}";
type = Stem;
},
{
horizontal = 1;
place = "{-100, 21}";
target = up;
type = BottomGhost;
},
{
horizontal = 1;
place = "{100, -20}";
target = down;
type = TopGhost;
}
);
layerId = "DC8E81A1-AADA-409F-9952-6B611BF6633C";
paths = (
{
closed = 1;
nodes = (
"385.823 -100.086 LINE",
"405.823 -100.086 LINE",
"405.823 100.193 LINE",
"385.823 100.193 LINE"
);
}
);
width = 776;
}
);
unicode = 0051;
},
{
glyphname = R;
leftMetricsKey = H;
rightMetricsKey = "=H/2";
layers = (
{
anchors = (
{
name = bottom;
position = "{345, 0}";
},
{
name = top;
position = "{480, 679}";
}
);
hints = (
{
horizontal = 1;
place = "{680, 20}";
type = Stem;
},
{
horizontal = 1;
place = "{0, 21}";
target = up;
type = BottomGhost;
}
);
layerId = "DDF9CB4A-5BD9-4FF0-B193-4B15C8A4E20E";
paths = (
{
closed = 1;
nodes = (
"597.724 400.754 OFFCURVE",
"520.493 324.193 OFFCURVE",
"376.493 324.193 CURVE SMOOTH",
"188.493 324.193 LINE",
"259.305 680.152 LINE",
"445.305 680.152 LINE SMOOTH",
"596.305 680.152 OFFCURVE",
"639.657 611.546 OFFCURVE",
"618.097 503.167 CURVE SMOOTH"
);
},
{
closed = 1;
nodes = (
"243.261 700.038 LINE",
"104.01 0.051 LINE",
"124.01 0.051 LINE",
"184.735 305.301 LINE",
"372.735 305.301 LINE SMOOTH",
"518.735 305.301 OFFCURVE",
"613.976 376.891 OFFCURVE",
"639.097 503.167 CURVE SMOOTH",
"662.24 619.5 OFFCURVE",
"609.261 700.038 OFFCURVE",
"449.261 700.038 CURVE SMOOTH"
);
},
{
closed = 1;
nodes = (
"388.317 313.256 LINE",
"519.01 0.051 LINE",
"544.01 0.051 LINE",
"412.317 313.256 LINE"
);
}
);
width = 597;
},
{
anchors = (
{
name = bottom;
position = "{356, 0}";
},
{
name = top;
position = "{495, 701}";
}
);
hints = (
{
horizontal = 1;
place = "{280, 91}";
type = Stem;
},
{
horizontal = 1;
place = "{607, 93}";
type = Stem;
},
{
horizontal = 1;
place = "{0, 21}";
target = up;
type = BottomGhost;
}
);
layerId = "1561AD04-BD37-418E-8B6B-BE98B6024D19";
paths = (
{
closed = 1;
nodes = (
"567.633 420.476 OFFCURVE",
"517.751 370.794 OFFCURVE",
"428.789 370.984 CURVE SMOOTH",
"272.855 371.319 LINE",
"319.798 607.328 LINE",
"475.798 607.328 LINE SMOOTH",
"564.798 607.328 OFFCURVE",
"595.558 560.874 OFFCURVE",
"581.494 490.167 CURVE SMOOTH"
);
},
{
closed = 1;
nodes = (
"224.295 700.328 LINE",
"85 0 LINE",
"199 0 LINE",
"254.692 279.999 LINE",
"410.692 279.999 LINE SMOOTH",
"591.692 279.999 OFFCURVE",
"678.693 390.614 OFFCURVE",
"698.494 490.167 CURVE SMOOTH",
"721.095 603.798 OFFCURVE",
"659.295 700.328 OFFCURVE",
"494.295 700.328 CURVE SMOOTH"
);
},
{
closed = 1;
nodes = (
"358.257 316.596 LINE",
"475.904 0 LINE",
"611.7 0 LINE",
"487.068 316.596 LINE"
);
}
);
width = 654;
},
{
anchors = (
{
name = bottom;
position = "{336, 1}";
},
{
name = top;
position = "{476, 702}";
}
);
hints = (
{
horizontal = 1;
place = "{514, 186}";
type = Stem;
},
{
horizontal = 1;
place = "{0, 21}";
target = up;
type = BottomGhost;
}
);
layerId = "42D00F0D-4BAE-4BEF-B7B4-E50550C9319F";
paths = (
{
closed = 1;
nodes = (
"517.734 415.957 OFFCURVE",
"492.287 398.625 OFFCURVE",
"450.287 398.625 CURVE SMOOTH",
"332.287 398.625 LINE",
"355.268 514.17 LINE",
"473.268 514.17 LINE SMOOTH",
"515.268 514.17 OFFCURVE",
"532.672 491.061 OFFCURVE",
"525.777 456.397 CURVE SMOOTH"
);
},
{
closed = 1;
nodes = (
"170.237 700.035 LINE",
"31 0 LINE",
"253 0 LINE",
"302.763 250.19 LINE",
"440.763 250.19 LINE SMOOTH",
"618.763 250.19 OFFCURVE",
"729.079 347.306 OFFCURVE",
"753.52 470.188 CURVE SMOOTH",
"779.056 598.571 OFFCURVE",
"708.237 700.035 OFFCURVE",
"530.237 700.035 CURVE SMOOTH"
);
},
{
closed = 1;
nodes = (
"319.286 293.23 LINE",
"417.379 0 LINE",
"662.147 0 LINE",
"550.936 293.23 LINE"
);
}
);
width = 677;
},
{
anchors = (
{
name = bottom;
position = "{335, 1}";
},
{
name = top;
position = "{335, 702}";
}
);
hints = (
{
place = "{30, 222}";
type = Stem;
},
{
place = "{434, 225}";
type = Stem;
},
{
horizontal = 1;
place = "{514, 186}";
type = Stem;
},
{
horizontal = 1;
place = "{0, 21}";
target = up;
type = BottomGhost;
}
);
layerId = "C94DCDBE-E93C-4FE0-915D-AD8FEA32188B";
paths = (
{
closed = 1;
nodes = (
"434 415.957 OFFCURVE",
"412 398.625 OFFCURVE",
"370 398.625 CURVE SMOOTH",
"252 398.625 LINE",
"252 514.17 LINE",
"370 514.17 LINE SMOOTH",
"412 514.17 OFFCURVE",
"434 491.061 OFFCURVE",
"434 456.397 CURVE SMOOTH"
);
},
{
closed = 1;
nodes = (
"30 700.035 LINE",
"30 0 LINE",
"252 0 LINE",
"252 250.19 LINE",
"390 250.19 LINE SMOOTH",
"568 250.19 OFFCURVE",
"659 347.306 OFFCURVE",
"659 470.188 CURVE SMOOTH",
"659 598.571 OFFCURVE",
"568 700.035 OFFCURVE",
"390 700.035 CURVE SMOOTH"
);
},
{
closed = 1;
nodes = (
"259.963 293.23 LINE",
"416.379 0 LINE",
"661.147 0 LINE",
"491.612 293.23 LINE"
);
}
);
width = 677;
},
{
anchors = (
{
name = bottom;
position = "{356, 0}";
},
{
name = top;
position = "{356, 701}";
}
);
hints = (
{
place = "{85, 114}";
type = Stem;
},
{
place = "{484, 117}";
type = Stem;
},
{
horizontal = 1;
place = "{280, 91}";
type = Stem;
},
{
horizontal = 1;
place = "{607, 93}";
type = Stem;
},
{
horizontal = 1;
place = "{0, 21}";
target = up;
type = BottomGhost;
}
);
layerId = "B277CF55-BF18-48AA-9059-7C346BD7E968";
paths = (
{
closed = 1;
nodes = (
"484 420.476 OFFCURVE",
"444 370.794 OFFCURVE",
"355 370.984 CURVE SMOOTH",
"199 371.319 LINE",
"199 607.328 LINE",
"355 607.328 LINE SMOOTH",
"444 607.328 OFFCURVE",
"484 560.874 OFFCURVE",
"484 490.167 CURVE SMOOTH"
);
},
{
closed = 1;
nodes = (
"85 700.328 LINE",
"85 0 LINE",
"199 0 LINE",
"199 279.999 LINE",
"355 279.999 LINE SMOOTH",
"536 279.999 OFFCURVE",
"601 390.614 OFFCURVE",
"601 490.167 CURVE SMOOTH",
"601 603.798 OFFCURVE",
"520 700.328 OFFCURVE",
"355 700.328 CURVE SMOOTH"
);
},
{
closed = 1;
nodes = (
"295.286 316.596 LINE",
"475.904 0 LINE",
"611.7 0 LINE",
"424.097 316.596 LINE"
);
}
);
width = 654;
},
{
anchors = (
{
name = bottom;
position = "{346, 0}";
},
{
name = top;
position = "{346, 679}";
}
);
hints = (
{
place = "{105, 20}";
type = Stem;
},
{
place = "{519, 21}";
type = Stem;
},
{
horizontal = 1;
place = "{680, 20}";
type = Stem;
},
{
horizontal = 1;
place = "{0, 21}";
target = up;
type = BottomGhost;
}
);
layerId = "DC8E81A1-AADA-409F-9952-6B611BF6633C";
paths = (
{
closed = 1;
nodes = (
"519 400.754 OFFCURVE",
"457 324.193 OFFCURVE",
"313 324.193 CURVE SMOOTH",
"125 324.193 LINE",
"125 680.152 LINE",
"311 680.152 LINE SMOOTH",
"462 680.152 OFFCURVE",
"519 611.546 OFFCURVE",
"519 503.167 CURVE SMOOTH"
);
},
{
closed = 1;
nodes = (
"105 700.038 LINE",
"105 0.051 LINE",
"125 0.051 LINE",
"125 305.301 LINE",
"313 305.301 LINE SMOOTH",
"459 305.301 OFFCURVE",
"540 376.891 OFFCURVE",
"540 503.167 CURVE SMOOTH",
"540 619.5 OFFCURVE",
"471 700.038 OFFCURVE",
"311 700.038 CURVE SMOOTH"
);
},
{
closed = 1;
nodes = (
"327 313.256 LINE",
"520 0.051 LINE",
"545 0.051 LINE",
"351 313.256 LINE"
);
}
);
width = 597;
}
);
unicode = 0052;
},
{
glyphname = Rcommaaccent;
leftMetricsKey = R;
rightMetricsKey = R;
layers = (
{
anchors = (
{
name = _bottom;
position = "{311, 0}";
}
);
components = (
{
name = R;
transform = "{1, 0, 0, 1, -1, 0}";
alignment = -1;
}
);
hints = (
{
horizontal = 1;
place = "{-59, -20}";
target = down;
type = TopGhost;
},
{
horizontal = 1;
place = "{-175, 21}";
target = up;
type = BottomGhost;
}
);
layerId = "DDF9CB4A-5BD9-4FF0-B193-4B15C8A4E20E";
paths = (
{
closed = 1;
nodes = (
"274.341 -58.614 LINE",
"266.825 -96.398 LINE",
"297.825 -96.398 LINE",
"296.441 -103.358 LINE SMOOTH",
"289.914 -136.171 OFFCURVE",
"274.761 -157.051 OFFCURVE",
"242.761 -157.051 CURVE",
"239.2 -174.949 LINE",
"275.2 -174.949 OFFCURVE",
"307.167 -160.034 OFFCURVE",
"321.21 -89.438 CURVE SMOOTH",
"322.99 -80.489 OFFCURVE",
"324.561 -67.563 OFFCURVE",
"325.341 -58.614 CURVE"
);
}
);
width = 597;
},
{
anchors = (
{
name = _bottom;
position = "{356, 0}";
}
);
components = (
{
name = R;
alignment = -1;
}
);
hints = (
{
horizontal = 1;
place = "{-143, 96}";
type = Stem;
},
{
horizontal = 1;
place = "{-272, 21}";
target = up;
type = BottomGhost;
}
);
layerId = "1561AD04-BD37-418E-8B6B-BE98B6024D19";
paths = (
{
closed = 1;
nodes = (
"292.651 -47 LINE",
"273.551 -143.022 LINE",
"325.485 -143.356 LINE",
"321.278 -164.507 LINE SMOOTH",
"313.62 -203.003 OFFCURVE",
"294.792 -222.251 OFFCURVE",
"261.792 -222.251 CURVE",
"251.907 -271.942 LINE",
"325.907 -271.942 OFFCURVE",
"372.299 -229.752 OFFCURVE",
"388.884 -146.377 CURVE SMOOTH",
"394.684 -117.219 OFFCURVE",
"397.293 -84.089 OFFCURVE",
"395.713 -47 CURVE"
);
}
);
width = 654;
},
{
anchors = (
{
name = _bottom;
position = "{360, 1}";
}
);
components = (
{
name = R;
alignment = -1;
}
);
hints = (
{
horizontal = 1;
place = "{-341, 79}";
type = Stem;
},
{
horizontal = 1;
place = "{-179, 147}";
type = Stem;
}
);
layerId = "42D00F0D-4BAE-4BEF-B7B4-E50550C9319F";
paths = (
{
closed = 1;
nodes = (
"273.671 -31.82 LINE",
"244.341 -179.27 LINE",
"316.341 -179.27 LINE",
"314.45 -188.777 LINE SMOOTH",
"304.444 -239.077 OFFCURVE",
"280.019 -261.325 OFFCURVE",
"245.019 -261.325 CURVE",
"229.209 -340.81 LINE",
"343.209 -340.81 OFFCURVE",
"410.003 -261.407 OFFCURVE",
"428.956 -166.122 CURVE SMOOTH",
"437.244 -124.455 OFFCURVE",
"438.242 -78.705 OFFCURVE",
"429.339 -31.82 CURVE"
);
}
);
width = 677;
},
{
anchors = (
{
name = _bottom;
position = "{360, 1}";
}
);
components = (
{
name = R;
alignment = -1;
}
);
hints = (
{
place = "{280, 182}";
type = Stem;
},
{
place = "{352, 110}";
type = Stem;
},
{
horizontal = 1;
place = "{-341, 79}";
type = Stem;
},
{
horizontal = 1;
place = "{-179, 147}";
type = Stem;
}
);
layerId = "C94DCDBE-E93C-4FE0-915D-AD8FEA32188B";
paths = (
{
closed = 1;
nodes = (
"280 -31.82 LINE",
"280 -179.27 LINE",
"352 -179.27 LINE",
"352 -188.777 LINE",
"352 -239.077 OFFCURVE",
"332 -261.325 OFFCURVE",
"297 -261.325 CURVE",
"297 -340.81 LINE",
"411 -340.81 OFFCURVE",
"462 -261.407 OFFCURVE",
"462 -166.122 CURVE SMOOTH",
"462 -124.455 OFFCURVE",
"453.898 -78.705 OFFCURVE",
"435.668 -31.82 CURVE"
);
}
);
width = 677;
},
{
anchors = (
{
name = _bottom;
position = "{356, 0}";
}
);
components = (
{
name = R;
alignment = -1;
}
);
hints = (
{
place = "{302, 116}";
type = Stem;
},
{
place = "{306, 112}";
type = Stem;
},
{
place = "{354, 64}";
type = Stem;
},
{
horizontal = 1;
place = "{-143, 96}";
type = Stem;
},
{
horizontal = 1;
place = "{-272, 21}";
target = up;
type = BottomGhost;
}
);
layerId = "B277CF55-BF18-48AA-9059-7C346BD7E968";
paths = (
{
closed = 1;
nodes = (
"302 -47 LINE",
"302 -143.022 LINE",
"354 -143.356 LINE",
"354 -164.507 LINE SMOOTH",
"354 -203.003 OFFCURVE",
"339 -222.251 OFFCURVE",
"306 -222.251 CURVE",
"306 -271.942 LINE",
"380 -271.942 OFFCURVE",
"418 -229.752 OFFCURVE",
"418 -146.377 CURVE SMOOTH",
"418 -117.219 OFFCURVE",
"414.019 -84.089 OFFCURVE",
"405.062 -47 CURVE"
);
}
);
width = 654;
},
{
anchors = (
{
name = _bottom;
position = "{312, 0}";
}
);
components = (
{
name = R;
alignment = -1;
}
);
hints = (
{
place = "{318, 22}";
type = Stem;
},
{
horizontal = 1;
place = "{-59, -20}";
target = down;
type = TopGhost;
},
{
horizontal = 1;
place = "{-175, 21}";
target = up;
type = BottomGhost;
}
);
layerId = "DC8E81A1-AADA-409F-9952-6B611BF6633C";
paths = (
{
closed = 1;
nodes = (
"287 -58.614 LINE",
"287 -96.398 LINE",
"318 -96.398 LINE",
"318 -103.358 LINE SMOOTH",
"318 -136.171 OFFCURVE",
"307 -157.051 OFFCURVE",
"275 -157.051 CURVE",
"275 -174.949 LINE",
"311 -174.949 OFFCURVE",
"340 -160.034 OFFCURVE",
"340 -89.438 CURVE SMOOTH",
"340 -80.489 OFFCURVE",
"339 -67.563 OFFCURVE",
"338 -58.614 CURVE"
);
}
);
width = 597;
}
);
unicode = 0156;
},
{
glyphname = S;
leftMetricsKey = "H*0.6";
rightMetricsKey = "H*0.6";
layers = (
{
anchors = (
{
name = bottom;
position = "{276, 0}";
},
{
name = top;
position = "{411, 679}";
}
);
hints = (
{
horizontal = 1;
place = "{-7, 21}";
target = up;
type = BottomGhost;
},
{
horizontal = 1;
place = "{707, -20}";
target = down;
type = TopGhost;
}
);
layerId = "DDF9CB4A-5BD9-4FF0-B193-4B15C8A4E20E";
paths = (
{
closed = 1;
nodes = (
"90.604 139.175 LINE",
"98.544 60.969 OFFCURVE",
"158.514 -6.909 OFFCURVE",
"285.626 -6.909 CURVE SMOOTH",
"425.626 -6.909 OFFCURVE",
"511.823 84.567 OFFCURVE",
"528.636 169.082 CURVE SMOOTH",
"581.449 434.56 OFFCURVE",
"149.988 281.438 OFFCURVE",
"200.031 532.996 CURVE SMOOTH",
"219.218 629.443 OFFCURVE",
"317.086 689.101 OFFCURVE",
"418.086 689.101 CURVE SMOOTH",
"532.979 689.101 OFFCURVE",
"571.142 621.899 OFFCURVE",
"578.976 572.428 CURVE",
"598.534 578.999 LINE",
"588.817 641.602 OFFCURVE",
"541.333 706.998 OFFCURVE",
"421.646 706.998 CURVE SMOOTH",
"294.646 706.998 OFFCURVE",
"198.229 624.472 OFFCURVE",
"180.031 532.996 CURVE SMOOTH",
"126.427 263.541 OFFCURVE",
"557.888 416.663 OFFCURVE",
"508.636 169.082 CURVE SMOOTH",
"491.428 82.578 OFFCURVE",
"405.186 10.988 OFFCURVE",
"289.186 10.988 CURVE SMOOTH",
"153.877 10.988 OFFCURVE",
"117.483 88.433 OFFCURVE",
"111.001 146.023 CURVE"
);
}
);
width = 558;
},
{
anchors = (
{
name = bottom;
position = "{301, -7}";
},
{
name = top;
position = "{438, 709}";
}
);
hints = (
{
place = "{80, 122}";
type = Stem;
},
{
horizontal = 1;
place = "{-7, 97}";
type = Stem;
},
{
horizontal = 1;
place = "{611, 98}";
type = Stem;
}
);
layerId = "1561AD04-BD37-418E-8B6B-BE98B6024D19";
paths = (
{
closed = 1;
nodes = (
"80.33 150.14 LINE",
"87.289 51.731 OFFCURVE",
"178.379 -7.385 OFFCURVE",
"300.531 -7.385 CURVE SMOOTH",
"455.531 -7.385 OFFCURVE",
"560.561 93.335 OFFCURVE",
"581.393 198.084 CURVE SMOOTH",
"632.269 453.913 OFFCURVE",
"244.639 355.207 OFFCURVE",
"276.086 513.338 CURVE SMOOTH",
"289.507 580.82 OFFCURVE",
"346.897 612.966 OFFCURVE",
"412.516 611.036 CURVE SMOOTH",
"479.085 609.078 OFFCURVE",
"519.561 571.572 OFFCURVE",
"523.76 528.24 CURVE",
"642.918 568.789 LINE",
"629.382 658.467 OFFCURVE",
"552.506 708.735 OFFCURVE",
"437.945 708.735 CURVE SMOOTH",
"295.945 708.735 OFFCURVE",
"183.722 632.187 OFFCURVE",
"159.285 509.309 CURVE SMOOTH",
"108.008 251.466 OFFCURVE",
"498.841 361.251 OFFCURVE",
"465.191 192.041 CURVE SMOOTH",
"453.373 132.616 OFFCURVE",
"399.76 89.307 OFFCURVE",
"319.76 89.307 CURVE SMOOTH",
"241.419 89.307 OFFCURVE",
"202.623 134.869 OFFCURVE",
"202.389 191.615 CURVE"
);
}
);
width = 593;
},
{
anchors = (
{
name = bottom;
position = "{306, 1}";
},
{
name = top;
position = "{446, 702}";
}
);
hints = (
{
place = "{56, 238}";
type = Stem;
},
{
horizontal = 1;
place = "{-6, 169}";
type = Stem;
},
{
horizontal = 1;
place = "{542, 168}";
type = Stem;
}
);
layerId = "42D00F0D-4BAE-4BEF-B7B4-E50550C9319F";
paths = (
{
closed = 1;
nodes = (
"55.961 188.189 LINE",
"62.483 53.933 OFFCURVE",
"172.527 -5.568 OFFCURVE",
"318.893 -5.568 CURVE SMOOTH",
"489.893 -5.568 OFFCURVE",
"605.114 75.993 OFFCURVE",
"630.581 204.043 CURVE SMOOTH",
"673.287 418.773 OFFCURVE",
"330.934 416.998 OFFCURVE",
"348.369 504.663 CURVE SMOOTH",
"353.071 528.303 OFFCURVE",
"379.819 543.289 OFFCURVE",
"403.819 542.123 CURVE SMOOTH",
"427.061 540.993 OFFCURVE",
"449.843 521.759 OFFCURVE",
"445.753 487.215 CURVE",
"677.413 525.812 LINE",
"674.785 647.743 OFFCURVE",
"589.893 710.528 OFFCURVE",
"435.312 710.528 CURVE SMOOTH",
"284.312 710.528 OFFCURVE",
"149.815 637.638 OFFCURVE",
"121.998 497.768 CURVE",
"70.59 259.398 OFFCURVE",
"419.845 295.878 OFFCURVE",
"401.038 201.313 CURVE SMOOTH",
"395.467 173.303 OFFCURVE",
"367.585 163.838 OFFCURVE",
"345.585 163.838 CURVE SMOOTH",
"324.348 163.838 OFFCURVE",
"295.161 175.775 OFFCURVE",
"293.56 227.999 CURVE"
);
}
);
width = 607;
},
{
anchors = (
{
name = bottom;
position = "{306, 1}";
},
{
name = top;
position = "{306, 702}";
}
);
hints = (
{
place = "{23, 225}";
type = Stem;
},
{
place = "{361, 229}";
type = Stem;
},
{
horizontal = 1;
place = "{-6, 169}";
type = Stem;
},
{
horizontal = 1;
place = "{542, 168}";
type = Stem;
}
);
layerId = "C94DCDBE-E93C-4FE0-915D-AD8FEA32188B";
paths = (
{
closed = 1;
nodes = (
"18.534 188.189 LINE",
"51.757 53.933 OFFCURVE",
"173.634 -5.568 OFFCURVE",
"320 -5.568 CURVE SMOOTH",
"491 -5.568 OFFCURVE",
"590 75.993 OFFCURVE",
"590 204.043 CURVE SMOOTH",
"590 418.773 OFFCURVE",
"248 416.998 OFFCURVE",
"248 504.663 CURVE SMOOTH",
"248 528.303 OFFCURVE",
"271.768 543.289 OFFCURVE",
"296 542.123 CURVE SMOOTH",
"319.466 540.993 OFFCURVE",
"346.074 521.759 OFFCURVE",
"348.854 487.215 CURVE",
"572.838 525.812 LINE",
"545.96 647.743 OFFCURVE",
"448.581 710.528 OFFCURVE",
"294 710.528 CURVE SMOOTH",
"143 710.528 OFFCURVE",
"23 637.638 OFFCURVE",
"23 497.768 CURVE",
"19 259.398 OFFCURVE",
"361 295.878 OFFCURVE",
"361 201.313 CURVE SMOOTH",
"361 173.303 OFFCURVE",
"335 163.838 OFFCURVE",
"313 163.838 CURVE SMOOTH",
"291.763 163.838 OFFCURVE",
"260.202 175.775 OFFCURVE",
"248.215 227.999 CURVE"
);
}
);
width = 608;
},
{
anchors = (
{
name = bottom;
position = "{303, -7}";
},
{
name = top;
position = "{298, 709}";
}
);
hints = (
{
place = "{59, 116}";
type = Stem;
},
{
place = "{428, 115}";
type = Stem;
},
{
horizontal = 1;
place = "{-7, 97}";
type = Stem;
},
{
horizontal = 1;
place = "{611, 98}";
type = Stem;
}
);
layerId = "B277CF55-BF18-48AA-9059-7C346BD7E968";
paths = (
{
closed = 1;
nodes = (
"51.472 150.14 LINE",
"78.002 51.731 OFFCURVE",
"180.847 -7.385 OFFCURVE",
"303 -7.385 CURVE SMOOTH",
"458 -7.385 OFFCURVE",
"543 93.335 OFFCURVE",
"543 198.084 CURVE SMOOTH",
"543 453.913 OFFCURVE",
"175 355.207 OFFCURVE",
"175 513.338 CURVE SMOOTH",
"175 580.82 OFFCURVE",
"225.998 612.966 OFFCURVE",
"292 611.036 CURVE SMOOTH",
"358.959 609.078 OFFCURVE",
"406.894 571.572 OFFCURVE",
"419.71 528.24 CURVE",
"530.804 568.789 LINE",
"499.434 658.467 OFFCURVE",
"412.562 708.735 OFFCURVE",
"298 708.735 CURVE SMOOTH",
"156 708.735 OFFCURVE",
"59 632.187 OFFCURVE",
"59 509.309 CURVE SMOOTH",
"59 251.466 OFFCURVE",
"428 361.251 OFFCURVE",
"428 192.041 CURVE SMOOTH",
"428 132.616 OFFCURVE",
"383 89.307 OFFCURVE",
"303 89.307 CURVE SMOOTH",
"224.658 89.307 OFFCURVE",
"176.802 134.869 OFFCURVE",
"165.283 191.615 CURVE"
);
}
);
width = 594;
},
{
anchors = (
{
name = bottom;
position = "{277, 0}";
},
{
name = top;
position = "{277, 679}";
}
);
hints = (
{
place = "{75, 20}";
type = Stem;
},
{
place = "{476, 20}";
type = Stem;
},
{
horizontal = 1;
place = "{-7, 21}";
target = up;
type = BottomGhost;
},
{
horizontal = 1;
place = "{707, -20}";
target = down;
type = TopGhost;
}
);
layerId = "DC8E81A1-AADA-409F-9952-6B611BF6633C";
paths = (
{
closed = 1;
nodes = (
"63.917 139.175 LINE",
"87.415 60.969 OFFCURVE",
"160.888 -6.909 OFFCURVE",
"288 -6.909 CURVE SMOOTH",
"428 -6.909 OFFCURVE",
"496 84.567 OFFCURVE",
"496 169.082 CURVE SMOOTH",
"496 434.56 OFFCURVE",
"95 281.438 OFFCURVE",
"95 532.996 CURVE SMOOTH",
"95 629.443 OFFCURVE",
"181 689.101 OFFCURVE",
"282 689.101 CURVE SMOOTH",
"396.894 689.101 OFFCURVE",
"448.425 621.899 OFFCURVE",
"466.101 572.428 CURVE",
"484.352 578.999 LINE",
"462.18 641.602 OFFCURVE",
"401.687 706.998 OFFCURVE",
"282 706.998 CURVE SMOOTH",
"155 706.998 OFFCURVE",
"75 624.472 OFFCURVE",
"75 532.996 CURVE SMOOTH",
"75 263.541 OFFCURVE",
"476 416.663 OFFCURVE",
"476 169.082 CURVE SMOOTH",
"476 82.578 OFFCURVE",
"404 10.988 OFFCURVE",
"288 10.988 CURVE SMOOTH",
"152.691 10.988 OFFCURVE",
"100.891 88.433 OFFCURVE",
"82.952 146.023 CURVE"
);
}
);
width = 559;
}
);
unicode = 0053;
},
{
glyphname = Scommaaccent;
leftMetricsKey = S;
rightMetricsKey = S;
layers = (
{
anchors = (
{
name = _bottom;
position = "{289, -7}";
}
);
components = (
{
name = S;
transform = "{1, 0, 0, 1, -1, 0}";
alignment = -1;
}
);
hints = (
{
horizontal = 1;
place = "{-59, -20}";
target = down;
type = TopGhost;
},
{
horizontal = 1;
place = "{-175, 21}";
target = up;
type = BottomGhost;
}
);
layerId = "DDF9CB4A-5BD9-4FF0-B193-4B15C8A4E20E";
paths = (
{
closed = 1;
nodes = (
"254.341 -58.614 LINE",
"246.825 -96.398 LINE",
"277.825 -96.398 LINE",
"276.441 -103.358 LINE SMOOTH",
"269.914 -136.171 OFFCURVE",
"254.761 -157.051 OFFCURVE",
"222.761 -157.051 CURVE",
"219.2 -174.949 LINE",
"255.2 -174.949 OFFCURVE",
"287.167 -160.034 OFFCURVE",
"301.21 -89.438 CURVE SMOOTH",
"302.99 -80.489 OFFCURVE",
"304.561 -67.563 OFFCURVE",
"305.341 -58.614 CURVE"
);
}
);
width = 558;
},
{
anchors = (
{
name = _bottom;
position = "{295, 0}";
}
);
components = (
{
name = S;
transform = "{1, 0, 0, 1, -0.111, 0}";
alignment = -1;
}
);
hints = (
{
horizontal = 1;
place = "{-143, 96}";
type = Stem;
},
{
horizontal = 1;
place = "{-272, 21}";
target = up;
type = BottomGhost;
}
);
layerId = "1561AD04-BD37-418E-8B6B-BE98B6024D19";
paths = (
{
closed = 1;
nodes = (
"230.651 -47 LINE",
"211.551 -143.022 LINE",
"264.485 -143.356 LINE",
"260.278 -164.507 LINE SMOOTH",
"252.62 -203.003 OFFCURVE",
"233.792 -222.251 OFFCURVE",
"199.792 -222.251 CURVE",
"189.907 -271.942 LINE",
"264.907 -271.942 OFFCURVE",
"311.299 -229.752 OFFCURVE",
"327.884 -146.377 CURVE SMOOTH",
"333.683 -117.223 OFFCURVE",
"336.292 -84.089 OFFCURVE",
"333.717 -47 CURVE"
);
}
);
width = 593;
},
{
anchors = (
{
name = _bottom;
position = "{343, 1}";
}
);
components = (
{
name = S;
alignment = -1;
}
);
hints = (
{
horizontal = 1;
place = "{-341, 79}";
type = Stem;
},
{
horizontal = 1;
place = "{-179, 147}";
type = Stem;
}
);
layerId = "42D00F0D-4BAE-4BEF-B7B4-E50550C9319F";
paths = (
{
closed = 1;
nodes = (
"256.671 -31.82 LINE",
"227.341 -179.27 LINE",
"299.341 -179.27 LINE",
"297.45 -188.777 LINE SMOOTH",
"287.445 -239.077 OFFCURVE",
"263.019 -261.325 OFFCURVE",
"228.019 -261.325 CURVE",
"212.209 -340.81 LINE",
"326.209 -340.81 OFFCURVE",
"393.003 -261.407 OFFCURVE",
"411.956 -166.122 CURVE SMOOTH",
"420.244 -124.455 OFFCURVE",
"421.242 -78.705 OFFCURVE",
"412.339 -31.82 CURVE"
);
}
);
width = 607;
},
{
anchors = (
{
name = _bottom;
position = "{343, 1}";
}
);
components = (
{
name = S;
alignment = -1;
}
);
hints = (
{
place = "{263, 182}";
type = Stem;
},
{
place = "{335, 110}";
type = Stem;
},
{
horizontal = 1;
place = "{-341, 79}";
type = Stem;
},
{
horizontal = 1;
place = "{-179, 147}";
type = Stem;
}
);
layerId = "C94DCDBE-E93C-4FE0-915D-AD8FEA32188B";
paths = (
{
closed = 1;
nodes = (
"263 -31.82 LINE",
"263 -179.27 LINE",
"335 -179.27 LINE",
"335 -188.777 LINE",
"335 -239.077 OFFCURVE",
"315 -261.325 OFFCURVE",
"280 -261.325 CURVE",
"280 -340.81 LINE",
"394 -340.81 OFFCURVE",
"445 -261.407 OFFCURVE",
"445 -166.122 CURVE SMOOTH",
"445 -124.455 OFFCURVE",
"436.898 -78.705 OFFCURVE",
"418.668 -31.82 CURVE"
);
}
);
width = 608;
},
{
anchors = (
{
name = _bottom;
position = "{295, 0}";
}
);
components = (
{
name = S;
transform = "{1, 0, 0, 1, -0.111, 0}";
alignment = -1;
}
);
hints = (
{
place = "{240, 117}";
type = Stem;
},
{
place = "{244, 113}";
type = Stem;
},
{
place = "{293, 64}";
type = Stem;
},
{
horizontal = 1;
place = "{-143, 96}";
type = Stem;
},
{
horizontal = 1;
place = "{-272, 21}";
target = up;
type = BottomGhost;
}
);
layerId = "B277CF55-BF18-48AA-9059-7C346BD7E968";
paths = (
{
closed = 1;
nodes = (
"240 -47 LINE",
"240 -143.022 LINE",
"293 -143.356 LINE",
"293 -164.507 LINE SMOOTH",
"293 -203.003 OFFCURVE",
"278 -222.251 OFFCURVE",
"244 -222.251 CURVE",
"244 -271.942 LINE",
"319 -271.942 OFFCURVE",
"357 -229.752 OFFCURVE",
"357 -146.377 CURVE SMOOTH",
"357 -117.223 OFFCURVE",
"353.019 -84.089 OFFCURVE",
"343.066 -47 CURVE"
);
}
);
width = 594;
},
{
anchors = (
{
name = _bottom;
position = "{291, -7}";
}
);
components = (
{
name = S;
alignment = -1;
}
);
hints = (
{
place = "{298, 22}";
type = Stem;
},
{
horizontal = 1;
place = "{-59, -20}";
target = down;
type = TopGhost;
},
{
horizontal = 1;
place = "{-175, 21}";
target = up;
type = BottomGhost;
}
);
layerId = "DC8E81A1-AADA-409F-9952-6B611BF6633C";
paths = (
{
closed = 1;
nodes = (
"267 -58.614 LINE",
"267 -96.398 LINE",
"298 -96.398 LINE",
"298 -103.358 LINE SMOOTH",
"298 -136.171 OFFCURVE",
"287 -157.051 OFFCURVE",
"255 -157.051 CURVE",
"255 -174.949 LINE",
"291 -174.949 OFFCURVE",
"320 -160.034 OFFCURVE",
"320 -89.438 CURVE SMOOTH",
"320 -80.489 OFFCURVE",
"319 -67.563 OFFCURVE",
"318 -58.614 CURVE"
);
}
);
width = 559;
}
);
unicode = 0218;
},
{
glyphname = T;
leftMetricsKey = "=H/2";
rightMetricsKey = "=H/2";
layers = (
{
anchors = (
{
name = bottom;
position = "{295, 0}";
},
{
name = top;
position = "{433, 679}";
}
);
hints = (
{
horizontal = 1;
place = "{700, -20}";
target = down;
type = TopGhost;
},
{
horizontal = 1;
place = "{0, 21}";
target = up;
type = BottomGhost;
}
);
layerId = "DDF9CB4A-5BD9-4FF0-B193-4B15C8A4E20E";
paths = (
{
closed = 1;
nodes = (
"187.701 682.141 LINE",
"422.701 682.141 LINE",
"287.01 0.051 LINE",
"307.01 0.051 LINE",
"442.701 682.141 LINE",
"677.701 682.141 LINE",
"681.261 700.038 LINE",
"191.261 700.038 LINE"
);
}
);
width = 595;
},
{
anchors = (
{
name = bottom;
position = "{314, 0}";
},
{
name = top;
position = "{455, 701}";
}
);
hints = (
{
horizontal = 1;
place = "{607, 93}";
type = Stem;
},
{
horizontal = 1;
place = "{0, 21}";
target = up;
type = BottomGhost;
}
);
layerId = "1561AD04-BD37-418E-8B6B-BE98B6024D19";
paths = (
{
closed = 1;
nodes = (
"163.798 607.328 LINE",
"379.731 606.994 LINE",
"259 0 LINE",
"373 0 LINE",
"493.798 607.328 LINE",
"708.798 607.328 LINE",
"727.295 700.328 LINE",
"182.295 700.328 LINE"
);
}
);
width = 630;
},
{
anchors = (
{
name = bottom;
position = "{339, 1}";
},
{
name = top;
position = "{479, 702}";
}
);
hints = (
{
horizontal = 1;
place = "{524, 176}";
type = Stem;
},
{
horizontal = 1;
place = "{0, 21}";
target = up;
type = BottomGhost;
}
);
layerId = "42D00F0D-4BAE-4BEF-B7B4-E50550C9319F";
paths = (
{
closed = 1;
nodes = (
"120.228 524.02 LINE",
"336.228 524.02 LINE",
"232 0 LINE",
"454 0 LINE",
"558.228 524.02 LINE",
"776.228 524.02 LINE",
"811.237 700.035 LINE",
"155.237 700.035 LINE"
);
}
);
width = 686;
},
{
anchors = (
{
name = bottom;
position = "{338, 1}";
},
{
name = top;
position = "{338, 702}";
}
);
hints = (
{
place = "{231, 222}";
type = Stem;
},
{
horizontal = 1;
place = "{524, 176}";
type = Stem;
},
{
horizontal = 1;
place = "{0, 21}";
target = up;
type = BottomGhost;
}
);
layerId = "C94DCDBE-E93C-4FE0-915D-AD8FEA32188B";
paths = (
{
closed = 1;
nodes = (
"15 524.02 LINE",
"231 524.02 LINE",
"231 0 LINE",
"453 0 LINE",
"453 524.02 LINE",
"671 524.02 LINE",
"671 700.035 LINE",
"15 700.035 LINE"
);
}
);
width = 686;
},
{
anchors = (
{
name = bottom;
position = "{313, 0}";
},
{
name = top;
position = "{315, 701}";
}
);
hints = (
{
place = "{258, 114}";
type = Stem;
},
{
horizontal = 1;
place = "{607, 93}";
type = Stem;
},
{
horizontal = 1;
place = "{0, 21}";
target = up;
type = BottomGhost;
}
);
layerId = "B277CF55-BF18-48AA-9059-7C346BD7E968";
paths = (
{
closed = 1;
nodes = (
"42 607.328 LINE",
"258 606.994 LINE",
"258 0 LINE",
"372 0 LINE",
"372 607.328 LINE",
"587 607.328 LINE",
"587 700.328 LINE",
"42 700.328 LINE"
);
}
);
width = 629;
},
{
anchors = (
{
name = bottom;
position = "{295, 0}";
},
{
name = top;
position = "{298, 679}";
}
);
hints = (
{
place = "{287, 20}";
type = Stem;
},
{
horizontal = 1;
place = "{700, -20}";
target = down;
type = TopGhost;
},
{
horizontal = 1;
place = "{0, 21}";
target = up;
type = BottomGhost;
}
);
layerId = "DC8E81A1-AADA-409F-9952-6B611BF6633C";
paths = (
{
closed = 1;
nodes = (
"52 682.141 LINE",
"287 682.141 LINE",
"287 0.051 LINE",
"307 0.051 LINE",
"307 682.141 LINE",
"542 682.141 LINE",
"542 700.038 LINE",
"52 700.038 LINE"
);
}
);
width = 594;
}
);
unicode = 0054;
},
{
glyphname = Tcommaaccent;
leftMetricsKey = T;
rightMetricsKey = T;
layers = (
{
components = (
{
name = T;
alignment = -1;
}
);
hints = (
{
horizontal = 1;
place = "{-59, -20}";
target = down;
type = TopGhost;
},
{
horizontal = 1;
place = "{-175, 21}";
target = up;
type = BottomGhost;
}
);
layerId = "DDF9CB4A-5BD9-4FF0-B193-4B15C8A4E20E";
paths = (
{
closed = 1;
nodes = (
"264.841 -58.614 LINE",
"257.325 -96.398 LINE",
"288.325 -96.398 LINE",
"286.941 -103.358 LINE SMOOTH",
"280.414 -136.171 OFFCURVE",
"265.261 -157.051 OFFCURVE",
"233.261 -157.051 CURVE",
"229.7 -174.949 LINE",
"265.7 -174.949 OFFCURVE",
"297.667 -160.034 OFFCURVE",
"311.71 -89.438 CURVE SMOOTH",
"313.49 -80.489 OFFCURVE",
"315.061 -67.563 OFFCURVE",
"315.841 -58.614 CURVE"
);
}
);
width = 595;
},
{
components = (
{
name = T;
alignment = -1;
}
);
hints = (
{
horizontal = 1;
place = "{-143, 96}";
type = Stem;
},
{
horizontal = 1;
place = "{-272, 21}";
target = up;
type = BottomGhost;
}
);
layerId = "1561AD04-BD37-418E-8B6B-BE98B6024D19";
paths = (
{
closed = 1;
nodes = (
"254.651 -47 LINE",
"235.551 -143.022 LINE",
"288.485 -143.356 LINE",
"284.278 -164.507 LINE SMOOTH",
"276.62 -203.003 OFFCURVE",
"256.792 -222.251 OFFCURVE",
"223.792 -222.251 CURVE",
"213.907 -271.942 LINE",
"287.907 -271.942 OFFCURVE",
"334.299 -229.752 OFFCURVE",
"350.884 -146.377 CURVE SMOOTH",
"356.684 -117.219 OFFCURVE",
"359.293 -84.089 OFFCURVE",
"357.713 -47 CURVE"
);
}
);
width = 630;
},
{
components = (
{
name = T;
alignment = -1;
}
);
hints = (
{
horizontal = 1;
place = "{-179, 147}";
type = Stem;
},
{
horizontal = 1;
place = "{-341, 21}";
target = up;
type = BottomGhost;
}
);
layerId = "42D00F0D-4BAE-4BEF-B7B4-E50550C9319F";
paths = (
{
closed = 1;
nodes = (
"252.671 -31.82 LINE",
"223.341 -179.27 LINE",
"295.341 -179.27 LINE",
"293.45 -188.777 LINE SMOOTH",
"283.444 -239.077 OFFCURVE",
"258.019 -261.325 OFFCURVE",
"224.019 -261.325 CURVE",
"208.209 -340.81 LINE",
"321.209 -340.81 OFFCURVE",
"388.003 -261.407 OFFCURVE",
"406.956 -166.122 CURVE SMOOTH",
"415.242 -124.466 OFFCURVE",
"417.247 -78.729 OFFCURVE",
"408.339 -31.82 CURVE"
);
}
);
width = 686;
},
{
components = (
{
name = T;
alignment = -1;
}
);
hints = (
{
place = "{259, 181}";
type = Stem;
},
{
place = "{331, 109}";
type = Stem;
},
{
horizontal = 1;
place = "{-179, 147}";
type = Stem;
},
{
horizontal = 1;
place = "{-341, 21}";
target = up;
type = BottomGhost;
}
);
layerId = "C94DCDBE-E93C-4FE0-915D-AD8FEA32188B";
paths = (
{
closed = 1;
nodes = (
"259 -31.82 LINE",
"259 -179.27 LINE",
"331 -179.27 LINE",
"331 -188.777 LINE",
"331 -239.077 OFFCURVE",
"310 -261.325 OFFCURVE",
"276 -261.325 CURVE",
"276 -340.81 LINE",
"389 -340.81 OFFCURVE",
"440 -261.407 OFFCURVE",
"440 -166.122 CURVE SMOOTH",
"440 -124.466 OFFCURVE",
"432.907 -78.729 OFFCURVE",
"414.668 -31.82 CURVE"
);
}
);
width = 686;
},
{
components = (
{
name = T;
alignment = -1;
}
);
hints = (
{
place = "{264, 116}";
type = Stem;
},
{
place = "{268, 112}";
type = Stem;
},
{
place = "{317, 63}";
type = Stem;
},
{
horizontal = 1;
place = "{-143, 96}";
type = Stem;
},
{
horizontal = 1;
place = "{-272, 21}";
target = up;
type = BottomGhost;
}
);
layerId = "B277CF55-BF18-48AA-9059-7C346BD7E968";
paths = (
{
closed = 1;
nodes = (
"264 -47 LINE",
"264 -143.022 LINE",
"317 -143.356 LINE",
"317 -164.507 LINE SMOOTH",
"317 -203.003 OFFCURVE",
"301 -222.251 OFFCURVE",
"268 -222.251 CURVE",
"268 -271.942 LINE",
"342 -271.942 OFFCURVE",
"380 -229.752 OFFCURVE",
"380 -146.377 CURVE SMOOTH",
"380 -117.219 OFFCURVE",
"376.019 -84.089 OFFCURVE",
"367.062 -47 CURVE"
);
}
);
width = 629;
},
{
components = (
{
name = T;
alignment = -1;
}
);
hints = (
{
place = "{308, 22}";
type = Stem;
},
{
horizontal = 1;
place = "{-59, -20}";
target = down;
type = TopGhost;
},
{
horizontal = 1;
place = "{-175, 21}";
target = up;
type = BottomGhost;
}
);
layerId = "DC8E81A1-AADA-409F-9952-6B611BF6633C";
paths = (
{
closed = 1;
nodes = (
"276.5 -58.614 LINE",
"276.5 -96.398 LINE",
"307.5 -96.398 LINE",
"307.5 -103.358 LINE SMOOTH",
"307.5 -136.171 OFFCURVE",
"296.5 -157.051 OFFCURVE",
"264.5 -157.051 CURVE",
"264.5 -174.949 LINE",
"300.5 -174.949 OFFCURVE",
"329.5 -160.034 OFFCURVE",
"329.5 -89.438 CURVE SMOOTH",
"329.5 -80.489 OFFCURVE",
"328.5 -67.563 OFFCURVE",
"327.5 -58.614 CURVE"
);
}
);
width = 594;
}
);
unicode = 021A;
},
{
glyphname = U;
leftMetricsKey = "H*0.95";
rightMetricsKey = "H*0.95";
layers = (
{
anchors = (
{
name = ogonek;
position = "{407, 0}";
},
{
name = top;
position = "{478, 679}";
}
);
hints = (
{
horizontal = 1;
place = "{-7, 21}";
target = up;
type = BottomGhost;
},
{
horizontal = 1;
place = "{700, -20}";
target = down;
type = TopGhost;
}
);
layerId = "DDF9CB4A-5BD9-4FF0-B193-4B15C8A4E20E";
paths = (
{
closed = 1;
nodes = (
"151.823 265.529 LINE SMOOTH",
"113.45 72.635 OFFCURVE",
"206.626 -6.909 OFFCURVE",
"344.626 -6.909 CURVE SMOOTH",
"482.626 -6.909 OFFCURVE",
"602.45 72.635 OFFCURVE",
"640.823 265.529 CURVE SMOOTH",
"727.261 700.038 LINE",
"707.261 700.038 LINE",
"620.823 265.529 LINE SMOOTH",
"583.636 78.601 OFFCURVE",
"470.186 10.988 OFFCURVE",
"348.186 10.988 CURVE SMOOTH",
"224.186 10.988 OFFCURVE",
"134.636 78.601 OFFCURVE",
"171.823 265.529 CURVE SMOOTH",
"258.261 700.038 LINE",
"238.261 700.038 LINE"
);
}
);
width = 688;
},
{
anchors = (
{
name = ogonek;
position = "{435, 0}";
},
{
name = top;
position = "{501, 701}";
}
);
hints = (
{
horizontal = 1;
place = "{-7, 100}";
type = Stem;
},
{
horizontal = 1;
place = "{700, -20}";
target = down;
type = TopGhost;
}
);
layerId = "1561AD04-BD37-418E-8B6B-BE98B6024D19";
paths = (
{
closed = 1;
nodes = (
"131.817 255.492 LINE SMOOTH",
"96.404 77.446 OFFCURVE",
"213.598 -7.05 OFFCURVE",
"359.598 -7.05 CURVE SMOOTH",
"504.598 -7.05 OFFCURVE",
"659.404 77.446 OFFCURVE",
"694.817 255.492 CURVE SMOOTH",
"783.295 700.328 LINE",
"669.295 700.328 LINE",
"580.417 253.478 LINE SMOOTH",
"558.736 144.474 OFFCURVE",
"477.498 93 OFFCURVE",
"380.498 93 CURVE SMOOTH",
"284.498 93 OFFCURVE",
"223.736 144.474 OFFCURVE",
"245.417 253.478 CURVE SMOOTH",
"334.295 700.328 LINE",
"220.295 700.328 LINE"
);
}
);
width = 724;
},
{
anchors = (
{
name = ogonek;
position = "{443, 4}";
},
{
name = top;
position = "{493, 702}";
}
);
hints = (
{
horizontal = 1;
place = "{-7, 210}";
type = Stem;
},
{
horizontal = 1;
place = "{700, -20}";
target = down;
type = TopGhost;
}
);
layerId = "42D00F0D-4BAE-4BEF-B7B4-E50550C9319F";
paths = (
{
closed = 1;
nodes = (
"89.802 305.693 LINE SMOOTH",
"48.681 98.95 OFFCURVE",
"167.629 -6.895 OFFCURVE",
"344.629 -6.895 CURVE SMOOTH",
"521.629 -6.895 OFFCURVE",
"695.681 98.95 OFFCURVE",
"736.802 305.693 CURVE SMOOTH",
"815.237 700.035 LINE",
"594.237 700.035 LINE",
"515.802 305.693 LINE SMOOTH",
"504.003 246.371 OFFCURVE",
"458.299 202.61 OFFCURVE",
"391.299 202.61 CURVE SMOOTH",
"324.299 202.61 OFFCURVE",
"299.003 246.371 OFFCURVE",
"310.802 305.693 CURVE SMOOTH",
"389.237 700.035 LINE",
"168.237 700.035 LINE"
);
}
);
width = 704;
},
{
anchors = (
{
name = ogonek;
position = "{441, 4}";
},
{
name = top;
position = "{352, 702}";
}
);
hints = (
{
place = "{28, 221}";
type = Stem;
},
{
place = "{454, 221}";
type = Stem;
},
{
horizontal = 1;
place = "{-7, 210}";
type = Stem;
},
{
horizontal = 1;
place = "{700, -20}";
target = down;
type = TopGhost;
}
);
layerId = "C94DCDBE-E93C-4FE0-915D-AD8FEA32188B";
paths = (
{
closed = 1;
nodes = (
"28 305.693 LINE SMOOTH",
"28 98.95 OFFCURVE",
"168 -6.895 OFFCURVE",
"345 -6.895 CURVE SMOOTH",
"522 -6.895 OFFCURVE",
"675 98.95 OFFCURVE",
"675 305.693 CURVE SMOOTH",
"675 700.035 LINE",
"454 700.035 LINE",
"454 305.693 LINE SMOOTH",
"454 246.371 OFFCURVE",
"417 202.61 OFFCURVE",
"350 202.61 CURVE SMOOTH",
"283 202.61 OFFCURVE",
"249 246.371 OFFCURVE",
"249 305.693 CURVE SMOOTH",
"249 700.035 LINE",
"28 700.035 LINE"
);
}
);
width = 703;
},
{
anchors = (
{
name = ogonek;
position = "{434, 0}";
},
{
name = top;
position = "{361, 701}";
}
);
hints = (
{
place = "{80, 114}";
type = Stem;
},
{
place = "{529, 114}";
type = Stem;
},
{
horizontal = 1;
place = "{-7, 100}";
type = Stem;
},
{
horizontal = 1;
place = "{700, -20}";
target = down;
type = TopGhost;
}
);
layerId = "B277CF55-BF18-48AA-9059-7C346BD7E968";
paths = (
{
closed = 1;
nodes = (
"80 255.492 LINE SMOOTH",
"80 77.446 OFFCURVE",
"214 -7.05 OFFCURVE",
"360 -7.05 CURVE SMOOTH",
"505 -7.05 OFFCURVE",
"643 77.446 OFFCURVE",
"643 255.492 CURVE SMOOTH",
"643 700.328 LINE",
"529 700.328 LINE",
"529 253.478 LINE SMOOTH",
"529 144.474 OFFCURVE",
"458 93 OFFCURVE",
"361 93 CURVE SMOOTH",
"265 93 OFFCURVE",
"194 144.474 OFFCURVE",
"194 253.478 CURVE SMOOTH",
"194 700.328 LINE",
"80 700.328 LINE"
);
}
);
width = 723;
},
{
anchors = (
{
name = ogonek;
position = "{407, 0}";
},
{
name = top;
position = "{343, 679}";
}
);
hints = (
{
place = "{99, 20}";
type = Stem;
},
{
place = "{568, 20}";
type = Stem;
},
{
horizontal = 1;
place = "{-7, 21}";
target = up;
type = BottomGhost;
},
{
horizontal = 1;
place = "{700, -20}";
target = down;
type = TopGhost;
}
);
layerId = "DC8E81A1-AADA-409F-9952-6B611BF6633C";
paths = (
{
closed = 1;
nodes = (
"99 265.529 LINE SMOOTH",
"99 72.635 OFFCURVE",
"208 -6.909 OFFCURVE",
"346 -6.909 CURVE SMOOTH",
"484 -6.909 OFFCURVE",
"588 72.635 OFFCURVE",
"588 265.529 CURVE SMOOTH",
"588 700.038 LINE",
"568 700.038 LINE",
"568 265.529 LINE SMOOTH",
"568 78.601 OFFCURVE",
"468 10.988 OFFCURVE",
"346 10.988 CURVE SMOOTH",
"222 10.988 OFFCURVE",
"119 78.601 OFFCURVE",
"119 265.529 CURVE SMOOTH",
"119 700.038 LINE",
"99 700.038 LINE"
);
}
);
width = 687;
}
);
unicode = 0055;
},
{
glyphname = Uogonek;
leftMetricsKey = U;
rightMetricsKey = U;
layers = (
{
layerId = "8DAF3570-2214-471A-9F92-5ECA88EA5847";
name = "Sep 20 17, 19:51";
paths = (
{
closed = 1;
nodes = (
"80 267 LINE SMOOTH",
"80 93 OFFCURVE",
"170 10 OFFCURVE",
"286 -5 CURVE",
"254 -14 OFFCURVE",
"233 -47.882 OFFCURVE",
"233 -82 CURVE",
"233 -135 OFFCURVE",
"271 -177 OFFCURVE",
"348 -177 CURVE",
"416 -177 LINE",
"416 -157 LINE",
"348 -157 LINE SMOOTH",
"289 -157 OFFCURVE",
"253 -129 OFFCURVE",
"253 -82 CURVE",
"253 -39 OFFCURVE",
"283 -11 OFFCURVE",
"333 -7 CURVE SMOOTH",
"462 2 OFFCURVE",
"549 80 OFFCURVE",
"549 267 CURVE SMOOTH",
"549 704 LINE",
"529 704 LINE",
"529 267 LINE SMOOTH",
"529 60 OFFCURVE",
"426 11 OFFCURVE",
"317 11 CURVE SMOOTH",
"193 11 OFFCURVE",
"100 79 OFFCURVE",
"100 267 CURVE SMOOTH",
"100 704 LINE",
"80 704 LINE"
);
}
);
width = 629;
},
{
components = (
{
name = U;
alignment = -1;
},
{
name = ogonek;
transform = "{1, 0, -0.001, 0.994, 175.01, 0.051}";
alignment = -1;
}
);
layerId = "DDF9CB4A-5BD9-4FF0-B193-4B15C8A4E20E";
width = 688;
},
{
components = (
{
name = U;
alignment = -1;
},
{
name = ogonek;
transform = "{1, 0, 0.001, 1.007, 218.684, -0.334}";
alignment = -1;
}
);
layerId = "1561AD04-BD37-418E-8B6B-BE98B6024D19";
width = 724;
},
{
components = (
{
name = U;
alignment = -1;
},
{
name = ogonek;
transform = "{1, 0, -0.003, 0.985, 166.852, 4.282}";
alignment = -1;
}
);
layerId = "42D00F0D-4BAE-4BEF-B7B4-E50550C9319F";
width = 704;
},
{
components = (
{
name = U;
alignment = -1;
},
{
name = ogonek;
transform = "{1, 0, 0, 0.985, 166, 4.282}";
alignment = -1;
}
);
layerId = "C94DCDBE-E93C-4FE0-915D-AD8FEA32188B";
width = 703;
},
{
components = (
{
name = U;
alignment = -1;
},
{
name = ogonek;
transform = "{1, 0, 0, 1.007, 218.75, -0.334}";
alignment = -1;
}
);
layerId = "B277CF55-BF18-48AA-9059-7C346BD7E968";
width = 723;
},
{
components = (
{
name = U;
alignment = -1;
},
{
name = ogonek;
transform = "{1, 0, 0, 0.994, 175, 0.051}";
alignment = -1;
}
);
layerId = "DC8E81A1-AADA-409F-9952-6B611BF6633C";
width = 687;
}
);
unicode = 0172;
},
{
glyphname = V;
leftMetricsKey = "=H/3";
rightMetricsKey = "=H/3";
layers = (
{
hints = (
{
horizontal = 1;
place = "{700, -20}";
target = down;
type = TopGhost;
},
{
horizontal = 1;
place = "{0, 21}";
target = up;
type = BottomGhost;
}
);
layerId = "DDF9CB4A-5BD9-4FF0-B193-4B15C8A4E20E";
paths = (
{
closed = 1;
nodes = (
"319.944 29.881 LINE",
"197.249 700.052 LINE",
"174.249 700.052 LINE",
"304.01 0.051 LINE",
"324.01 0.051 LINE",
"733.249 700.052 LINE",
"711.249 700.052 LINE"
);
}
);
width = 629;
},
{
hints = (
{
horizontal = 1;
place = "{0, 21}";
target = up;
type = BottomGhost;
},
{
horizontal = 1;
place = "{700, -20}";
target = down;
type = TopGhost;
}
);
layerId = "1561AD04-BD37-418E-8B6B-BE98B6024D19";
paths = (
{
closed = 1;
nodes = (
"379.351 117.394 LINE",
"289.383 700.328 LINE",
"167.473 700.328 LINE",
"289.919 0 LINE",
"422.081 0 LINE",
"822.135 700.328 LINE",
"702.225 700.328 LINE"
);
}
);
width = 711;
},
{
hints = (
{
horizontal = 1;
place = "{0, 21}";
target = up;
type = BottomGhost;
},
{
horizontal = 1;
place = "{700, -20}";
target = down;
type = TopGhost;
}
);
layerId = "42D00F0D-4BAE-4BEF-B7B4-E50550C9319F";
paths = (
{
closed = 1;
nodes = (
"436.64 219.391 LINE",
"385.958 700.035 LINE",
"149.648 700.035 LINE",
"249.309 0 LINE",
"535.691 0 LINE",
"913.843 700.035 LINE",
"677.532 700.035 LINE"
);
}
);
width = 784;
},
{
hints = (
{
horizontal = 1;
place = "{0, 21}";
target = up;
type = BottomGhost;
},
{
horizontal = 1;
place = "{700, -20}";
target = down;
type = TopGhost;
}
);
layerId = "C94DCDBE-E93C-4FE0-915D-AD8FEA32188B";
paths = (
{
closed = 1;
nodes = (
"393 219.391 LINE",
"246.712 700.035 LINE",
"10.403 700.035 LINE",
"249.309 0 LINE",
"535.691 0 LINE",
"774.597 700.035 LINE",
"538.287 700.035 LINE"
);
}
);
width = 785;
},
{
hints = (
{
horizontal = 1;
place = "{0, 21}";
target = up;
type = BottomGhost;
},
{
horizontal = 1;
place = "{700, -20}";
target = down;
type = TopGhost;
}
);
layerId = "B277CF55-BF18-48AA-9059-7C346BD7E968";
paths = (
{
closed = 1;
nodes = (
"356 117.394 LINE",
"150.079 700.328 LINE",
"28.169 700.328 LINE",
"289.919 0 LINE",
"422.081 0 LINE",
"682.832 700.328 LINE",
"562.921 700.328 LINE"
);
}
);
width = 711;
},
{
hints = (
{
horizontal = 1;
place = "{700, -20}";
target = down;
type = TopGhost;
},
{
horizontal = 1;
place = "{0, 21}";
target = up;
type = BottomGhost;
}
);
layerId = "DC8E81A1-AADA-409F-9952-6B611BF6633C";
paths = (
{
closed = 1;
nodes = (
"314 29.881 LINE",
"58 700.052 LINE",
"35 700.052 LINE",
"304 0.051 LINE",
"324 0.051 LINE",
"594 700.052 LINE",
"572 700.052 LINE"
);
}
);
width = 629;
}
);
unicode = 0056;
},
{
glyphname = W;
leftMetricsKey = V;
rightMetricsKey = V;
layers = (
{
hints = (
{
place = "{198, 20}";
type = Stem;
},
{
horizontal = 1;
place = "{700, -20}";
target = down;
type = TopGhost;
},
{
horizontal = 1;
place = "{0, 21}";
target = up;
type = BottomGhost;
}
);
layerId = "DDF9CB4A-5BD9-4FF0-B193-4B15C8A4E20E";
paths = (
{
closed = 1;
nodes = (
"582.841 667.114 LINE",
"659.01 0.051 LINE",
"679.01 0.051 LINE",
"1007.261 700.038 LINE",
"985.261 700.038 LINE",
"676.478 37.498 LINE",
"600.261 700.038 LINE",
"578.261 700.038 LINE",
"240.717 39.881 LINE",
"195.261 700.038 LINE",
"173.261 700.038 LINE",
"223.01 0.051 LINE",
"241.01 0.051 LINE"
);
}
);
width = 903;
},
{
hints = (
{
place = "{634, 99}";
type = Stem;
},
{
horizontal = 1;
place = "{700, -20}";
target = down;
type = TopGhost;
}
);
layerId = "1561AD04-BD37-418E-8B6B-BE98B6024D19";
paths = (
{
closed = 1;
nodes = (
"612.841 529.152 LINE",
"653.932 0 LINE",
"783.07 0 LINE",
"1128.169 700.328 LINE",
"1006.231 700.328 LINE",
"748.157 132.087 LINE",
"716.359 700.328 LINE",
"588.228 700.328 LINE",
"318.949 129.74 LINE",
"288.359 700.328 LINE",
"167.415 700.328 LINE",
"224.731 -1.008 LINE",
"353.07 0 LINE"
);
}
);
width = 1017;
},
{
hints = (
{
place = "{162, 216}";
type = Stem;
},
{
place = "{612, 184}";
type = Stem;
},
{
horizontal = 1;
place = "{0, 21}";
target = up;
type = BottomGhost;
},
{
horizontal = 1;
place = "{700, -20}";
target = down;
type = TopGhost;
}
);
layerId = "42D00F0D-4BAE-4BEF-B7B4-E50550C9319F";
paths = (
{
closed = 1;
nodes = (
"609.965 397.011 LINE",
"613.22 0 LINE",
"888.76 0 LINE",
"1190.614 700.035 LINE",
"951.404 700.035 LINE",
"799.41 259.974 LINE",
"791.008 700.035 LINE",
"549.466 700.035 LINE",
"366.026 260.063 LINE",
"389.07 700.035 LINE",
"149.86 700.035 LINE",
"173.24 0 LINE",
"448.78 0 LINE"
);
}
);
width = 1061;
},
{
hints = (
{
horizontal = 1;
place = "{0, 21}";
target = up;
type = BottomGhost;
},
{
horizontal = 1;
place = "{700, -20}";
target = down;
type = TopGhost;
}
);
layerId = "C94DCDBE-E93C-4FE0-915D-AD8FEA32188B";
paths = (
{
closed = 1;
nodes = (
"531 397.011 LINE",
"613.22 0 LINE",
"888.76 0 LINE",
"1051.377 700.035 LINE",
"812.167 700.035 LINE",
"747.701 259.974 LINE",
"651.771 700.035 LINE",
"410.229 700.035 LINE",
"314.299 260.063 LINE",
"249.833 700.035 LINE",
"10.623 700.035 LINE",
"173.24 0 LINE",
"448.78 0 LINE"
);
}
);
width = 1062;
},
{
hints = (
{
horizontal = 1;
place = "{700, -20}";
target = down;
type = TopGhost;
}
);
layerId = "B277CF55-BF18-48AA-9059-7C346BD7E968";
paths = (
{
closed = 1;
nodes = (
"507.592 529.152 LINE",
"653.932 0 LINE",
"783.07 0 LINE",
"988.874 700.328 LINE",
"866.936 700.328 LINE",
"721.885 132.087 LINE",
"577.064 700.328 LINE",
"448.933 700.328 LINE",
"293.144 129.74 LINE",
"149.064 700.328 LINE",
"28.12 700.328 LINE",
"224.932 -1.008 LINE",
"353.07 0 LINE"
);
}
);
width = 1017;
},
{
hints = (
{
horizontal = 1;
place = "{700, -20}";
target = down;
type = TopGhost;
},
{
horizontal = 1;
place = "{0, 21}";
target = up;
type = BottomGhost;
}
);
layerId = "DC8E81A1-AADA-409F-9952-6B611BF6633C";
paths = (
{
closed = 1;
nodes = (
"451.13 667.114 LINE",
"660 0.051 LINE",
"680 0.051 LINE",
"869 700.038 LINE",
"847 700.038 LINE",
"670.019 37.498 LINE",
"462 700.038 LINE",
"440 700.038 LINE",
"233.783 39.881 LINE",
"57 700.038 LINE",
"35 700.038 LINE",
"224 0.051 LINE",
"242 0.051 LINE"
);
}
);
width = 904;
}
);
unicode = 0057;
},
{
glyphname = X;
leftMetricsKey = "H*0.666";
rightMetricsKey = "H*0.666";
layers = (
{
hints = (
{
horizontal = 1;
place = "{700, -20}";
target = down;
type = TopGhost;
},
{
horizontal = 1;
place = "{0, 21}";
target = up;
type = BottomGhost;
}
);
layerId = "DDF9CB4A-5BD9-4FF0-B193-4B15C8A4E20E";
paths = (
{
closed = 1;
nodes = (
"487.01 0.051 LINE",
"510.01 0.051 LINE",
"232.249 700.052 LINE",
"209.249 700.052 LINE"
);
},
{
closed = 1;
nodes = (
"357.387 368.944 LINE",
"70.01 0.051 LINE",
"93.01 0.051 LINE",
"371.41 359 LINE"
);
},
{
closed = 1;
nodes = (
"366.641 345.08 LINE",
"649.249 700.052 LINE",
"626.249 700.052 LINE",
"352.619 355.023 LINE"
);
}
);
width = 580;
},
{
hints = (
{
horizontal = 1;
place = "{0, 21}";
target = up;
type = BottomGhost;
},
{
horizontal = 1;
place = "{700, -20}";
target = down;
type = TopGhost;
}
);
layerId = "1561AD04-BD37-418E-8B6B-BE98B6024D19";
paths = (
{
closed = 1;
nodes = (
"487.903 0 LINE",
"615.685 0 LINE",
"323.401 700.328 LINE",
"195.619 700.328 LINE"
);
},
{
closed = 1;
nodes = (
"367.622 380.2 LINE",
"57.315 0 LINE",
"184.096 0 LINE",
"410.915 291.724 LINE"
);
},
{
closed = 1;
nodes = (
"445.483 319.129 LINE",
"755.989 700.328 LINE",
"629.208 700.328 LINE",
"402.19 407.604 LINE"
);
}
);
width = 673;
},
{
hints = (
{
horizontal = 1;
place = "{0, 21}";
target = up;
type = BottomGhost;
},
{
horizontal = 1;
place = "{700, -20}";
target = down;
type = TopGhost;
}
);
layerId = "42D00F0D-4BAE-4BEF-B7B4-E50550C9319F";
paths = (
{
closed = 1;
nodes = (
"522.403 0 LINE",
"786.505 0 LINE",
"422.843 700.035 LINE",
"158.741 700.035 LINE"
);
},
{
closed = 1;
nodes = (
"377.953 411.849 LINE",
"29.68 0 LINE",
"283.609 0 LINE",
"475.402 240.839 LINE"
);
},
{
closed = 1;
nodes = (
"558.491 289.173 LINE",
"906.569 700.035 LINE",
"652.636 700.035 LINE",
"462.045 460.184 LINE"
);
}
);
width = 806;
},
{
hints = (
{
horizontal = 1;
place = "{700, -20}";
target = down;
type = TopGhost;
},
{
horizontal = 1;
place = "{0, 21}";
target = up;
type = BottomGhost;
}
);
layerId = "C94DCDBE-E93C-4FE0-915D-AD8FEA32188B";
paths = (
{
closed = 1;
nodes = (
"522.403 0 LINE",
"786.505 0 LINE",
"283.597 700.035 LINE",
"19.495 700.035 LINE"
);
},
{
closed = 1;
nodes = (
"296.031 411.849 LINE",
"29.68 0 LINE",
"283.609 0 LINE",
"427.496 240.839 LINE"
);
},
{
closed = 1;
nodes = (
"500.971 289.173 LINE",
"767.324 700.035 LINE",
"513.391 700.035 LINE",
"370.508 460.184 LINE"
);
}
);
width = 806;
},
{
hints = (
{
horizontal = 1;
place = "{700, -20}";
target = down;
type = TopGhost;
},
{
horizontal = 1;
place = "{0, 21}";
target = up;
type = BottomGhost;
}
);
layerId = "B277CF55-BF18-48AA-9059-7C346BD7E968";
paths = (
{
closed = 1;
nodes = (
"487.903 0 LINE",
"615.685 0 LINE",
"184.097 700.328 LINE",
"56.315 700.328 LINE"
);
},
{
closed = 1;
nodes = (
"291.995 380.2 LINE",
"57.315 0 LINE",
"184.096 0 LINE",
"352.887 291.724 LINE"
);
},
{
closed = 1;
nodes = (
"382.005 319.129 LINE",
"616.685 700.328 LINE",
"489.904 700.328 LINE",
"321.113 407.604 LINE"
);
}
);
width = 673;
},
{
hints = (
{
horizontal = 1;
place = "{700, -20}";
target = down;
type = TopGhost;
},
{
horizontal = 1;
place = "{0, 21}";
target = up;
type = BottomGhost;
}
);
layerId = "DC8E81A1-AADA-409F-9952-6B611BF6633C";
paths = (
{
closed = 1;
nodes = (
"486 0.051 LINE",
"509 0.051 LINE",
"92 700.052 LINE",
"69 700.052 LINE"
);
},
{
closed = 1;
nodes = (
"283 368.944 LINE",
"69 0.051 LINE",
"92 0.051 LINE",
"299 359 LINE"
);
},
{
closed = 1;
nodes = (
"297 345.08 LINE",
"509 700.052 LINE",
"486 700.052 LINE",
"281 355.023 LINE"
);
}
);
width = 578;
}
);
unicode = 0058;
},
{
glyphname = Y;
leftMetricsKey = V;
rightMetricsKey = V;
layers = (
{
anchors = (
{
name = top;
position = "{399, 679}";
}
);
hints = (
{
horizontal = 1;
place = "{700, -20}";
target = down;
type = TopGhost;
},
{
horizontal = 1;
place = "{0, 21}";
target = up;
type = BottomGhost;
}
);
layerId = "DDF9CB4A-5BD9-4FF0-B193-4B15C8A4E20E";
paths = (
{
closed = 1;
nodes = (
"325.501 314.636 LINE",
"197.261 700.038 LINE",
"173.261 700.038 LINE",
"312.361 293.37 LINE",
"254.01 0.051 LINE",
"274.01 0.051 LINE",
"332.361 293.37 LINE",
"631.261 700.038 LINE",
"607.261 700.038 LINE"
);
}
);
width = 527;
},
{
anchors = (
{
name = top;
position = "{455, 701}";
}
);
hints = (
{
horizontal = 1;
place = "{700, -20}";
target = down;
type = TopGhost;
},
{
horizontal = 1;
place = "{0, 21}";
target = up;
type = BottomGhost;
}
);
layerId = "1561AD04-BD37-418E-8B6B-BE98B6024D19";
paths = (
{
closed = 1;
nodes = (
"387.255 356.077 LINE",
"294.385 700.328 LINE",
"167.548 700.328 LINE",
"309.417 253.478 LINE",
"259 0 LINE",
"373 0 LINE",
"423.447 253.632 LINE",
"742.044 700.328 LINE",
"616.206 700.328 LINE"
);
}
);
width = 631;
},
{
anchors = (
{
name = top;
position = "{518, 702}";
}
);
hints = (
{
horizontal = 1;
place = "{700, -20}";
target = down;
type = TopGhost;
},
{
horizontal = 1;
place = "{0, 21}";
target = up;
type = BottomGhost;
}
);
layerId = "42D00F0D-4BAE-4BEF-B7B4-E50550C9319F";
paths = (
{
closed = 1;
nodes = (
"468.884 451.908 LINE",
"404.879 700.035 LINE",
"150.225 700.035 LINE",
"308.187 212.103 LINE",
"266 0 LINE",
"488 0 LINE",
"530.265 212.495 LINE",
"882.249 700.035 LINE",
"631.595 700.035 LINE"
);
}
);
width = 753;
},
{
anchors = (
{
name = top;
position = "{378, 702}";
}
);
hints = (
{
place = "{266, 222}";
type = Stem;
},
{
horizontal = 1;
place = "{700, -20}";
target = down;
type = TopGhost;
},
{
horizontal = 1;
place = "{0, 21}";
target = up;
type = BottomGhost;
}
);
layerId = "C94DCDBE-E93C-4FE0-915D-AD8FEA32188B";
paths = (
{
closed = 1;
nodes = (
"379 451.908 LINE",
"265.642 700.035 LINE",
"10.988 700.035 LINE",
"266 212.103 LINE",
"266 0 LINE",
"488 0 LINE",
"488 212.495 LINE",
"743.012 700.035 LINE",
"492.358 700.035 LINE"
);
}
);
width = 754;
},
{
anchors = (
{
name = top;
position = "{316, 701}";
}
);
hints = (
{
place = "{259, 114}";
type = Stem;
},
{
horizontal = 1;
place = "{700, -20}";
target = down;
type = TopGhost;
},
{
horizontal = 1;
place = "{0, 21}";
target = up;
type = BottomGhost;
}
);
layerId = "B277CF55-BF18-48AA-9059-7C346BD7E968";
paths = (
{
closed = 1;
nodes = (
"316.432 356.077 LINE",
"155.09 700.328 LINE",
"28.253 700.328 LINE",
"259 253.478 LINE",
"259 0 LINE",
"373 0 LINE",
"373 253.632 LINE",
"602.748 700.328 LINE",
"476.91 700.328 LINE"
);
}
);
width = 631;
},
{
anchors = (
{
name = top;
position = "{265, 679}";
}
);
hints = (
{
place = "{255, 20}";
type = Stem;
},
{
horizontal = 1;
place = "{700, -20}";
target = down;
type = TopGhost;
},
{
horizontal = 1;
place = "{0, 21}";
target = up;
type = BottomGhost;
}
);
layerId = "DC8E81A1-AADA-409F-9952-6B611BF6633C";
paths = (
{
closed = 1;
nodes = (
"263.909 314.636 LINE",
"59 700.038 LINE",
"35 700.038 LINE",
"255 293.37 LINE",
"255 0.051 LINE",
"275 0.051 LINE",
"275 293.37 LINE",
"493 700.038 LINE",
"469 700.038 LINE"
);
}
);
width = 528;
}
);
unicode = 0059;
},
{
glyphname = Z;
leftMetricsKey = "H*0.666";
rightMetricsKey = "H*0.666";
layers = (
{
anchors = (
{
name = top;
position = "{414, 679}";
}
);
hints = (
{
horizontal = 1;
place = "{680, 20}";
type = Stem;
},
{
horizontal = 1;
place = "{0, 21}";
target = up;
type = BottomGhost;
}
);
layerId = "DDF9CB4A-5BD9-4FF0-B193-4B15C8A4E20E";
paths = (
{
closed = 1;
nodes = (
"655.261 700.038 LINE",
"221.261 700.038 LINE",
"217.305 680.152 LINE",
"630.305 680.152 LINE",
"72.768 18.943 LINE",
"69.01 0.051 LINE",
"526.01 0.051 LINE",
"529.768 18.943 LINE",
"94.768 18.943 LINE",
"651.305 680.152 LINE"
);
}
);
width = 596;
},
{
anchors = (
{
name = top;
position = "{425, 701}";
}
);
hints = (
{
horizontal = 1;
place = "{0, 99}";
type = Stem;
},
{
horizontal = 1;
place = "{601, 100}";
type = Stem;
}
);
layerId = "1561AD04-BD37-418E-8B6B-BE98B6024D19";
paths = (
{
closed = 1;
nodes = (
"694.295 700.328 LINE",
"196.295 700.328 LINE",
"176.596 601.285 LINE",
"538.49 600.757 LINE",
"74.724 89.111 LINE",
"57 0 LINE",
"555 0 LINE",
"574.752 99.308 LINE",
"211.752 99.308 LINE",
"676.571 611.217 LINE"
);
}
);
width = 611;
},
{
anchors = (
{
name = top;
position = "{425, 702}";
}
);
hints = (
{
horizontal = 1;
place = "{0, 177}";
type = Stem;
},
{
horizontal = 1;
place = "{524, 176}";
type = Stem;
}
);
layerId = "42D00F0D-4BAE-4BEF-B7B4-E50550C9319F";
paths = (
{
closed = 1;
nodes = (
"729.237 700.035 LINE",
"159.237 700.035 LINE",
"124.228 524.02 LINE",
"442.267 524.02 LINE",
"53.156 166.698 LINE",
"20 0 LINE",
"590 0 LINE",
"625.205 177 LINE",
"303.202 177 LINE",
"696.079 533.33 LINE"
);
}
);
width = 609;
},
{
anchors = (
{
name = top;
position = "{284, 702}";
}
);
hints = (
{
horizontal = 1;
place = "{0, 177}";
type = Stem;
},
{
horizontal = 1;
place = "{524, 176}";
type = Stem;
}
);
layerId = "C94DCDBE-E93C-4FE0-915D-AD8FEA32188B";
paths = (
{
closed = 1;
nodes = (
"589 700.035 LINE",
"19 700.035 LINE",
"19 524.02 LINE",
"337.04 524.02 LINE",
"19 166.698 LINE",
"19 0 LINE",
"589 0 LINE",
"589 177 LINE",
"266.997 177 LINE",
"589 533.33 LINE"
);
}
);
width = 608;
},
{
anchors = (
{
name = top;
position = "{285, 701}";
}
);
hints = (
{
horizontal = 1;
place = "{0, 99}";
type = Stem;
},
{
horizontal = 1;
place = "{601, 100}";
type = Stem;
}
);
layerId = "B277CF55-BF18-48AA-9059-7C346BD7E968";
paths = (
{
closed = 1;
nodes = (
"554 700.328 LINE",
"56 700.328 LINE",
"56 601.285 LINE",
"418 600.757 LINE",
"56 89.111 LINE",
"56 0 LINE",
"554 0 LINE",
"554 99.308 LINE",
"191 99.308 LINE",
"554 611.217 LINE"
);
}
);
width = 610;
},
{
anchors = (
{
name = top;
position = "{279, 679}";
}
);
hints = (
{
horizontal = 1;
place = "{680, 20}";
type = Stem;
},
{
horizontal = 1;
place = "{0, 21}";
target = up;
type = BottomGhost;
}
);
layerId = "DC8E81A1-AADA-409F-9952-6B611BF6633C";
paths = (
{
closed = 1;
nodes = (
"516 700.038 LINE",
"82 700.038 LINE",
"82 680.152 LINE",
"495 680.152 LINE",
"69 18.943 LINE",
"69 0.051 LINE",
"526 0.051 LINE",
"526 18.943 LINE",
"91 18.943 LINE",
"516 680.152 LINE"
);
}
);
width = 595;
}
);
unicode = 005A;
},
